<?xml version="1.0" encoding="utf-8"?>
<!-- Generator: Adobe Illustrator 23.0.3, SVG Export Plug-In . SVG Version: 6.00 Build 0)  -->
<svg version="1.1" id="Layer_1" xmlns="http://www.w3.org/2000/svg" xmlns:xlink="http://www.w3.org/1999/xlink" x="0px" y="0px"
	 viewBox="0 0 1000 1000" style="enable-background:new 0 0 1000 1000;" xml:space="preserve">
<style type="text/css">
	.st0{fill:#E84142;}
</style>
<path class="st0" d="M500,0C223.9,0,0,223.9,0,500s223.9,500,500,500c276.1,0,500-223.9,500-500S776.1,0,500,0 M426.2,684.2
	c-16.4,28.3-56.5,51.5-89.2,51.5H202.4c-32.7,0-46.2-23.3-30-51.7l291.5-511.6c16.2-28.4,42.7-28.4,58.9,0l69.3,121.7
	c16.2,28.4,16.1,74.9-0.3,103.2L426.2,684.2z M784.2,735.7H586.4c-32.7,0-46.1-23.2-29.7-51.5l100-173.1c16.4-28.3,43-28.3,59.2,0.2
	L814.3,684C830.5,712.5,816.9,735.7,784.2,735.7"/>
</svg>
