<svg width="512" height="512" viewBox="0 0 512 512" fill="none" xmlns="http://www.w3.org/2000/svg">
<mask id="mask0" mask-type="alpha" maskUnits="userSpaceOnUse" x="0" y="0" width="512" height="512">
<circle cx="256" cy="256" r="256" fill="#C4C4C4"/>
</mask>
<g mask="url(#mask0)">
<path d="M-83.5 196.5L-6 341.5L2.5 356L263 157.5L369.5 18L263 -20.5L74.5 7.5L-83.5 196.5Z" fill="url(#paint0_linear)"/>
<path d="M61.5 282C38.7 308 -1.33333 324.5 -18.5 329.5V337.5L26.5 609L279 519.5L461 136.5V17C389 9.33334 251.3 -3.59999 216.5 6.00001C173 18 90 249.5 61.5 282Z" fill="url(#paint1_linear)"/>
<path d="M202.5 323C208.1 339.4 134.5 440.833 97 489.5L202.5 611.5L484.5 426C519.167 267.833 557.9 -30.8 435.5 40C282.5 128.5 195.5 302.5 202.5 323Z" fill="url(#paint2_linear)"/>
<path d="M362 421.5C344.5 480.5 271 507.5 179.5 523.5V545.5L569.5 537.5C582 362.167 585.9 35 501.5 129C396 246.5 383.485 349.065 362 421.5Z" fill="#29D9FF"/>
<circle cx="256" cy="256" r="200" fill="white"/>
<path d="M314.141 246.142C327.684 239.249 336.157 227.109 334.178 206.884C331.513 179.245 307.627 169.977 277.475 167.338L277.469 129H254.107L254.101 166.329C247.954 166.329 241.688 166.45 235.451 166.575L235.446 129.005L212.105 129.003L212.1 167.331C207.042 167.434 202.074 167.532 197.224 167.532V167.419L165 167.406L165.004 192.326C165.004 192.326 182.257 192.001 181.972 192.316C191.432 192.323 194.52 197.811 195.409 202.548L195.416 246.223V307.571C194.999 310.544 193.247 315.294 186.633 315.303C186.934 315.568 169.638 315.3 169.638 315.3L165.004 343.166H195.401C201.065 343.173 206.63 343.261 212.09 343.304L212.111 382.076L235.446 382.082L235.439 343.717C241.859 343.848 248.056 343.905 254.109 343.897L254.102 382.082H277.464L277.477 343.375C316.745 341.122 344.237 331.238 347.655 294.393C350.41 264.729 336.436 251.488 314.141 246.142ZM236.009 194.008C249.185 194.008 290.623 189.816 290.629 217.315C290.623 243.679 249.198 240.599 236.009 240.599V194.008V194.008ZM235.999 315.492L236.009 264.12C251.84 264.116 301.492 259.569 301.499 289.795C301.505 318.781 251.84 315.481 235.999 315.492Z" fill="black"/>
<path d="M384.885 288C384.092 288 383.378 287.72 382.743 287.161C382.188 286.522 381.911 285.803 381.911 285.004V263.311H360.974C360.181 263.311 359.467 263.031 358.833 262.472C358.278 261.833 358 261.114 358 260.315V251.086C358 250.207 358.278 249.488 358.833 248.929C359.388 248.29 360.102 247.97 360.974 247.97H381.911V226.996C381.911 226.117 382.188 225.398 382.743 224.839C383.378 224.28 384.092 224 384.885 224H395.115C395.988 224 396.701 224.28 397.257 224.839C397.891 225.398 398.208 226.117 398.208 226.996V247.97H418.907C419.779 247.97 420.493 248.29 421.048 248.929C421.683 249.488 422 250.207 422 251.086V260.315C422 261.194 421.683 261.913 421.048 262.472C420.493 263.031 419.779 263.311 418.907 263.311H398.208V285.004C398.208 285.883 397.891 286.602 397.257 287.161C396.701 287.72 395.988 288 395.115 288H384.885Z" fill="black"/>
<path d="M115.885 288C115.092 288 114.378 287.72 113.743 287.161C113.188 286.522 112.911 285.803 112.911 285.004V263.311H91.974C91.1809 263.311 90.4672 263.031 89.8327 262.472C89.2776 261.833 89 261.114 89 260.315V251.086C89 250.207 89.2776 249.488 89.8327 248.929C90.3879 248.29 91.1016 247.97 91.974 247.97H112.911V226.996C112.911 226.117 113.188 225.398 113.743 224.839C114.378 224.28 115.092 224 115.885 224H126.115C126.988 224 127.701 224.28 128.257 224.839C128.891 225.398 129.208 226.117 129.208 226.996V247.97H149.907C150.779 247.97 151.493 248.29 152.048 248.929C152.683 249.488 153 250.207 153 251.086V260.315C153 261.194 152.683 261.913 152.048 262.472C151.493 263.031 150.779 263.311 149.907 263.311H129.208V285.004C129.208 285.883 128.891 286.602 128.257 287.161C127.701 287.72 126.988 288 126.115 288H115.885Z" fill="black"/>
</g>
<defs>
<linearGradient id="paint0_linear" x1="143" y1="-20.5" x2="143" y2="356" gradientUnits="userSpaceOnUse">
<stop stop-color="#CE08A0"/>
<stop offset="1" stop-color="#E30B96"/>
</linearGradient>
<linearGradient id="paint1_linear" x1="221.25" y1="2.59039" x2="221.25" y2="609" gradientUnits="userSpaceOnUse">
<stop stop-color="#CF0899"/>
<stop offset="1" stop-color="#B505BF"/>
</linearGradient>
<linearGradient id="paint2_linear" x1="307.982" y1="29.3235" x2="307.982" y2="611.5" gradientUnits="userSpaceOnUse">
<stop stop-color="#636BF7"/>
<stop offset="1" stop-color="#6439D2"/>
</linearGradient>
</defs>
</svg>
