<svg xmlns="http://www.w3.org/2000/svg" width="154" height="154" viewBox="0 0 154 154"><g transform="translate(0.288 0.362)"><circle cx="77" cy="77" r="77" transform="translate(-0.288 -0.362)" fill="#F7932F"/><path d="M56.984,26.261q.923,9.335-6.719,13.233,6,1.436,8.976,5.283t2.308,10.976a19.39,19.39,0,0,1-1.667,6.411,14.153,14.153,0,0,1-3.308,4.565,16.836,16.836,0,0,1-4.975,3,30.313,30.313,0,0,1-6.232,1.77,61.8,61.8,0,0,1-7.463.769V85.348h-7.9V72.474q-4.1,0-6.257-.051V85.348h-7.9V72.269q-.923,0-2.77-.026t-2.821-.026H0l1.59-9.386H7.283a2.74,2.74,0,0,0,2.975-2.616V39.6h.821a5.216,5.216,0,0,0-.821-.051V24.825q-.667-3.488-4.565-3.488H0V12.925l10.874.051q3.283,0,4.975-.051V0h7.9V12.669q4.206-.1,6.257-.1V0h7.9V12.925a45.759,45.759,0,0,1,7.181,1.154,23.324,23.324,0,0,1,5.8,2.308,11.75,11.75,0,0,1,4.231,4,13.089,13.089,0,0,1,1.872,5.873ZM45.957,54.214a6.844,6.844,0,0,0-.769-3.283,7.691,7.691,0,0,0-1.9-2.359,9.74,9.74,0,0,0-2.949-1.564,24.9,24.9,0,0,0-3.36-.949,30.331,30.331,0,0,0-3.8-.462q-2.257-.154-3.539-.154t-3.308.051q-2.026.051-2.436.051V62.882q.41,0,1.9.026t2.462.026q.975,0,2.718-.077t3-.205q1.257-.128,2.923-.436A19.631,19.631,0,0,0,39.75,61.5a17.43,17.43,0,0,0,2.436-1.077,7.108,7.108,0,0,0,2.026-1.539,7.249,7.249,0,0,0,1.257-2.052,6.8,6.8,0,0,0,.487-2.616ZM42.315,29.8a6.732,6.732,0,0,0-.641-3,7.148,7.148,0,0,0-1.564-2.154,7.669,7.669,0,0,0-2.462-1.436,17.628,17.628,0,0,0-2.821-.846,28.241,28.241,0,0,0-3.154-.41Q29.8,21.8,28.7,21.824t-2.77.051Q24.26,21.9,23.9,21.9V37.647q.256,0,1.769.026t2.385,0q.872-.026,2.564-.1a21.691,21.691,0,0,0,2.821-.282q1.129-.205,2.641-.564a8.7,8.7,0,0,0,2.488-.949,14.083,14.083,0,0,0,1.9-1.385,4.935,4.935,0,0,0,1.385-1.975,7.113,7.113,0,0,0,.462-2.616Z" transform="translate(45.244 34.24)" fill="#fff"/></g></svg>