<svg xmlns="http://www.w3.org/2000/svg" width="633.425" height="544.006" viewBox="0 0 633.425 544.006"><g transform="translate(1 167)"><path d="M75.322,455.3V368.6H0V302.892H75.322v-62.5H0V174.684H75.322V0H191.992c123.24,0,142.952.962,174.684,7.853,87.342,19.071,156.414,73.72,190.389,150.8l6.731,15.225,33.815.481,33.815.321V240.39H579.18l-.16,31.251-.16,31.251h52.565V368.6l-34.616.321-34.456.481-5.289,12.02c-32.853,74.2-97.6,127.888-179.812,149.042-37.5,9.776-42.629,10.1-178.049,10.737L75.322,542Zm266.032,22.436c48.879-10.1,83.015-27.885,114.586-60.1,15.706-16.026,31.251-37.18,35.418-47.758.962-2.724-8.013-2.885-175.325-2.885-159.3,0-176.286.321-177.248,2.564-1.442,3.686-1.122,110.419.321,111.862.641.641,42.629.962,93.271.481C318.918,481.261,325.488,480.941,341.354,477.736Zm170.837-178.37c.641-2.083,1.122-14.423,1.122-27.725,0-13.141-.481-25.642-1.122-27.565l-1.122-3.686H137.824v30.129c0,16.667.481,30.77,1.122,31.251.481.641,84.457,1.122,186.543,1.122H511.07Zm-25-133.817c-29.488-52.726-78.688-87.5-144.234-101.6-16.186-3.686-20.033-3.686-110.9-4.327l-94.233-.481v56.732c0,31.09.481,57.213,1.122,57.694.481.641,80.29,1.122,177.248,1.122H492.319Z" transform="translate(0 -166)" fill="#FAB530" stroke="#707070" stroke-width="2"/></g></svg>