<svg width="315" height="315" viewBox="0 0 315 315" fill="none" xmlns="http://www.w3.org/2000/svg">
    <path d="M52.5 96.9243L157.5 157.524V197.924L87.5 157.524V238.324L52.5 218.124V96.9243Z" fill="#2891F9" />
    <path d="M87.5 238.324V157.524L122.5 177.724V218.124L87.5 238.324Z" fill="#2BBDF7" />
    <path d="M52.5 96.9241L87.5 76.7241L192.5 137.324L157.5 157.524L52.5 96.9241Z" fill="#2B6DEF" />
    <path d="M157.5 157.524L192.5 137.324V177.724L157.5 197.924V157.524Z" fill="#2BBDF7" />
    <path d="M192.5 96.9243V218.124L227.5 238.324V117.124L192.5 96.9243Z" fill="#2891F9" />
    <path d="M262.5 96.9243L227.5 117.124V238.324L262.5 218.124V96.9243Z" fill="#2BBDF7" />
    <path d="M227.5 76.7241L262.5 96.9241L227.5 117.124L192.5 96.9241L227.5 76.7241Z" fill="#2B6DEF" />
</svg>