<svg width="24" height="25" viewBox="0 0 24 25" fill="none" xmlns="http://www.w3.org/2000/svg">
<path d="M18.5167 0.911133C15.7355 0.911133 13.4667 3.17997 13.3935 5.96113V11.5966C12.8812 11.5966 12.3688 11.6698 11.7833 11.6698C11.1978 11.6698 10.6855 11.6698 10.1732 11.743V5.96113C10.1732 3.17997 7.83116 0.911133 4.97681 0.984321C2.26884 0.984321 0.0731884 3.25316 0 5.96113V19.4278C0.0731884 22.209 2.34203 24.4778 5.19638 24.4046C7.97754 24.3314 10.1732 22.1358 10.1732 19.4278V13.7923C10.6855 13.7923 11.1978 13.7191 11.7833 13.7191C12.3688 13.7191 12.8812 13.7191 13.3935 13.6459V19.3546C13.4667 22.1358 15.7355 24.4046 18.5899 24.3314C21.371 24.2582 23.5667 22.0626 23.5667 19.3546V5.96113C23.5667 3.17997 21.2978 0.911133 18.5167 0.911133ZM5.12319 2.96041C6.80652 2.96041 8.12391 4.2778 8.12391 5.96113V11.8894C6.66015 12.109 5.19638 12.5481 3.8058 13.1336C3.22029 13.4263 2.63478 13.7191 2.12246 14.1582V5.96113C2.12246 4.35099 3.43986 2.96041 5.12319 2.96041ZM8.12391 19.4278C8.12391 21.1111 6.80652 22.4285 5.12319 22.4285C3.43986 22.4285 2.12246 21.1111 2.12246 19.4278V18.1104C2.12246 16.9394 3.07391 15.7684 4.68406 15.1097C5.78188 14.5974 6.9529 14.3046 8.1971 14.085L8.12391 19.4278ZM18.5167 22.4285C16.8333 22.4285 15.5159 21.1111 15.5159 19.4278V13.4995C16.9797 13.28 18.4435 12.8408 19.8341 12.2553C20.4196 11.9626 21.0051 11.6698 21.5174 11.2307V19.4278C21.5174 21.1111 20.1268 22.4285 18.5167 22.4285ZM18.9558 10.3524C17.858 10.8648 16.687 11.1575 15.4428 11.3771V5.96113C15.4428 4.2778 16.7601 2.96041 18.4435 2.96041C20.1268 2.96041 21.4442 4.2778 21.4442 5.96113V7.27852C21.5174 8.52273 20.5659 9.62055 18.9558 10.3524Z" fill="url(#paint0_linear)"/>
<defs>
<linearGradient id="paint0_linear" x1="11.7833" y1="0.911133" x2="-4.46484" y2="17.1593" gradientUnits="userSpaceOnUse">
<stop stop-color="#00E8A2"/>
<stop offset="1" stop-color="#00ADE8"/>
</linearGradient>
</defs>
</svg>
