<?xml version="1.0" encoding="UTF-8"?>
<svg xmlns="http://www.w3.org/2000/svg" xmlns:xlink="http://www.w3.org/1999/xlink" width="500pt" height="500pt" viewBox="0 0 500 500" version="1.1">
<g id="surface1">
<path style=" stroke:none;fill-rule:nonzero;fill:rgb(100%,100%,100%);fill-opacity:1;" d="M 250 0 C 388.070312 0 500 111.929688 500 250 C 500 388.070312 388.070312 500 250 500 C 111.929688 500 0 388.070312 0 250 C 0 111.929688 111.929688 0 250 0 Z M 250 0 "/>
<path style=" stroke:none;fill-rule:evenodd;fill:rgb(35.294118%,33.333333%,39.215686%);fill-opacity:1;" d="M 405 104.273438 L 391.363281 117.910156 C 458.808594 191.664062 458.808594 304.699219 391.363281 378.453125 L 405 392.089844 C 480.058594 310.710938 480.058594 185.335938 405 103.953125 Z M 405 104.273438 "/>
<path style=" stroke:none;fill-rule:evenodd;fill:rgb(35.294118%,33.333333%,39.215686%);fill-opacity:1;" d="M 118.183594 105.453125 C 191.9375 38.011719 304.972656 38.011719 378.726562 105.453125 L 392.363281 91.816406 C 310.980469 16.761719 185.609375 16.761719 104.226562 91.816406 Z M 118.183594 105.453125 "/>
<path style=" stroke:none;fill-rule:evenodd;fill:rgb(35.294118%,33.333333%,39.215686%);fill-opacity:1;" d="M 105.453125 378.589844 C 38.09375 304.855469 38.09375 191.917969 105.453125 118.183594 L 91.816406 104.546875 C 16.761719 185.925781 16.761719 311.300781 91.816406 392.683594 Z M 105.453125 378.589844 "/>
<path style=" stroke:none;fill-rule:evenodd;fill:rgb(35.294118%,33.333333%,39.215686%);fill-opacity:1;" d="M 378.589844 391.183594 C 304.835938 458.625 191.800781 458.625 118.046875 391.183594 L 104.410156 404.816406 C 185.789062 479.875 311.164062 479.875 392.546875 404.816406 Z M 378.589844 391.183594 "/>
<path style=" stroke:none;fill-rule:nonzero;fill:rgb(94.117647%,57.254902%,25.882353%);fill-opacity:1;" d="M 334.453125 202.863281 C 331.726562 174.410156 307.183594 164.863281 276.136719 161.953125 L 276.136719 122.726562 L 252.136719 122.726562 L 252.136719 161.183594 C 245.816406 161.183594 239.363281 161.183594 232.953125 161.410156 L 232.953125 122.726562 L 209.089844 122.726562 L 209.089844 162.183594 C 203.910156 162.183594 198.773438 162.183594 193.816406 162.183594 L 160.453125 162.183594 L 160.453125 187.863281 C 160.453125 187.863281 178.183594 187.546875 177.910156 187.863281 C 184.554688 187.132812 190.582031 191.796875 191.546875 198.410156 L 191.546875 306.453125 C 191.40625 308.71875 190.367188 310.832031 188.660156 312.328125 C 186.953125 313.820312 184.71875 314.570312 182.453125 314.410156 C 182.773438 314.683594 165 314.410156 165 314.410156 L 160.226562 343.089844 L 208.683594 343.089844 L 208.683594 383.183594 L 232.683594 383.183594 L 232.683594 343.683594 C 239.074219 343.683594 245.46875 343.683594 251.863281 343.683594 L 251.863281 383 L 275.910156 383 L 275.910156 343.363281 C 316.453125 340.910156 344.726562 330.910156 348.273438 292.953125 C 351.136719 262.410156 336.773438 248.773438 313.816406 243.273438 C 327.773438 236.183594 336.546875 223.683594 334.453125 202.863281 Z M 300.816406 288.226562 C 300.816406 318.046875 249.726562 314.636719 233.453125 314.636719 L 233.453125 261.726562 C 249.726562 261.773438 300.816406 257.089844 300.816406 288.226562 Z M 289.683594 213.636719 C 289.683594 240.910156 247.046875 237.589844 233.5 237.589844 L 233.5 189.546875 C 247.046875 189.546875 289.683594 185.273438 289.683594 213.636719 Z M 289.683594 213.636719 "/>
<path style=" stroke:none;fill-rule:nonzero;fill:rgb(15.686275%,12.941176%,21.960784%);fill-opacity:1;" d="M 248.316406 496.683594 C 111.1875 496.65625 0.0351562 385.480469 0.046875 248.347656 C 0.0546875 111.21875 111.21875 0.0546875 248.347656 0.046875 C 385.480469 0.0351562 496.65625 111.1875 496.683594 248.316406 C 496.53125 385.421875 385.421875 496.53125 248.316406 496.683594 Z M 248.316406 19.410156 C 121.976562 19.484375 19.601562 121.945312 19.636719 248.289062 C 19.667969 374.632812 122.097656 477.035156 248.4375 477.046875 C 374.78125 477.054688 477.222656 374.660156 477.273438 248.316406 C 477.121094 121.960938 374.675781 19.59375 248.316406 19.546875 Z M 248.316406 19.410156 "/>
</g>
</svg>
