<svg width="464" height="292" viewBox="0 0 464 292" fill="none" xmlns="http://www.w3.org/2000/svg">
<g filter="url(#filter0_d_9069_112112)">
<rect x="4" width="456" height="284" rx="8" fill="#243036"/>
</g>
<path d="M254.5 82C221.35 82 194.5 108.85 194.5 142C194.5 175.15 221.35 202 254.5 202C287.65 202 314.5 175.15 314.5 142C314.5 108.85 287.65 82 254.5 82ZM254.5 187C229.675 187 209.5 166.825 209.5 142C209.5 117.175 229.675 97 254.5 97C279.325 97 299.5 117.175 299.5 142C299.5 166.825 279.325 187 254.5 187ZM164.5 142C164.5 124.075 175 108.55 190.225 101.35C192.775 100.15 194.5 97.825 194.5 95.05V93.625C194.5 88.525 189.175 85.3 184.6 87.475C163.9 96.925 149.5 117.775 149.5 142C149.5 166.225 163.9 187.075 184.6 196.525C189.175 198.625 194.5 195.475 194.5 190.375V189.025C194.5 186.25 192.775 183.85 190.225 182.65C175 175.45 164.5 159.925 164.5 142Z" fill="#31CB9E"/>
<path opacity="0.5" d="M232 0H452C456.418 0 460 3.58172 460 8V276C460 280.418 456.418 284 452 284H232V0Z" fill="#11171A"/>
<mask id="mask0_9069_112112" style="mask-type:alpha" maskUnits="userSpaceOnUse" x="232" y="0" width="228" height="284">
<path d="M232 0H452C456.418 0 460 3.58172 460 8V276C460 280.418 456.418 284 452 284H232V0Z" fill="#11171A"/>
</mask>
<g mask="url(#mask0_9069_112112)">
<path d="M254.5 82C221.35 82 194.5 108.85 194.5 142C194.5 175.15 221.35 202 254.5 202C287.65 202 314.5 175.15 314.5 142C314.5 108.85 287.65 82 254.5 82ZM254.5 187C229.675 187 209.5 166.825 209.5 142C209.5 117.175 229.675 97 254.5 97C279.325 97 299.5 117.175 299.5 142C299.5 166.825 279.325 187 254.5 187ZM164.5 142C164.5 124.075 175 108.55 190.225 101.35C192.775 100.15 194.5 97.825 194.5 95.05V93.625C194.5 88.525 189.175 85.3 184.6 87.475C163.9 96.925 149.5 117.775 149.5 142C149.5 166.225 163.9 187.075 184.6 196.525C189.175 198.625 194.5 195.475 194.5 190.375V189.025C194.5 186.25 192.775 183.85 190.225 182.65C175 175.45 164.5 159.925 164.5 142Z" fill="#6C7284"/>
</g>
<defs>
<filter id="filter0_d_9069_112112" x="0" y="0" width="464" height="292" filterUnits="userSpaceOnUse" color-interpolation-filters="sRGB">
<feFlood flood-opacity="0" result="BackgroundImageFix"/>
<feColorMatrix in="SourceAlpha" type="matrix" values="0 0 0 0 0 0 0 0 0 0 0 0 0 0 0 0 0 0 127 0" result="hardAlpha"/>
<feOffset dy="4"/>
<feGaussianBlur stdDeviation="2"/>
<feComposite in2="hardAlpha" operator="out"/>
<feColorMatrix type="matrix" values="0 0 0 0 0 0 0 0 0 0 0 0 0 0 0 0 0 0 0.25 0"/>
<feBlend mode="normal" in2="BackgroundImageFix" result="effect1_dropShadow_9069_112112"/>
<feBlend mode="normal" in="SourceGraphic" in2="effect1_dropShadow_9069_112112" result="shape"/>
</filter>
</defs>
</svg>
