<svg width="137" height="24" viewBox="0 0 137 24" fill="none" xmlns="http://www.w3.org/2000/svg">
<path d="M32.32 6.688V8.864H27.68V11.344H31.264V13.424H27.68V18H24.944V6.688H32.32ZM37.1173 8.96C37.7999 8.96 38.3866 9.11467 38.8773 9.424C39.3679 9.73333 39.7306 10.1547 39.9653 10.688V9.072H42.6853V18H39.9653V16.384C39.7306 16.9173 39.3679 17.3387 38.8773 17.648C38.3866 17.9573 37.7999 18.112 37.1173 18.112C36.3813 18.112 35.7199 17.9307 35.1332 17.568C34.5573 17.1947 34.0986 16.6613 33.7573 15.968C33.4266 15.2747 33.2613 14.464 33.2613 13.536C33.2613 12.5973 33.4266 11.7867 33.7573 11.104C34.0986 10.4107 34.5573 9.88267 35.1332 9.52C35.7199 9.14667 36.3813 8.96 37.1173 8.96ZM37.9973 11.36C37.4106 11.36 36.9359 11.552 36.5733 11.936C36.2213 12.32 36.0453 12.8533 36.0453 13.536C36.0453 14.2187 36.2213 14.752 36.5733 15.136C36.9359 15.52 37.4106 15.712 37.9973 15.712C38.5733 15.712 39.0426 15.5147 39.4053 15.12C39.7786 14.7253 39.9653 14.1973 39.9653 13.536C39.9653 12.864 39.7786 12.336 39.4053 11.952C39.0426 11.5573 38.5733 11.36 37.9973 11.36ZM48.601 8.96C49.753 8.96 50.7183 9.28 51.497 9.92C52.2757 10.5493 52.7663 11.4187 52.969 12.528H50.073C49.9877 12.144 49.8117 11.8453 49.545 11.632C49.2783 11.4187 48.9423 11.312 48.537 11.312C48.057 11.312 47.6623 11.504 47.353 11.888C47.0437 12.2613 46.889 12.8107 46.889 13.536C46.889 14.2613 47.0437 14.816 47.353 15.2C47.6623 15.5733 48.057 15.76 48.537 15.76C48.9423 15.76 49.2783 15.6533 49.545 15.44C49.8117 15.2267 49.9877 14.928 50.073 14.544H52.969C52.7663 15.6533 52.2757 16.528 51.497 17.168C50.7183 17.7973 49.753 18.112 48.601 18.112C47.7263 18.112 46.9477 17.9307 46.265 17.568C45.593 17.1947 45.065 16.6613 44.681 15.968C44.297 15.2747 44.105 14.464 44.105 13.536C44.105 12.5973 44.2917 11.7867 44.665 11.104C45.049 10.4107 45.5823 9.88267 46.265 9.52C46.9477 9.14667 47.7263 8.96 48.601 8.96ZM59.4531 15.648V18H58.2211C57.1758 18 56.3598 17.744 55.7731 17.232C55.1971 16.7093 54.9091 15.8507 54.9091 14.656V11.376H53.7091V9.072H54.9091V6.88H57.6451V9.072H59.4371V11.376H57.6451V14.704C57.6451 15.056 57.7145 15.3013 57.8531 15.44C58.0025 15.5787 58.2478 15.648 58.5891 15.648H59.4531ZM65.1669 8.96C66.0522 8.96 66.8415 9.14667 67.5349 9.52C68.2389 9.88267 68.7882 10.4107 69.1829 11.104C69.5882 11.7973 69.7909 12.608 69.7909 13.536C69.7909 14.464 69.5882 15.2747 69.1829 15.968C68.7882 16.6613 68.2389 17.1947 67.5349 17.568C66.8415 17.9307 66.0522 18.112 65.1669 18.112C64.2815 18.112 63.4869 17.9307 62.7829 17.568C62.0789 17.1947 61.5242 16.6613 61.1189 15.968C60.7242 15.2747 60.5269 14.464 60.5269 13.536C60.5269 12.608 60.7242 11.7973 61.1189 11.104C61.5242 10.4107 62.0789 9.88267 62.7829 9.52C63.4869 9.14667 64.2815 8.96 65.1669 8.96ZM65.1669 11.328C64.6442 11.328 64.2015 11.52 63.8389 11.904C63.4869 12.2773 63.3109 12.8213 63.3109 13.536C63.3109 14.2507 63.4869 14.7947 63.8389 15.168C64.2015 15.5413 64.6442 15.728 65.1669 15.728C65.6895 15.728 66.1269 15.5413 66.4789 15.168C66.8309 14.7947 67.0069 14.2507 67.0069 13.536C67.0069 12.8213 66.8309 12.2773 66.4789 11.904C66.1269 11.52 65.6895 11.328 65.1669 11.328ZM73.9456 10.752C74.287 10.208 74.7243 9.776 75.2576 9.456C75.8016 9.136 76.3883 8.976 77.0176 8.976V11.904H76.2336C75.5083 11.904 74.943 12.0587 74.5376 12.368C74.143 12.6773 73.9456 13.2 73.9456 13.936V18H71.2096V9.072H73.9456V10.752ZM80.2268 9.072L82.3708 14.544L84.3708 9.072H87.3948L81.8268 22.256H78.8188L80.9148 17.664L77.1707 9.072H80.2268ZM93.4714 6.576C94.9114 6.576 96.1007 6.95467 97.0394 7.712C97.9887 8.46933 98.602 9.49333 98.8794 10.784H95.9834C95.77 10.2613 95.4394 9.85067 94.9914 9.552C94.554 9.25333 94.0314 9.104 93.4234 9.104C92.6234 9.104 91.978 9.39733 91.4874 9.984C90.9967 10.5707 90.7514 11.3547 90.7514 12.336C90.7514 13.3173 90.9967 14.1013 91.4874 14.688C91.978 15.264 92.6234 15.552 93.4234 15.552C94.0314 15.552 94.554 15.4027 94.9914 15.104C95.4394 14.8053 95.77 14.4 95.9834 13.888H98.8794C98.602 15.168 97.9887 16.192 97.0394 16.96C96.1007 17.7173 94.9114 18.096 93.4714 18.096C92.3727 18.096 91.4074 17.856 90.5754 17.376C89.7434 16.8853 89.098 16.2027 88.6394 15.328C88.1914 14.4533 87.9674 13.456 87.9674 12.336C87.9674 11.216 88.1914 10.2187 88.6394 9.344C89.098 8.46933 89.7434 7.792 90.5754 7.312C91.4074 6.82133 92.3727 6.576 93.4714 6.576ZM106.077 8.976C107.101 8.976 107.911 9.31733 108.509 10C109.117 10.6827 109.421 11.6213 109.421 12.816V18H106.685V13.136C106.685 12.5387 106.525 12.0747 106.205 11.744C105.895 11.4027 105.479 11.232 104.957 11.232C104.402 11.232 103.959 11.408 103.629 11.76C103.309 12.112 103.149 12.6133 103.149 13.264V18H100.413V6.16H103.149V10.704C103.405 10.1707 103.783 9.74933 104.285 9.44C104.797 9.13067 105.394 8.976 106.077 8.976ZM114.617 8.96C115.3 8.96 115.887 9.11467 116.377 9.424C116.868 9.73333 117.231 10.1547 117.465 10.688V9.072H120.185V18H117.465V16.384C117.231 16.9173 116.868 17.3387 116.377 17.648C115.887 17.9573 115.3 18.112 114.617 18.112C113.881 18.112 113.22 17.9307 112.633 17.568C112.057 17.1947 111.599 16.6613 111.257 15.968C110.927 15.2747 110.761 14.464 110.761 13.536C110.761 12.5973 110.927 11.7867 111.257 11.104C111.599 10.4107 112.057 9.88267 112.633 9.52C113.22 9.14667 113.881 8.96 114.617 8.96ZM115.497 11.36C114.911 11.36 114.436 11.552 114.073 11.936C113.721 12.32 113.545 12.8533 113.545 13.536C113.545 14.2187 113.721 14.752 114.073 15.136C114.436 15.52 114.911 15.712 115.497 15.712C116.073 15.712 116.543 15.5147 116.905 15.12C117.279 14.7253 117.465 14.1973 117.465 13.536C117.465 12.864 117.279 12.336 116.905 11.952C116.543 11.5573 116.073 11.36 115.497 11.36ZM121.813 6.56C121.813 6.144 121.962 5.80267 122.261 5.536C122.56 5.25867 122.954 5.12 123.445 5.12C123.936 5.12 124.33 5.25867 124.629 5.536C124.928 5.80267 125.077 6.144 125.077 6.56C125.077 6.96533 124.928 7.30667 124.629 7.584C124.33 7.85067 123.936 7.984 123.445 7.984C122.954 7.984 122.56 7.85067 122.261 7.584C121.962 7.30667 121.813 6.96533 121.813 6.56ZM124.805 9.072V18H122.069V9.072H124.805ZM132.358 8.976C133.382 8.976 134.193 9.31733 134.79 10C135.398 10.6827 135.702 11.6213 135.702 12.816V18H132.966V13.136C132.966 12.5387 132.806 12.0747 132.486 11.744C132.177 11.4027 131.761 11.232 131.238 11.232C130.683 11.232 130.241 11.408 129.91 11.76C129.59 12.112 129.43 12.6133 129.43 13.264V18H126.694V9.072H129.43V10.704C129.686 10.1707 130.065 9.74933 130.566 9.44C131.078 9.13067 131.675 8.976 132.358 8.976Z" fill="white"/>
<g clip-path="url(#clip0)">
<path d="M5.8404 9.65408C5.85399 9.63361 5.87097 9.60972 5.88455 9.58925C5.88455 9.58584 5.88455 9.58243 5.88455 9.58243C5.88455 8.41544 6.82852 7.46684 7.98981 7.46684C9.1511 7.46684 10.0951 8.41544 10.0951 9.58243C10.0951 9.58584 10.0951 9.58925 10.0951 9.58925C10.1087 9.60972 10.1256 9.63361 10.1392 9.65408C10.4278 10.084 11.0187 10.2376 11.4635 9.97483C11.5857 9.90318 11.7046 9.82811 11.82 9.74963C12.0272 9.60972 12.1426 9.36404 12.1154 9.11154V9.1013C12.0917 8.89315 12.1732 8.68501 12.3294 8.54852L12.9609 7.99232C13.1749 7.80124 13.2258 7.4839 13.0764 7.23822L12.3973 6.119C12.2479 5.87332 11.9457 5.77095 11.6774 5.87673L10.8862 6.18383C10.6927 6.2589 10.4788 6.23502 10.3056 6.119C10.1222 5.99275 9.92529 5.88356 9.72156 5.78801C9.5348 5.70271 9.40237 5.52868 9.36842 5.32395L9.22241 4.49478C9.17487 4.20815 8.92699 4 8.63497 4H7.34125C7.04923 4 6.80136 4.20815 6.75382 4.49819L6.60781 5.32736C6.57385 5.5321 6.44142 5.70612 6.25467 5.79143C6.05093 5.88697 5.85738 5.99616 5.67063 6.12241C5.50085 6.23843 5.28353 6.26232 5.08998 6.18725L4.309 5.88014C4.03735 5.77437 3.73175 5.87673 3.57894 6.12583L2.90662 7.23822C2.75721 7.4839 2.80475 7.80124 3.02207 7.99232L3.65365 8.54852C3.80984 8.68842 3.89134 8.89315 3.86757 9.10471C3.83701 9.36063 3.95246 9.61314 4.16638 9.75645C4.28183 9.83493 4.39728 9.90659 4.51613 9.97825C4.97113 10.2444 5.54838 10.0943 5.8404 9.65408Z" fill="white"/>
<path d="M6.39732 16.2363C6.37016 16.2329 6.34639 16.2329 6.31922 16.2295C6.31583 16.2295 6.31583 16.2329 6.31243 16.2329C5.30734 16.8164 4.01702 16.4718 3.43637 15.4583C2.85573 14.4483 3.19868 13.1517 4.20717 12.5682C4.21056 12.5682 4.21056 12.5648 4.21396 12.5648C4.22415 12.5409 4.23433 12.517 4.24792 12.4931C4.47542 12.029 4.31243 11.4353 3.86082 11.1794C3.73858 11.1111 3.61294 11.0429 3.4873 10.9815C3.2632 10.8689 2.99155 10.8962 2.79121 11.0463L2.78442 11.0531C2.61464 11.1794 2.39732 11.2135 2.20038 11.1453L1.40581 10.8723C1.13416 10.7802 0.835352 10.8962 0.699529 11.1487L0.0713456 12.302C-0.0644778 12.5545 -0.00335728 12.8719 0.220751 13.0493L0.882891 13.5816C1.04588 13.7113 1.13077 13.9126 1.11719 14.1173C1.10021 14.3391 1.1036 14.5643 1.12398 14.7895C1.14435 14.9943 1.05946 15.1956 0.903264 15.3287L0.258103 15.8712C0.0339942 16.0589 -0.0203352 16.3796 0.125675 16.6322L0.770836 17.7582C0.916846 18.0107 1.22245 18.1233 1.4941 18.0209L2.28187 17.7309C2.47542 17.6592 2.68934 17.6899 2.85912 17.806C3.04248 17.9356 3.23603 18.0516 3.43297 18.1472C3.61973 18.2393 3.74876 18.4133 3.77932 18.6215L3.90496 19.4575C3.9491 19.7475 4.19019 19.9625 4.48221 19.9693L5.77932 20C6.06455 20.0069 6.31583 19.8055 6.37355 19.5223L6.53654 18.6931C6.57729 18.4884 6.71651 18.3144 6.90666 18.2291C7.14095 18.1267 7.30055 17.9015 7.31752 17.6422C7.32771 17.5057 7.33111 17.3658 7.33111 17.2259C7.34129 16.7004 6.92364 16.2739 6.39732 16.2363Z" fill="white"/>
<path d="M11.7555 12.459C11.7657 12.4829 11.7793 12.5068 11.7895 12.5307C11.7929 12.5307 11.7929 12.5341 11.7963 12.5341C12.8014 13.1176 13.1477 14.4108 12.5671 15.4242C11.9864 16.4343 10.6995 16.7823 9.69101 16.1988C9.68762 16.1988 9.68762 16.1954 9.68422 16.1954C9.65706 16.1988 9.63329 16.1988 9.60612 16.2022C9.08999 16.2363 8.66215 16.6765 8.66555 17.1952C8.66555 17.3351 8.67234 17.4784 8.68253 17.6183C8.6995 17.8708 8.8557 18.0926 9.0866 18.1916L9.09339 18.195C9.28354 18.2803 9.42276 18.4509 9.46351 18.659L9.6265 19.4882C9.68083 19.7714 9.9321 19.9728 10.2207 19.9659L11.5246 19.9352C11.8099 19.9284 12.0509 19.7168 12.0951 19.4302L12.2207 18.5908C12.2513 18.3861 12.3803 18.2086 12.5671 18.1165C12.7674 18.0175 12.961 17.9049 13.1409 17.7753C13.3073 17.6558 13.5246 17.6285 13.7182 17.7002L14.5059 17.9902C14.7776 18.0892 15.0832 17.98 15.2292 17.7275L15.8744 16.6015C16.0204 16.349 15.9627 16.0282 15.7419 15.8405L15.0968 15.298C14.9406 15.1649 14.8557 14.9636 14.8761 14.7588C14.8964 14.5336 14.8998 14.3084 14.8829 14.0866C14.8693 13.8785 14.9576 13.6806 15.1172 13.5509L15.7725 13.0254C16 12.8446 16.0645 12.5238 15.9253 12.2679L15.3039 11.1214C15.1681 10.8689 14.8693 10.7529 14.5976 10.845L13.8031 11.118C13.6061 11.1862 13.3854 11.1521 13.219 11.0259C13.0119 10.8723 12.7402 10.8484 12.5093 10.961C12.3871 11.0224 12.2649 11.0873 12.1426 11.1555C11.6842 11.408 11.5212 11.9847 11.7555 12.459Z" fill="white"/>
<path d="M7.00848 10.2547C7.43632 9.50739 8.51272 9.50739 8.94057 10.2547L9.76909 11.6981L10.5976 13.1414C11.0255 13.8887 10.489 14.8237 9.62987 14.8237H7.97283H6.31578C5.4567 14.8237 4.92019 13.8887 5.34804 13.1414L6.17656 11.6981L7.00848 10.2547Z" fill="white"/>
</g>
<defs>
<clipPath id="clip0">
<rect width="16" height="16" fill="white" transform="translate(0 4)"/>
</clipPath>
</defs>
</svg>
