<svg width="24" height="24" viewBox="0 0 24 24" fill="none" xmlns="http://www.w3.org/2000/svg">
<path d="M23 13H1C0.448 13 0 12.553 0 12C0 11.447 0.448 11 1 11H23C23.552 11 24 11.447 24 12C24 12.553 23.552 13 23 13Z" fill="white"/>
<path d="M23 6H12C11.448 6 11 5.553 11 5C11 4.447 11.448 4 12 4H23C23.552 4 24 4.447 24 5C24 5.553 23.552 6 23 6Z" fill="white"/>
<path d="M12 20H1C0.448 20 0 19.553 0 19C0 18.447 0.448 18 1 18H12C12.552 18 13 18.447 13 19C13 19.553 12.552 20 12 20Z" fill="white"/>
</svg>
