<svg width="24" height="24" viewBox="0 0 24 24" fill="none" xmlns="http://www.w3.org/2000/svg">
<path d="M22.8 3.6C23.4627 2.93726 23.4627 1.86274 22.8 1.2C22.1373 0.537258 21.0627 0.537258 20.4 1.2L12 9.6L3.6 1.2C2.93726 0.537258 1.86274 0.537258 1.2 1.2C0.537258 1.86274 0.537258 2.93726 1.2 3.6L9.6 12L1.2 20.4C0.537259 21.0627 0.537258 22.1373 1.2 22.8C1.86274 23.4627 2.93726 23.4627 3.6 22.8L12 14.4L20.4 22.8C21.0627 23.4627 22.1373 23.4627 22.8 22.8C23.4627 22.1373 23.4627 21.0627 22.8 20.4L14.4 12L22.8 3.6Z" fill="white"/>
</svg>
