<svg width="24" height="24" viewBox="0 0 24 24" fill="none" xmlns="http://www.w3.org/2000/svg">
<path d="M19.071 20.4853L3.51469 4.92894C3.12437 4.53861 3.12366 3.90575 3.51469 3.51472C3.90573 3.12369 4.53859 3.1244 4.92891 3.51472L20.4853 19.0711C20.8756 19.4614 20.8763 20.0943 20.4853 20.4853C20.0942 20.8763 19.4614 20.8756 19.071 20.4853Z" fill="white"/>
<path d="M20.4852 4.92908L4.92882 20.4854C4.53849 20.8757 3.90563 20.8765 3.5146 20.4854C3.12357 20.0944 3.12428 19.4615 3.5146 19.0712L19.0709 3.51486C19.4613 3.12454 20.0941 3.12383 20.4852 3.51486C20.8762 3.90589 20.8755 4.53875 20.4852 4.92908Z" fill="white"/>
</svg>
