<svg width="32" height="32" viewBox="0 0 32 32" fill="none" xmlns="http://www.w3.org/2000/svg">
<g clip-path="url(#clip0)">
<path d="M32 16C31.9995 12.9424 31.123 9.949 29.4741 7.37413C27.8252 4.79925 25.4731 2.75074 22.6962 1.47112C19.9192 0.191492 16.8338 -0.265664 13.8051 0.153772C10.7765 0.573208 7.93139 1.85167 5.60674 3.83781C3.28208 5.82394 1.57519 8.43458 0.688139 11.3606C-0.198914 14.2867 -0.228981 17.4057 0.601496 20.3483C1.43197 23.291 3.08822 25.934 5.37415 27.9646C7.66009 29.9952 10.48 31.3282 13.5 31.806V20.625H9.438V16H13.5V12.475C13.5 8.46499 15.889 6.24999 19.543 6.24999C20.743 6.26663 21.9402 6.37091 23.125 6.56199V10.5H21.107C20.7631 10.4543 20.4134 10.4866 20.0837 10.5945C19.754 10.7024 19.4528 10.883 19.2024 11.1232C18.952 11.3633 18.7589 11.6566 18.6373 11.9815C18.5157 12.3064 18.4688 12.6545 18.5 13V16H22.938L22.228 20.625H18.5V31.806C22.2638 31.2106 25.6915 29.2914 28.1663 26.3939C30.6412 23.4963 32.0006 19.8106 32 16Z" fill="#4E4F7F"/>
</g>
<defs>
<clipPath id="clip0">
<rect width="32" height="32" fill="white"/>
</clipPath>
</defs>
</svg>
