<svg width="32" height="32" viewBox="0 0 32 32" fill="none" xmlns="http://www.w3.org/2000/svg">
<g clip-path="url(#clip0)">
<path d="M32 16.0001C31.9995 12.9425 31.123 9.94906 29.4741 7.37419C27.8252 4.79931 25.4731 2.7508 22.6962 1.47118C19.9192 0.191553 16.8338 -0.265602 13.8051 0.153833C10.7765 0.573269 7.93139 1.85173 5.60674 3.83787C3.28208 5.824 1.57519 8.43464 0.688139 11.3607C-0.198914 14.2868 -0.228981 17.4058 0.601496 20.3484C1.43197 23.291 3.08822 25.9341 5.37415 27.9647C7.66009 29.9952 10.48 31.3283 13.5 31.8061V20.6251H9.438V16.0001H13.5V12.4751C13.5 8.46505 15.889 6.25005 19.543 6.25005C20.743 6.2667 21.9402 6.37097 23.125 6.56205V10.5001H21.107C20.7631 10.4544 20.4134 10.4867 20.0837 10.5946C19.754 10.7024 19.4528 10.8831 19.2024 11.1232C18.952 11.3633 18.7589 11.6567 18.6373 11.9816C18.5157 12.3065 18.4688 12.6546 18.5 13.0001V16.0001H22.938L22.228 20.6251H18.5V31.8061C22.2638 31.2106 25.6915 29.2915 28.1663 26.3939C30.6412 23.4964 32.0006 19.8106 32 16.0001Z" fill="#5D5FEF"/>
</g>
<defs>
<clipPath id="clip0">
<rect width="32" height="32" fill="white"/>
</clipPath>
</defs>
</svg>
