<svg width="32" height="32" viewBox="0 0 32 32" fill="none" xmlns="http://www.w3.org/2000/svg">
<path fill-rule="evenodd" clip-rule="evenodd" d="M20.4264 31.3798C27.1099 29.4598 32 23.3009 32 16C32 7.16344 24.8366 0 16 0C7.16344 0 0 7.16344 0 16C0 23.6769 5.40658 30.0909 12.6198 31.6423C12.9707 31.5176 13.0994 31.1552 13.0994 30.8635V28.1889C9.08316 29.125 8.23124 26.0492 8.23124 26.0492C7.62272 24.177 6.64909 23.642 6.64909 23.642C5.18864 22.7059 6.64909 22.7059 6.64909 22.7059C8.10953 22.8396 8.83976 24.3107 8.83976 24.3107C10.1785 26.7178 12.2475 26.0492 13.0994 25.648C13.2211 24.5781 13.5862 23.9095 14.073 23.5083C10.787 23.1071 7.37931 21.7698 7.37931 15.6182C7.37931 13.8797 7.98783 12.4087 8.83976 11.3388C8.83976 11.2237 8.81159 11.0591 8.77586 10.8503C8.64551 10.0886 8.41453 8.73877 9.08316 7.05944C9.08316 7.05944 10.3002 6.65824 13.0994 8.6642C14.3164 8.26301 15.5335 8.12928 16.7505 8.12928C17.9675 8.12928 19.1846 8.26301 20.4016 8.6642C23.2008 6.52451 24.4178 7.05944 24.4178 7.05944C25.2201 9.20033 24.7272 10.7483 24.5654 11.2565C24.5554 11.2879 24.5466 11.3154 24.5396 11.3388C25.5132 12.4087 26 13.8797 26 15.6182C26 21.7698 22.5923 23.1071 19.3063 23.5083C19.7931 24.0432 20.2799 24.9793 20.2799 26.4504V30.8635C20.2799 31.0318 20.3228 31.2237 20.4264 31.3798Z" fill="#5D5FEF"/>
</svg>
