<svg width="128" height="31" viewBox="0 0 128 31" fill="none" xmlns="http://www.w3.org/2000/svg">
<path d="M16.1776 30.9843C12.5826 31.1489 8.98601 29.9371 6.1236 27.7846C5.46541 27.2811 4.82177 26.7486 4.25414 26.1419C3.15122 24.956 2.19708 23.6264 1.49037 22.1677C-0.104171 18.9228 -0.404967 15.1051 0.52653 11.6246C0.816006 10.5016 1.31086 9.44305 1.83483 8.41197C3.01537 6.14167 4.6746 4.08275 6.79796 2.62408C8.99733 1.08957 11.6414 0.234375 14.313 0.0552686C15.5663 -0.0592952 16.831 0.0149293 18.073 0.20049C18.5484 0.287623 19.0174 0.405414 19.4864 0.518365C19.5527 0.5345 19.619 0.553863 19.6837 0.573226C19.9343 0.645837 20.1899 0.700699 20.434 0.795899C20.468 0.803967 20.5375 0.818489 20.5715 0.826557L20.6233 0.850761C20.9257 0.944348 21.2168 1.06375 21.5095 1.18154C21.5952 1.21382 21.6809 1.24931 21.765 1.2832C23.1089 1.8657 24.3719 2.63537 25.5007 3.56802C26.657 4.52326 27.7372 5.59306 28.5652 6.84842C29.0973 7.63262 29.5161 8.4862 29.8752 9.35914C30.011 9.73994 30.163 10.1159 30.2503 10.5112C30.4121 11.2438 30.5689 11.9812 30.6029 12.7315C30.6336 13.3527 30.5285 13.9675 30.4363 14.5791C30.1485 16.3879 29.5453 18.1564 28.5895 19.7247C27.3087 21.8563 25.3648 23.5457 23.1542 24.6687C21.2928 25.6046 19.2616 26.2275 17.1835 26.4308C17.1819 27.2779 17.2401 28.1234 17.2191 28.9705C15.1556 28.5026 13.2812 27.4086 11.6964 26.0306C10.2312 24.7462 8.96661 23.2359 7.94293 21.5787C7.88633 21.4739 7.79253 21.3561 7.86531 21.2334C8.80812 19.1422 10.49 17.4431 12.4452 16.2669C13.9071 15.3939 15.5033 14.7275 17.1738 14.3757C17.177 15.3003 17.1625 16.2233 17.1803 17.1463C19.0303 16.8494 20.84 16.1959 22.3892 15.1293C24.1843 13.9062 25.6236 12.1571 26.4435 10.1466C26.5033 9.98521 26.602 9.78674 26.4758 9.62861C25.056 7.4648 23.332 5.4559 21.1941 3.9698C19.9537 3.12752 18.5711 2.43206 17.0735 2.21423C17.0396 2.83707 17.025 3.46152 17.0186 4.08598C17.0137 4.38288 17.0363 4.683 16.9846 4.97829C16.6094 5.02992 16.2261 4.98151 15.8493 5.02024C14.0203 5.16546 12.2818 5.8948 10.752 6.8823C8.96822 8.04892 7.41573 9.54954 6.14301 11.2535C4.70371 13.1381 3.73987 15.4326 3.67357 17.8191C3.59109 19.9571 4.16843 22.1015 5.24062 23.9491C6.34677 25.7837 7.9591 27.2747 9.77035 28.4026C11.4377 29.4385 13.2715 30.1985 15.1653 30.7116C15.5033 30.8068 15.8526 30.8503 16.1776 30.9843Z" fill="#3A434E"/>
<path d="M39.194 21.559L35.7478 9.54272H38.5294L40.5233 17.8914H40.6236L42.823 9.54272H45.2051L47.398 17.9091H47.5031L49.4971 9.54272H52.2786L48.8324 21.559H46.3517L44.0585 13.7025H43.9647L41.678 21.559H39.194Z" fill="#3A434E"/>
<path d="M56.0934 16.3488V21.559H53.5884V9.54272H56.0222V14.1366H56.1274C56.3311 13.6041 56.661 13.1878 57.1154 12.8844C57.5699 12.5811 58.1407 12.4294 58.8264 12.4294C59.4539 12.4294 60.0021 12.565 60.4695 12.8376C60.9385 13.1103 61.3023 13.4992 61.5627 14.0059C61.8231 14.5125 61.9524 15.1176 61.9476 15.8211V21.559H59.4426V16.2665C59.4458 15.7114 59.3067 15.279 59.0221 14.9692C58.7375 14.661 58.3413 14.5061 57.8319 14.5061C57.4906 14.5061 57.1898 14.5787 56.9295 14.7239C56.6691 14.8691 56.4653 15.0789 56.3182 15.3548C56.1726 15.6307 56.0966 15.9615 56.0934 16.3488Z" fill="#3A434E"/>
<path d="M65.1887 11.3856C64.8168 11.3856 64.4966 11.2613 64.2298 11.0128C63.9629 10.7643 63.8303 10.4658 63.8303 10.1173C63.8303 9.77359 63.9629 9.47669 64.2298 9.2282C64.4966 8.97971 64.8136 8.85547 65.1823 8.85547C65.5591 8.85547 65.8793 8.97971 66.1429 9.2282C66.4081 9.47669 66.5391 9.77359 66.5391 10.1173C66.5391 10.4658 66.4065 10.7643 66.1429 11.0128C65.8809 11.2613 65.5623 11.3856 65.1887 11.3856ZM63.9257 21.5591V12.5473H66.4307V21.5591H63.9257Z" fill="#3A434E"/>
<path d="M73.2325 12.5474V14.4256H67.7939V12.5474H73.2325ZM69.0295 10.3884H71.5345V18.7903C71.5345 19.0211 71.5701 19.2002 71.6396 19.3276C71.7108 19.4551 71.8094 19.5439 71.9372 19.5939C72.0649 19.6455 72.2121 19.6697 72.3819 19.6697C72.4999 19.6697 72.6164 19.6584 72.7344 19.6374C72.8525 19.6165 72.9414 19.5987 73.0045 19.5874L73.3991 21.4479C73.273 21.4866 73.0967 21.5334 72.8703 21.585C72.6439 21.6367 72.3673 21.6705 72.0407 21.6818C71.4375 21.706 70.9086 21.6254 70.4558 21.4414C70.003 21.2575 69.6505 20.9719 69.3998 20.5846C69.1491 20.1974 69.0262 19.7084 69.0295 19.1179V10.3884Z" fill="#3A434E"/>
<path d="M78.8828 21.7349C77.9529 21.7349 77.1557 21.5461 76.4862 21.1686C75.8183 20.791 75.304 20.2553 74.9434 19.5614C74.5827 18.8676 74.4016 18.0447 74.4016 17.0943C74.4016 16.1665 74.5811 15.3532 74.9434 14.6529C75.304 13.9527 75.8134 13.4073 76.47 13.0168C77.1266 12.6263 77.898 12.4294 78.7842 12.4294C79.3793 12.4294 79.9356 12.5246 80.4515 12.7134C80.9674 12.9038 81.4186 13.1878 81.8035 13.567C82.19 13.9462 82.4908 14.4222 82.7058 14.995C82.9209 15.5678 83.0293 16.2375 83.0293 17.0039V17.6897H75.4026V16.1407H80.6714C80.6714 15.7808 80.5938 15.4614 80.4369 15.1838C80.2801 14.9063 80.0634 14.6884 79.7868 14.5303C79.5103 14.3722 79.1901 14.2931 78.8262 14.2931C78.4462 14.2931 78.1098 14.3803 77.8171 14.5545C77.5244 14.7288 77.2964 14.9611 77.1314 15.2532C76.9665 15.5453 76.8824 15.868 76.8791 16.2246V17.6978C76.8791 18.1431 76.9616 18.5288 77.1298 18.8531C77.2964 19.1774 77.5325 19.4275 77.8381 19.6034C78.1438 19.7793 78.506 19.868 78.9265 19.868C79.2046 19.868 79.4602 19.8293 79.6914 19.7502C79.9227 19.6728 80.12 19.555 80.2849 19.3985C80.4499 19.242 80.5744 19.0499 80.6617 18.824L82.9791 18.9773C82.8611 19.5324 82.6217 20.0165 82.2595 20.4295C81.8972 20.8426 81.4299 21.1637 80.8606 21.3912C80.2914 21.6188 79.6283 21.7349 78.8828 21.7349Z" fill="#3A434E"/>
<path d="M91.243 12.9992C91.1961 12.5265 90.9939 12.1586 90.6365 11.8956C90.2791 11.6342 89.7956 11.5018 89.1843 11.5018C88.7687 11.5018 88.4178 11.5599 88.1315 11.6745C87.8453 11.7907 87.627 11.9488 87.4766 12.1521C87.3262 12.3554 87.2502 12.5862 87.2502 12.8443C87.2421 13.0589 87.289 13.2477 87.3876 13.4075C87.4879 13.5672 87.6253 13.706 87.8016 13.8205C87.9779 13.9367 88.1817 14.0352 88.4129 14.1191C88.6442 14.203 88.8916 14.274 89.1536 14.3337L90.2355 14.5918C90.7611 14.7096 91.243 14.8661 91.6812 15.0614C92.1195 15.2566 92.5011 15.4971 92.8213 15.7827C93.1432 16.0683 93.3922 16.4039 93.5717 16.7911C93.7512 17.1784 93.8418 17.6221 93.845 18.1223C93.8418 18.8581 93.6542 19.4939 93.2839 20.0312C92.9135 20.5685 92.3799 20.9864 91.6845 21.2801C90.9891 21.5754 90.1514 21.7238 89.1714 21.7238C88.1994 21.7238 87.3537 21.5754 86.634 21.2785C85.9144 20.9816 85.3548 20.5395 84.9521 19.9554C84.5511 19.3712 84.3392 18.6468 84.3198 17.7819H86.7828C86.8103 18.1853 86.9267 18.5209 87.1321 18.7887C87.3375 19.0566 87.614 19.2583 87.9617 19.3938C88.3094 19.5294 88.7024 19.5955 89.1406 19.5955C89.5724 19.5955 89.9476 19.5326 90.2662 19.4084C90.5864 19.2825 90.8338 19.1098 91.0101 18.8856C91.1864 18.6629 91.2753 18.4063 91.2753 18.1175C91.2753 17.848 91.1961 17.6205 91.0376 17.4366C90.8791 17.2526 90.6479 17.0961 90.3438 16.967C90.0398 16.8379 89.6678 16.7201 89.2296 16.6153L87.9181 16.2861C86.9025 16.0392 86.1003 15.6552 85.5133 15.1308C84.9247 14.6064 84.6336 13.9012 84.6368 13.0121C84.6336 12.2844 84.8276 11.6487 85.2222 11.1049C85.6168 10.5611 86.1586 10.1368 86.8475 9.83179C87.538 9.52682 88.3207 9.37354 89.1989 9.37354C90.0932 9.37354 90.8743 9.52682 91.5422 9.83179C92.21 10.1368 92.7308 10.5611 93.1027 11.1049C93.4747 11.6487 93.6671 12.278 93.6785 12.9944H91.243V12.9992Z" fill="#C9A02F"/>
<path d="M97.288 21.5592L94.8298 12.5474H97.364L98.7628 18.6015H98.8453L100.304 12.5474H102.791L104.273 18.5676H104.349L105.725 12.5474H108.252L105.801 21.5592H103.149L101.596 15.8923H101.485L99.932 21.5592H97.288Z" fill="#C9A02F"/>
<path d="M112.158 21.7284C111.582 21.7284 111.068 21.6284 110.617 21.4267C110.166 21.225 109.81 20.9265 109.55 20.5295C109.289 20.1326 109.158 19.6372 109.158 19.0418C109.158 18.5416 109.25 18.1205 109.435 17.78C109.619 17.4395 109.87 17.1652 110.187 16.9587C110.504 16.7522 110.866 16.5956 111.272 16.4891C111.678 16.3826 112.105 16.31 112.551 16.2665C113.077 16.2116 113.5 16.16 113.821 16.1116C114.142 16.0632 114.375 15.9889 114.521 15.8921C114.666 15.7937 114.739 15.6501 114.739 15.4581V15.4226C114.739 15.0514 114.623 14.7642 114.39 14.5609C114.157 14.3576 113.827 14.256 113.398 14.256C112.947 14.256 112.588 14.3544 112.323 14.5529C112.056 14.7497 111.88 14.9982 111.794 15.2951L109.477 15.1079C109.595 14.5609 109.826 14.0865 110.171 13.6848C110.515 13.2846 110.961 12.9748 111.508 12.7586C112.055 12.5407 112.689 12.4326 113.41 12.4326C113.911 12.4326 114.393 12.4907 114.854 12.6085C115.315 12.7263 115.724 12.907 116.083 13.1539C116.442 13.4008 116.725 13.7154 116.932 14.1011C117.139 14.4867 117.244 14.9466 117.244 15.4823V21.5606H114.868V20.3117H114.797C114.652 20.5941 114.458 20.841 114.215 21.0539C113.973 21.2669 113.68 21.4331 113.339 21.5525C112.999 21.6687 112.606 21.7284 112.158 21.7284ZM112.876 20.0035C113.245 20.0035 113.57 19.9309 113.853 19.7841C114.136 19.6372 114.356 19.4388 114.518 19.1887C114.678 18.9386 114.758 18.6546 114.758 18.3383V17.3815C114.679 17.4315 114.573 17.4783 114.438 17.5186C114.302 17.5589 114.15 17.5961 113.982 17.6299C113.814 17.6638 113.646 17.6929 113.476 17.7187C113.308 17.7445 113.154 17.7671 113.017 17.7865C112.722 17.83 112.465 17.8978 112.247 17.9914C112.027 18.085 111.857 18.2108 111.736 18.3706C111.615 18.5287 111.553 18.7256 111.553 18.9595C111.553 19.3 111.678 19.5582 111.927 19.7373C112.176 19.9148 112.491 20.0035 112.876 20.0035Z" fill="#C9A02F"/>
<path d="M119.191 24.9379V12.5472H121.661V14.0608H121.772C121.882 13.8187 122.042 13.5702 122.251 13.3185C122.461 13.0668 122.734 12.8554 123.074 12.6844C123.414 12.515 123.836 12.4294 124.342 12.4294C125 12.4294 125.608 12.6005 126.164 12.9426C126.721 13.2846 127.165 13.7994 127.499 14.4851C127.832 15.1709 127.998 16.0309 127.998 17.0636C127.998 18.0689 127.837 18.916 127.513 19.6066C127.19 20.2972 126.751 20.8184 126.197 21.1734C125.642 21.5268 125.021 21.7043 124.335 21.7043C123.849 21.7043 123.436 21.6236 123.098 21.4638C122.76 21.3041 122.482 21.1008 122.265 20.8571C122.05 20.6135 121.885 20.365 121.772 20.1149H121.696V24.9379H119.191ZM121.643 17.0523C121.643 17.588 121.717 18.056 121.866 18.4545C122.015 18.8531 122.23 19.1629 122.513 19.3839C122.796 19.605 123.139 19.7147 123.541 19.7147C123.949 19.7147 124.293 19.6018 124.576 19.3775C124.859 19.1532 125.073 18.8402 125.22 18.4384C125.367 18.0382 125.44 17.5751 125.44 17.0507C125.44 16.5311 125.367 16.0729 125.222 15.6776C125.076 15.2822 124.863 14.9741 124.581 14.7498C124.298 14.5271 123.952 14.4158 123.54 14.4158C123.132 14.4158 122.788 14.5239 122.508 14.7385C122.228 14.9531 122.013 15.258 121.864 15.6534C121.717 16.0519 121.643 16.5166 121.643 17.0523Z" fill="#C9A02F"/>
</svg>
