<svg width="31" height="31" viewBox="0 0 31 31" fill="none" xmlns="http://www.w3.org/2000/svg">
<path d="M16.1776 30.9843C12.5826 31.1489 8.98601 29.9371 6.1236 27.7846C5.46541 27.2811 4.82177 26.7486 4.25414 26.1419C3.15122 24.956 2.19708 23.6264 1.49037 22.1677C-0.104171 18.9228 -0.404967 15.1051 0.52653 11.6246C0.816006 10.5016 1.31086 9.44305 1.83483 8.41197C3.01537 6.14167 4.6746 4.08275 6.79796 2.62408C8.99733 1.08957 11.6414 0.234375 14.313 0.0552686C15.5663 -0.0592952 16.831 0.0149293 18.073 0.20049C18.5484 0.287623 19.0174 0.405414 19.4864 0.518365C19.5527 0.5345 19.619 0.553863 19.6837 0.573226C19.9343 0.645837 20.1899 0.700699 20.434 0.795899C20.468 0.803967 20.5375 0.818489 20.5715 0.826557L20.6233 0.850761C20.9257 0.944348 21.2168 1.06375 21.5095 1.18154C21.5952 1.21382 21.6809 1.24931 21.765 1.2832C23.1089 1.8657 24.3719 2.63537 25.5007 3.56802C26.657 4.52326 27.7372 5.59306 28.5652 6.84842C29.0973 7.63262 29.5161 8.4862 29.8752 9.35914C30.011 9.73994 30.163 10.1159 30.2503 10.5112C30.4121 11.2438 30.5689 11.9812 30.6029 12.7315C30.6336 13.3527 30.5285 13.9675 30.4363 14.5791C30.1485 16.3879 29.5453 18.1564 28.5895 19.7247C27.3087 21.8563 25.3648 23.5457 23.1542 24.6687C21.2928 25.6046 19.2616 26.2275 17.1835 26.4308C17.1819 27.2779 17.2401 28.1234 17.2191 28.9705C15.1556 28.5026 13.2812 27.4086 11.6964 26.0306C10.2312 24.7462 8.96661 23.2359 7.94293 21.5787C7.88633 21.4739 7.79253 21.3561 7.86531 21.2334C8.80812 19.1422 10.49 17.4431 12.4452 16.2669C13.9071 15.3939 15.5033 14.7275 17.1738 14.3757C17.177 15.3003 17.1625 16.2233 17.1803 17.1463C19.0303 16.8494 20.84 16.1959 22.3892 15.1293C24.1843 13.9062 25.6236 12.1571 26.4435 10.1466C26.5033 9.98521 26.602 9.78674 26.4758 9.62861C25.056 7.4648 23.332 5.4559 21.1941 3.9698C19.9537 3.12752 18.5711 2.43206 17.0735 2.21423C17.0396 2.83707 17.025 3.46152 17.0186 4.08598C17.0137 4.38288 17.0363 4.683 16.9846 4.97829C16.6094 5.02992 16.2261 4.98151 15.8493 5.02024C14.0203 5.16546 12.2818 5.8948 10.752 6.8823C8.96822 8.04892 7.41573 9.54954 6.14301 11.2535C4.70371 13.1381 3.73987 15.4326 3.67357 17.8191C3.59109 19.9571 4.16843 22.1015 5.24062 23.9491C6.34677 25.7837 7.9591 27.2747 9.77035 28.4026C11.4377 29.4385 13.2715 30.1985 15.1653 30.7116C15.5033 30.8068 15.8526 30.8503 16.1776 30.9843Z" fill="#3A434E"/>
</svg>
