<svg width="44" height="50" viewBox="0 0 44 50" fill="none" xmlns="http://www.w3.org/2000/svg">
<path d="M9.34573 42.5399V15.0342L12.569 16.6951V42.5588L9.34573 42.5399ZM20.3494 48.5194V21.232L23.5727 21.2889V48.5194H20.3494ZM0 37.5854V12.5759L3.24183 10.9909V36.8546L0 37.5854ZM21.3475 24.2407L0.398282 13.9522L4.16807 12.1868L22.7461 21.2604L21.3567 24.2407H21.3475ZM42.2387 15.4043L20.6736 3.01822L21.9611 0L43.8157 12.519L42.248 15.4043H42.2387ZM22.0722 50L0 37.6424L1.56534 34.7547L23.4755 47.0292L22.0722 50ZM2.5101 14.9203L0 12.5759L21.9611 0.0569476L23.494 3.01585L2.5101 14.9203ZM40.634 37.462V13.6674L43.8573 12.5285V37.4715L40.634 37.462ZM22.1695 37.6542L20.6875 34.7214L41.4862 23.6926L42.9681 26.6278L22.1695 37.6637V37.6542ZM21.4748 24.7176L20.0855 21.7374L41.3889 11.2472L42.7783 14.2274L21.4748 24.7176ZM22.0745 49.9905L20.6644 47.0174L41.7525 34.8519L43.8596 37.4051L22.0745 49.981V49.9905Z" fill="white"/>
</svg>
