<svg id="Layer_2" data-name="Layer 2" xmlns="http://www.w3.org/2000/svg" viewBox="0 0 350 350"><defs><style>.cls-1{fill:#f4f4f4;}.cls-1,.cls-2{fill-rule:evenodd;}.cls-2{fill:#fff;}</style></defs><path class="cls-1" d="M271,58.82c.61-.39,1.85,0,2.7.55a8.54,8.54,0,0,1,2.05,2.45c.74,1.08,1.74,2.41,2.24,3.08s.51.67.06.5a10,10,0,0,1-2.29-1.13c-.95-.64-2-1.59-2.87-2.1s-1.68-.57-2.08-1.18A1.73,1.73,0,0,1,271,58.82ZM323.6,200c.65.33,1,1.58.88,2.61a8.38,8.38,0,0,1-1.11,3c-.55,1.17-1.21,2.71-1.54,3.48s-.32.77-.4.3a10.73,10.73,0,0,1-.17-2.55c.09-1.14.4-2.5.39-3.54s-.35-1.74,0-2.4S323,199.71,323.6,200Zm-96,116.18c0,.73-.88,1.62-1.82,2.06a8.42,8.42,0,0,1-3.15.55c-1.3.1-3,.3-3.79.4s-.83.11-.47-.2a10.64,10.64,0,0,1,2.13-1.41c1-.51,2.37-.91,3.26-1.44s1.33-1.17,2.06-1.21S227.58,315.48,227.62,316.21ZM79,291.18c-.61.4-1.85,0-2.7-.55a8.62,8.62,0,0,1-2-2.46c-.73-1.07-1.74-2.4-2.24-3.07s-.5-.67-.06-.51a10.49,10.49,0,0,1,2.29,1.13c.95.64,2,1.6,2.87,2.1s1.69.57,2.09,1.19A1.73,1.73,0,0,1,79,291.18ZM26.4,150c-.65-.32-1-1.57-.88-2.61a8.4,8.4,0,0,1,1.11-3c.56-1.17,1.21-2.71,1.53-3.48s.34-.77.42-.3a10.82,10.82,0,0,1,.16,2.54c-.08,1.15-.4,2.51-.38,3.55s.34,1.74,0,2.39S27.05,150.29,26.4,150ZM177.54,36A41.53,41.53,0,0,0,167,36.9a13.45,13.45,0,0,0,1.36-5.46c1.71,0,4.05,0,5.09,0,1.73.05,3.4.14,5,.29A16.31,16.31,0,0,1,177.54,36Zm11.78,2.57a33.25,33.25,0,0,0-8.3-2.25,17.39,17.39,0,0,0,1.36-4.09,56.6,56.6,0,0,1,9.11,2A16.17,16.17,0,0,1,189.32,38.54ZM199,44.9a31.32,31.32,0,0,0-6.61-4.9,16.85,16.85,0,0,0,2.91-4.39,35.5,35.5,0,0,1,8.14,4.73A15.4,15.4,0,0,1,199,44.9Zm6.36,8.89a31.3,31.3,0,0,0-4.16-6.51,17.78,17.78,0,0,0,5.35-4.1,28.2,28.2,0,0,1,5.2,7.63A15.58,15.58,0,0,1,205.31,53.79Zm3,11.07a31.52,31.52,0,0,0-1.76-8.15,16.77,16.77,0,0,0,6.72-1.89A38.55,38.55,0,0,1,214.81,64,15.21,15.21,0,0,1,208.28,64.86Zm-1.09,11.35a32.31,32.31,0,0,0,1.2-8.13,17.18,17.18,0,0,0,6.46.19,61.47,61.47,0,0,1-1,9.06A15.25,15.25,0,0,1,207.19,76.21ZM55.87,103.28a42,42,0,0,0-4.48,9.61,13.47,13.47,0,0,0-4-3.92c.84-1.48,2-3.49,2.57-4.39.91-1.47,1.82-2.87,2.75-4.19A15.55,15.55,0,0,1,55.87,103.28ZM64,94.37a33.54,33.54,0,0,0-6.1,6A17.24,17.24,0,0,0,55,97.21a57.42,57.42,0,0,1,6.31-6.87A15.56,15.56,0,0,1,64,94.37Zm10.33-5.16a31.1,31.1,0,0,0-7.56,3.28,16.53,16.53,0,0,0-2.34-4.72,35,35,0,0,1,8.17-4.68A15.5,15.5,0,0,1,74.31,89.21Zm10.87-1.06a31.13,31.13,0,0,0-7.71.35,17.92,17.92,0,0,0-.88-6.69,28.34,28.34,0,0,1,9.21-.69A15.47,15.47,0,0,1,85.18,88.15Zm11.07,3a31.37,31.37,0,0,0-7.93-2.55A17,17,0,0,0,90,81.8a38.1,38.1,0,0,1,8.7,3.2A15.36,15.36,0,0,1,96.25,91.11Zm9.3,6.61a32.69,32.69,0,0,0-6.45-5.09,17.5,17.5,0,0,0,3.4-5.5,61.65,61.65,0,0,1,7.32,5.43A15.3,15.3,0,0,1,105.55,97.72ZM53.32,242.31A41.63,41.63,0,0,0,59.4,251,13.51,13.51,0,0,0,54,252.54c-.85-1.47-2-3.51-2.51-4.43-.83-1.52-1.57-3-2.26-4.48A16.13,16.13,0,0,1,53.32,242.31Zm-3.65-11.48a33,33,0,0,0,2.18,8.31,17.33,17.33,0,0,0-4.2.87,55.21,55.21,0,0,1-2.8-8.9A15.71,15.71,0,0,1,49.67,230.83Zm.69-11.52a30.44,30.44,0,0,0-.94,8.18,17,17,0,0,0-5.26-.34,34.73,34.73,0,0,1,0-9.4A15.21,15.21,0,0,1,50.36,219.31Zm4.52-9.95a31.62,31.62,0,0,0-3.56,6.85,17.67,17.67,0,0,0-6.23-2.58,28.21,28.21,0,0,1,4-8.32A15.49,15.49,0,0,1,54.88,209.36Zm8.1-8.11a31.73,31.73,0,0,0-6.18,5.6,16.68,16.68,0,0,0-5-4.87,37.64,37.64,0,0,1,7.13-5.93A15.33,15.33,0,0,1,63,201.25Zm10.37-4.74a32.76,32.76,0,0,0-7.64,3,17.07,17.07,0,0,0-3.06-5.69A59.63,59.63,0,0,1,71,190.23,15.31,15.31,0,0,1,73.35,196.51ZM172.46,314A42,42,0,0,0,183,313.1a13.63,13.63,0,0,0-1.37,5.46c-1.7,0-4,0-5.08,0-1.73,0-3.4-.15-5-.29A16.31,16.31,0,0,1,172.46,314Zm-11.78-2.58a32.84,32.84,0,0,0,8.3,2.26,17.39,17.39,0,0,0-1.36,4.09,56.36,56.36,0,0,1-9.11-2A16.08,16.08,0,0,1,160.68,311.45Zm-9.62-6.36a30.86,30.86,0,0,0,6.61,4.91,16.75,16.75,0,0,0-2.92,4.38,35.12,35.12,0,0,1-8.14-4.72A15.47,15.47,0,0,1,151.06,305.09Zm-6.36-8.88a30.83,30.83,0,0,0,4.16,6.5,17.85,17.85,0,0,0-5.36,4.11,28.46,28.46,0,0,1-5.21-7.63A15.66,15.66,0,0,1,144.7,296.21Zm-3-11.07a31.93,31.93,0,0,0,1.75,8.15,16.77,16.77,0,0,0-6.72,1.89,38.55,38.55,0,0,1-1.57-9.13A15.27,15.27,0,0,1,141.73,285.14Zm1.08-11.35a32.75,32.75,0,0,0-1.19,8.13,17.24,17.24,0,0,0-6.47-.19,61.47,61.47,0,0,1,1-9.06A15.25,15.25,0,0,1,142.81,273.79Zm151.33-27.07a42.09,42.09,0,0,0,4.47-9.6,13.56,13.56,0,0,0,4,3.91c-.84,1.48-2,3.49-2.57,4.39q-1.36,2.21-2.75,4.19A15.5,15.5,0,0,1,294.14,246.72ZM286,255.63a33.54,33.54,0,0,0,6.1-6,17.24,17.24,0,0,0,2.86,3.21,57.42,57.42,0,0,1-6.31,6.87A15.82,15.82,0,0,1,286,255.63Zm-10.33,5.16a31.1,31.1,0,0,0,7.56-3.28,17,17,0,0,0,2.33,4.72,34.77,34.77,0,0,1-8.16,4.68A15.5,15.5,0,0,1,275.69,260.79Zm-10.87,1.06a31.13,31.13,0,0,0,7.71-.35,17.92,17.92,0,0,0,.88,6.69,28.34,28.34,0,0,1-9.21.69A15.47,15.47,0,0,1,264.82,261.85Zm-11.07-3a31.78,31.78,0,0,0,7.93,2.55A16.91,16.91,0,0,0,260,268.2a38.1,38.1,0,0,1-8.7-3.2A15.36,15.36,0,0,1,253.75,258.89Zm-9.29-6.62a32.68,32.68,0,0,0,6.44,5.1,17.5,17.5,0,0,0-3.4,5.5,61.65,61.65,0,0,1-7.32-5.43A15.46,15.46,0,0,1,244.46,252.27Zm52.22-144.58A42.4,42.4,0,0,0,290.6,99,13.51,13.51,0,0,0,296,97.46c.85,1.47,2,3.5,2.51,4.42.83,1.53,1.57,3,2.26,4.49A16.13,16.13,0,0,1,296.68,107.69Zm3.65,11.48a33,33,0,0,0-2.18-8.31,17.33,17.33,0,0,0,4.2-.87,55.21,55.21,0,0,1,2.8,8.9A15.71,15.71,0,0,1,300.33,119.17Zm-.69,11.52a30.44,30.44,0,0,0,.94-8.18,17,17,0,0,0,5.26.34,35.14,35.14,0,0,1,0,9.4A15.38,15.38,0,0,1,299.64,130.69Zm-4.52,9.95a31.46,31.46,0,0,0,3.56-6.86,17.69,17.69,0,0,0,6.23,2.59,28.21,28.21,0,0,1-4,8.32A15.49,15.49,0,0,1,295.12,140.64Zm-8.1,8.11a32.05,32.05,0,0,0,6.18-5.6,16.68,16.68,0,0,0,5,4.87,37.64,37.64,0,0,1-7.13,5.93A15.33,15.33,0,0,1,287,148.75Zm-10.37,4.73a32.74,32.74,0,0,0,7.64-3,17.07,17.07,0,0,0,3.06,5.69,60.44,60.44,0,0,1-8.37,3.63A15.43,15.43,0,0,1,276.65,153.48Zm32,1.94c-6.19,8.51-19.15,19.68-38,24.41,0,0,4.71-2.25,6.5-6.54h0a77.81,77.81,0,0,1-14.23,1.41c-7.39.08-16.71-1.1-25.1-1.57-20.35-1.46-41.44-2.23-56.41,11.94,0,.08,26.92-12.72,40.58,10.17l-.17-.1c6.09,10.2,8.85,22.78,13.36,40.19a37.88,37.88,0,0,0,7.21,14.57,17.77,17.77,0,0,0-5.35,4.62,106.48,106.48,0,0,1-14.27-17.39s16.38,35.79,43.25,35.3c23.58-.44,35.74-22.87,38.39-28.42.37-.77,2.69-5.39,2.7-5.4-12.74-12.88-9.74-34.27-.85-46.25,0,0-6.71,5.09-8.87,10.29s-.7,18-1.89,24l0,.07c-2.46,10.29-6.85,18.71-16.69,24.72-13.86,8.45-30.69-1.52-37.15-14.54,15.74,15.29,39.84,20.78,46.89-11.25,1.16-5.3,1.56-11.55,1.92-17.8a18,18,0,0,1,2.52-9.33c2.41-3.89,6.92-7.29,10.22-11.83a33.77,33.77,0,0,0,6-14.2c.53-4-.25-4.51-.77-5.68-.71-1.58,3.65-3.51,4.77-4.41-.63.65-.52,1.36-.56,2.15a18.14,18.14,0,0,0,.79,3,28,28,0,0,1,.3,4.44c.07,1.64.23,3.34.31,4.2s.08.85.27-.31a49.12,49.12,0,0,1,1.17-5.52c.58-2,1.37-3.77,1.9-5.56a32.45,32.45,0,0,0,.88-4.55c.13-.93.13-.93-.19-.61a8.57,8.57,0,0,1-1.68,1.4,6.21,6.21,0,0,1-2.3.72h0a13.36,13.36,0,0,0,3.14-4.35c.54-1.08.54-1.08,1.94-.48a18.67,18.67,0,0,1,6.14,3.88,12.23,12.23,0,0,1,3.2,8.2c0,3.14-1.05,6.45-1.62,10.35a85.35,85.35,0,0,0-.64,10.66c0,2.25,0,2.25.83,2.66a8.75,8.75,0,0,1,3.68,2.9c1.12,1.67,1.68,4.21.64,7.68s-3.66,7.83-5.33,12A24.64,24.64,0,0,0,324.13,228c.57,4.6,2.42,9.84,4.28,15.08a7.67,7.67,0,0,1-4.28-1.92,32,32,0,0,1-4.08-5.21c-.37-.55-.58-.86-.86-.93a55.74,55.74,0,0,1-7,19,53.09,53.09,0,0,1-13.67,15.7c-12.36,9.47-26.33,13.32-39.75,11.15h0c-10.47-1.1-26.63-6.74-40.15-20.71,0,0,4.31,3,8.91,2.35h0A78.07,78.07,0,0,1,219.2,251c-3.79-6.4-7.45-15.12-11.25-22.65-8.9-18.31-18.78-36.89-38.5-42.76,0,.09,24.48,17,11.5,40.23v-.2c-.92,1.65-1.93,3.25-3,4.83h0a.15.15,0,0,0,0,.06c-5.86,8.37-14.3,16.19-25.07,26.78a38,38,0,0,0-9,13.52,17.88,17.88,0,0,0-6.67-2.31,106.2,106.2,0,0,1,7.92-21.06s-22.81,32.08-8.94,55.1c12.17,20.21,37.68,19.53,43.8,19l6-.36c4.79-17.47,24.81-25.57,39.63-23.86,0,0-7.76-3.26-13.35-2.54s-16,8.42-21.74,10.37h0c-10.15,3-19.67,3.47-29.81-2.07-14.26-7.78-14-27.33-6-39.44-5.37,21.27,1.94,44.89,33.2,35,5.18-1.63,10.78-4.42,16.37-7.22a17.93,17.93,0,0,1,9.34-2.49c4.58.15,9.78,2.35,15.36,2.94a33.74,33.74,0,0,0,15.27-1.95c3.74-1.54,3.79-2.46,4.54-3.5,1-1.41,4.87,1.41,6.2,1.92-.87-.21-1.43.23-2.14.59s-1.23,1.32-2.18,2.18a29.61,29.61,0,0,1-3.7,2.48c-1.39.87-2.78,1.87-3.48,2.36s-.7.5.4.08a51,51,0,0,1,5.36-1.74c2.06-.51,4-.69,5.77-1.14a31.41,31.41,0,0,0,4.39-1.51c.86-.35.86-.35.43-.46a7.92,7.92,0,0,1-2.06-.77,6.2,6.2,0,0,1-1.77-1.61v0a13,13,0,0,0,5.33.55c1.21-.07,1.21-.07,1.38,1.43a18.55,18.55,0,0,1-.28,7.26,12.31,12.31,0,0,1-5.5,6.88c-2.7,1.61-6.11,2.31-9.78,3.77a82.94,82.94,0,0,0-9.55,4.78c-2,1.1-2,1.1-1.89,2a8.81,8.81,0,0,1-.67,4.64c-.89,1.82-2.81,3.56-6.33,4.4s-8.61.74-13.06,1.38a24.51,24.51,0,0,0-11.93,4.79c-3.71,2.79-7.32,7-10.92,11.24a7.59,7.59,0,0,1-.48-4.66,32.38,32.38,0,0,1,2.47-6.14c.29-.6.46-.93.38-1.21a55.82,55.82,0,0,1-20,3.44,52.8,52.8,0,0,1-20.43-4c-14.39-6-24.71-16.15-29.54-28.85v0c-4.28-9.61-7.47-26.42-2.13-45.12,0,0-.41,5.2,2.41,8.89h0a77.56,77.56,0,0,1,5.89-13c3.64-6.48,9.37-14,14-21.06,11.41-16.87,22.56-34.71,17.79-54.72-.1,0-2.45,29.67-29.1,30.06l.18-.1c-11.88.17-24.17-3.72-41.49-8.53a38,38,0,0,0-16.22-1,17.76,17.76,0,0,0-1.34-6.93,106.27,106.27,0,0,1,22.2-3.67s-39.18-3.71-52.19,19.8c-11.42,20.65,1.93,42.4,5.41,47.46.49.7,3.33,5,3.34,5C71.41,253,88.43,266.26,94.36,280c0,0-1-8.35-4.48-12.83S74.62,257.5,70,253.48h0c-7.71-7.28-12.83-15.31-13.11-26.86-.4-16.23,16.66-25.82,31.16-24.91-21.11,6-37.91,24.12-13.69,46.24,4,3.66,9.21,7.12,14.44,10.56a18.16,18.16,0,0,1,6.83,6.84c2.16,4,2.85,9.65,5.12,14.78a33.89,33.89,0,0,0,9.33,12.25c3.21,2.47,4,2.05,5.3,2.18,1.73.18,1.21,4.92,1.44,6.33-.24-.87-.92-1.13-1.59-1.55a16.74,16.74,0,0,0-3-.81,29.26,29.26,0,0,1-4-2c-1.45-.75-3-1.47-3.78-1.83s-.78-.35.13.39a51,51,0,0,1,4.19,3.77c1.47,1.53,2.58,3.09,3.87,4.43a30,30,0,0,0,3.5,3.05c.74.57.74.57.61.14a8.42,8.42,0,0,1-.36-2.17A6.07,6.07,0,0,1,117,302v0a13.14,13.14,0,0,0,2.19,4.89c.66,1,.66,1-.55,1.91a18.33,18.33,0,0,1-6.43,3.38,12.23,12.23,0,0,1-8.7-1.32c-2.75-1.53-5.07-4.14-8.17-6.58a83.39,83.39,0,0,0-8.9-5.89c-1.94-1.14-1.94-1.14-2.72-.61a8.73,8.73,0,0,1-4.35,1.74c-2,.14-4.49-.65-7-3.28s-4.95-7.09-7.73-10.62a24.65,24.65,0,0,0-10.12-7.95c-4.26-1.81-9.72-2.82-15.19-3.83a7.68,7.68,0,0,1,3.8-2.74,32.37,32.37,0,0,1,6.56-.93c.66-.05,1-.07,1.23-.28a55.89,55.89,0,0,1-13-15.6,52.88,52.88,0,0,1-6.76-19.69c-2-15.44,1.63-29.46,10.21-40h0c6.19-8.51,19.15-19.68,38-24.41,0,0-4.71,2.25-6.5,6.54h0a77.81,77.81,0,0,1,14.23-1.41c7.38-.08,16.69,1.1,25.07,1.57,20.36,1.46,41.46,2.23,56.44-11.94,0-.08-26.92,12.72-40.59-10.18l.18.11c-6.08-10.2-8.85-22.79-13.35-40.2a37.84,37.84,0,0,0-7.21-14.56A17.88,17.88,0,0,0,113,95.47a107.34,107.34,0,0,1,14.27,17.39S110.9,77.08,84,77.57C60.45,78,48.29,100.44,45.64,106c-.37.78-2.69,5.4-2.7,5.41,12.74,12.88,9.74,34.27.85,46.25,0,0,6.71-5.09,8.87-10.29s.7-18,1.89-24h0C57,113,61.4,104.56,71.27,98.54c13.85-8.45,30.67,1.52,37.15,14.54C92.68,97.79,68.57,92.3,61.53,124.33c-1.17,5.3-1.57,11.55-1.93,17.8a18,18,0,0,1-2.51,9.33c-2.42,3.89-6.93,7.29-10.23,11.82a33.7,33.7,0,0,0-6,14.21c-.53,4,.24,4.51.77,5.68.71,1.58-3.66,3.51-4.77,4.41a2.82,2.82,0,0,0,.55-2.15c0-.79-.52-1.73-.78-3a28.06,28.06,0,0,1-.3-4.45c-.07-1.63-.23-3.34-.31-4.19s-.08-.85-.27.31a49.59,49.59,0,0,1-1.17,5.52c-.59,2-1.38,3.77-1.9,5.56a29.8,29.8,0,0,0-.89,4.55c-.12.93-.12.93.19.61a8.07,8.07,0,0,1,1.69-1.4,6.27,6.27,0,0,1,2.29-.73h0a13.36,13.36,0,0,0-3.14,4.35c-.55,1.08-.55,1.08-1.93.48a18.57,18.57,0,0,1-6.14-3.88,12.19,12.19,0,0,1-3.21-8.2c-.05-3.14,1.06-6.45,1.62-10.36A85.57,85.57,0,0,0,23.88,160c0-2.24,0-2.24-.84-2.65a8.87,8.87,0,0,1-3.68-2.9c-1.13-1.68-1.68-4.22-.64-7.68s3.66-7.83,5.33-12A24.64,24.64,0,0,0,25.88,122c-.57-4.61-2.42-9.84-4.28-15.08a7.71,7.71,0,0,1,4.27,1.92A32,32,0,0,1,30,114.05c.37.55.58.86.86.93a55.49,55.49,0,0,1,7-19,52.69,52.69,0,0,1,13.67-15.7c12.35-9.47,26.32-13.32,39.73-11.16h0c10.47,1.1,26.63,6.74,40.15,20.71,0,0-4.31-3-8.91-2.35a77.55,77.55,0,0,1,8.33,11.61c3.76,6.35,7.39,15,11.16,22.47h0c8.92,18.37,18.8,37.05,38.58,42.94,0-.09-22.66-15.7-12.81-37.63,9.53-14.42,16-20.86,29.45-34.07a38.05,38.05,0,0,0,9-13.52,18,18,0,0,0,6.67,2.31A106.2,106.2,0,0,1,205,102.61s22.81-32.08,8.94-55.1c-12.17-20.21-37.68-19.53-43.8-19l-6,.36c-4.79,17.47-24.81,25.57-39.63,23.86,0,0,7.76,3.26,13.35,2.54s16-8.42,21.74-10.37c10.17-3,19.68-3.47,29.83,2.07,14.25,7.78,14,27.33,6,39.44,5.37-21.27-1.93-44.89-33.2-35C157,53,151.37,55.81,145.77,58.62a17.92,17.92,0,0,1-9.33,2.49c-4.59-.15-9.78-2.35-15.37-3a33.9,33.9,0,0,0-15.27,2c-3.74,1.54-3.79,2.46-4.54,3.5-1,1.4-4.86-1.42-6.2-1.93a2.79,2.79,0,0,0,2.14-.59c.7-.36,1.23-1.31,2.18-2.17a29.78,29.78,0,0,1,3.71-2.48c1.38-.87,2.78-1.87,3.47-2.37s.71-.5-.4-.08a47.74,47.74,0,0,1-5.36,1.75c-2,.51-4,.69-5.77,1.14a30.15,30.15,0,0,0-4.39,1.51c-.86.35-.86.35-.42.46a7.88,7.88,0,0,1,2,.77A6.09,6.09,0,0,1,94,61.25l0,0a13.28,13.28,0,0,0-5.33-.56c-1.21.07-1.21.07-1.39-1.43A18.73,18.73,0,0,1,87.63,52a12.23,12.23,0,0,1,5.5-6.88c2.69-1.61,6.11-2.32,9.78-3.77a87.46,87.46,0,0,0,9.55-4.77c2-1.11,2-1.11,1.88-2.06a8.86,8.86,0,0,1,.68-4.64c.88-1.81,2.81-3.55,6.32-4.39s8.61-.74,13.06-1.38a24.68,24.68,0,0,0,11.94-4.79c3.71-2.79,7.31-7,10.92-11.24a7.67,7.67,0,0,1,.47,4.66,31.36,31.36,0,0,1-2.47,6.14c-.29.6-.46.93-.38,1.21a55.88,55.88,0,0,1,20-3.44,52.79,52.79,0,0,1,20.42,4c14.39,6,24.71,16.14,29.54,28.83h0c4.28,9.61,7.47,26.42,2.13,45.12,0,0,.41-5.21-2.41-8.89h0a79.48,79.48,0,0,1-5.89,13c-3.62,6.42-9.29,13.89-13.88,20.9h0c-11.45,16.91-22.69,34.81-17.9,54.88.1,0,2.45-29.67,29.1-30.06l-.18.09a55.11,55.11,0,0,1,5.72.22h.05c10.18.89,21.18,4.28,35.73,8.31a37.68,37.68,0,0,0,16.21,1,17.77,17.77,0,0,0,1.34,6.94,106.27,106.27,0,0,1-22.2,3.67s39.18,3.71,52.19-19.8c11.42-20.65-1.93-42.4-5.41-47.46-.49-.7-3.33-5-3.34-5-17.52,4.59-34.54-8.7-40.47-22.39,0,0,1.05,8.35,4.48,12.83S275.38,92.5,280,96.52l.06.06c7.67,7.27,12.78,15.28,13.06,26.81.39,16.23-16.66,25.81-31.16,24.91,21.1-6,37.9-24.12,13.69-46.24-4-3.66-9.22-7.12-14.45-10.56a18.06,18.06,0,0,1-6.82-6.84c-2.16-4-2.85-9.65-5.14-14.78a33.57,33.57,0,0,0-9.32-12.25c-3.2-2.47-4-2.05-5.3-2.18-1.72-.18-1.2-4.92-1.43-6.33.24.86.91,1.13,1.57,1.55a17.4,17.4,0,0,0,3,.81,29.14,29.14,0,0,1,4,2c1.46.76,3,1.48,3.79,1.83s.78.36-.13-.38a51.32,51.32,0,0,1-4.2-3.78c-1.46-1.52-2.57-3.08-3.86-4.42a31.77,31.77,0,0,0-3.5-3c-.74-.58-.74-.58-.62-.14a8.41,8.41,0,0,1,.36,2.16A6.08,6.08,0,0,1,233,48v0a13.22,13.22,0,0,0-2.19-4.89c-.66-1-.66-1,.54-1.92a18.85,18.85,0,0,1,6.43-3.38,12.25,12.25,0,0,1,8.71,1.33c2.75,1.53,5.06,4.13,8.15,6.58a85.43,85.43,0,0,0,8.91,5.89c1.94,1.14,1.94,1.14,2.72.61a8.73,8.73,0,0,1,4.35-1.74c2-.14,4.49.65,7,3.28s4.95,7.08,7.73,10.62a24.8,24.8,0,0,0,10.12,8c4.27,1.81,9.73,2.82,15.19,3.83a7.61,7.61,0,0,1-3.8,2.73,32.35,32.35,0,0,1-6.55.94c-.66,0-1,.07-1.24.27a55.77,55.77,0,0,1,13,15.61,52.9,52.9,0,0,1,6.76,19.68c2,15.44-1.62,29.47-10.21,40ZM122.38,33.79c0-.73.89-1.62,1.82-2.07a8.69,8.69,0,0,1,3.16-.54c1.29-.1,3-.31,3.79-.4s.82-.11.45.19a9.86,9.86,0,0,1-2.12,1.42c-1,.5-2.36.91-3.26,1.44S124.89,35,124.16,35,122.42,34.52,122.38,33.79Z"/><path class="cls-2" d="M110.82,161c-7.89-18.34-.59-23.85-2.43-31.65a90.94,90.94,0,0,0-12,16.27,90,90,0,0,0-12,39.6c15.08-1.88,38.86,6.45,59.62,2.31-19.37-.85-44-7.6-48.71-7.07,7-1.8,25.57,1.65,31.58.68a17.29,17.29,0,0,0-.82-1.78,172.23,172.23,0,0,1-10-22.72c-1.91-5.47-3.49-11.07-5-16.68-3.16,6.51-1.12,17.3-.22,21M117,231.47c-19.86-2.35-21-11.42-28.67-13.72a90.94,90.94,0,0,0,36.47,48.67c5.91-14,25-30.37,31.81-50.38-10.42,16.32-28.59,34.24-30.49,38.57,1.94-7,14.22-21.29,16.39-27a16.57,16.57,0,0,0-2-.18,172.66,172.66,0,0,1-24.74-2.68c-5.69-1.08-11.34-2.51-17-4C102.88,226.75,113.27,230.37,117,231.47Zm64.18,29.91c-12,16-20.4,12.44-26.24,17.93a91.28,91.28,0,0,0,60.46-7.2c-9.17-12.1-13.84-36.82-27.8-52.69,8.95,17.17,15.41,41.84,18.21,45.65-5.06-5.15-11.35-22.94-15.19-27.65a18.17,18.17,0,0,0-1.14,1.6,171.54,171.54,0,0,1-14.69,20c-3.78,4.38-7.85,8.55-12,12.64C170,271.2,178.34,264,181.14,261.38Zm58-40.53c7.89,18.35.59,23.86,2.43,31.66a91.66,91.66,0,0,0,12-16.27,90.06,90.06,0,0,0,12-39.6c-15.08,1.88-38.86-6.45-59.62-2.31,19.37.84,44,7.59,48.71,7.07-7,1.8-25.57-1.65-31.58-.68a18.42,18.42,0,0,0,.82,1.78,173,173,0,0,1,10,22.72c1.91,5.47,3.49,11.06,5,16.67C242.12,235.39,240.07,224.6,239.18,220.85ZM233,150.42c19.86,2.34,21,11.42,28.67,13.72a90.94,90.94,0,0,0-36.47-48.67c-5.91,14-25,30.37-31.81,50.38,10.42-16.32,28.59-34.25,30.49-38.57-1.94,6.95-14.22,21.28-16.39,27a16.4,16.4,0,0,0,2,.18,174.09,174.09,0,0,1,24.74,2.67c5.69,1.09,11.34,2.52,17,4C247.12,155.14,236.73,151.51,233,150.42ZM67.19,184.12A107.52,107.52,0,0,1,90.3,123.89a33.25,33.25,0,0,1,5.06,2.38,102.17,102.17,0,0,0-22.57,55.78C70.92,182.67,69,183.36,67.19,184.12Zm48,96.79a108.48,108.48,0,0,1-40.63-50.12,33,33,0,0,1,4.59-3.2,102.87,102.87,0,0,0,37,47.42C115.79,277,115.45,278.92,115.19,280.91ZM223,287.73A107.6,107.6,0,0,1,175,299a108.74,108.74,0,0,1-15.72-1.14,33.14,33.14,0,0,1-.47-5.57,103.14,103.14,0,0,0,59.61-8.34C219.89,285.24,221.43,286.51,223,287.73Zm59.79-90A107.47,107.47,0,0,1,259.7,258a32.32,32.32,0,0,1-5.06-2.38,102.14,102.14,0,0,0,22.57-55.77C279.08,199.22,281,198.53,282.81,197.76Zm-48-96.78a108.48,108.48,0,0,1,40.63,50.12,33,33,0,0,1-4.59,3.2,102.83,102.83,0,0,0-23.31-35.9,104.53,104.53,0,0,0-13.73-11.53C234.21,104.94,234.55,103,234.81,101ZM175,82.92a108.63,108.63,0,0,1,15.72,1.14,33.14,33.14,0,0,1,.47,5.57A103.14,103.14,0,0,0,131.58,98q-2.21-2-4.6-3.82A107.59,107.59,0,0,1,175,82.92Zm-6.14,37.59c12-16,20.4-12.44,26.24-17.93a91.28,91.28,0,0,0-60.46,7.2c9.17,12.09,13.84,36.81,27.8,52.69-8.95-17.17-15.41-41.85-18.21-45.65,5.06,5.15,11.35,22.94,15.19,27.65.65-.83.9-1.24,1.14-1.6a171.65,171.65,0,0,1,14.69-20.06c3.78-4.37,7.85-8.54,12-12.63C180,110.69,171.66,117.86,168.86,120.51Z"/></svg>