<svg id="Layer_2" data-name="Layer 2" xmlns="http://www.w3.org/2000/svg" viewBox="0 0 181.79 420.27"><defs><style>.cls-1{fill:#026fc2;}</style></defs><path class="cls-1" d="M135.4,200.16c-12.87-16-28.15-28.16-46.92-42-14.92-11-32.72-21.66-36.65-39.77a12.35,12.35,0,0,1,.18-7.35c1-2.3,3.42-4.13,5.86-3.62a8.24,8.24,0,0,1,3.62,2.23A144.5,144.5,0,0,1,79.7,129.38c4.82,6.31,9.18,15.16,4.7,21.72a28.33,28.33,0,0,0,22.21-12.74l-5.28-.68c2.22-3.62,1-8.51-1.55-11.88s-6.33-5.61-9.81-8A89.24,89.24,0,0,1,69.82,98.35,152,152,0,0,1,96,114.44l.45,4.27,6.55,0a5.85,5.85,0,0,0,7.24,3.3,7.11,7.11,0,0,1-2.27,7.14c8.94,0,19.51-4.81,24.46-12.26a5,5,0,0,0,1.1-3.1c-.14-1.65-1.68-2.79-3.08-3.66-7.33-4.55-15.45-8.46-20.51-15.43-3.22-4.44-5-9.87-8.66-13.93-2.29-2.53-5.25-4.44-7.18-7.25a18.5,18.5,0,0,1-2.82-8.9,33.47,33.47,0,0,1,33.26-36.47C115.26,23,103,24.88,94.66,31.4S81.57,48.41,80.57,59a54.64,54.64,0,0,1-4.1-32.77,62.23,62.23,0,0,0-5.83,46.15,51.52,51.52,0,0,0-37.1,12.82l8.78-.51a38.88,38.88,0,0,0-20.6,31A8.22,8.22,0,0,1,30,110.2c-6.38,16.15-11.8,33.62.11,50.86,0,0-1.65-10.06,2.8-11.68.15,15.12.62,31.29,9.37,43.61A13.11,13.11,0,0,1,44,182.83a118.19,118.19,0,0,0,27.33,49.82,18.48,18.48,0,0,1-.46-10.57c8.18,5.6,13,15.16,14.83,24.89s1.21,19.74.52,29.63A16.84,16.84,0,0,1,94.92,269c3.24,10.55.14,21.8-5.4,31.36s-14.29,17-24,22.21c-3.11,1.66-6.36,3.14-9,5.43a19.25,19.25,0,0,0-6.63,15.75A79.08,79.08,0,0,1,77.14,335c-3,6.64-10.43,9.84-16,14.55C53.71,355.8,49.46,365,45.77,374q-4.27,10.44-7.93,21.13a22.57,22.57,0,0,1,4.2-3.24c7.36-4.41,15.55-7.22,23.43-10.63,21.58-9.33,41.35-23.62,55-42.76s20.77-43.37,17.22-66.61c-2.62-17.15-10.84-33.13-21.71-46.65s-24.33-24.75-38.44-34.86C70.23,185.09,62.62,180,57,173c-11.23-14.08-12.52-33.41-13-51.4,0,0,3.92,24.55,16,36.79,20.46,20.75,34.41,25.45,48.49,39,11.75,11.27,21.58,21.86,28.87,36.72,11.77,24,14.45,45,7.94,70.85-4.17,16.56-14.8,30.66-25.73,43.77,0,0,13.21-10.09,19.48-20.72,10.84-18.4,21.24-35,21-57.16C159.83,245.39,151.49,220.12,135.4,200.16Zm-48-116.78A34,34,0,0,1,94,85a7.16,7.16,0,0,1,2.79,1.77,8.39,8.39,0,0,1,1.13,1.8,38.91,38.91,0,0,1,2.9,8l.67.2-.49.53c0-.25-.13-.49-.18-.73a19.68,19.68,0,0,1-6.27-2.83,27.34,27.34,0,0,1-3.38-3.34,43.69,43.69,0,0,0-10.64-8.29Z"/></svg>