<svg width="45" height="50" viewBox="0 0 45 50" fill="none" xmlns="http://www.w3.org/2000/svg">
<path d="M5.57472 27.7823C5.82735 27.5166 6.03839 27.2181 6.214 26.8836C6.38961 26.5491 6.52825 26.1787 6.63916 25.777C6.86406 24.9752 6.98421 24.0655 7.14596 23.1152C7.3077 22.1649 7.5172 21.1599 7.91155 20.1846C8.10719 19.6985 8.3475 19.2233 8.62939 18.7748C8.91129 18.3262 9.2394 17.9089 9.5937 17.5244L9.61835 17.4978C9.86636 17.229 10.2391 17.1477 10.5626 17.2602C10.8384 17.3571 11.2204 17.3884 11.604 17.3571C11.9891 17.3259 12.385 17.2368 12.75 17.1008C13.1136 16.9648 13.4556 16.7741 13.6897 16.5569C13.8068 16.4506 13.893 16.3396 13.9408 16.2443C13.9901 16.1474 14.004 16.0755 14.0024 15.9895L14.2258 16.4881L0.126217 0.767511L0.813249 0.197019L8.22888 11.2849L8.2335 11.2912C8.29512 11.3834 8.27201 11.51 8.17959 11.5725C8.11027 11.6209 8.02246 11.6178 7.95623 11.5725L5.02941 9.58749L5.21888 9.39993L8.90975 15.802L4.98782 9.54372C4.94777 9.47964 4.96625 9.39524 5.02941 9.3546C5.07408 9.3249 5.12954 9.32647 5.17267 9.35304L5.17729 9.35616L8.17343 11.2318L7.90077 11.5209L0.0861661 0.719059C-0.0586344 0.517432 -0.0170427 0.23453 0.181673 0.087609C0.361903 -0.0468085 0.609913 -0.0233636 0.762415 0.136062L0.774739 0.148566L15.4396 15.3299C15.569 15.4643 15.643 15.6316 15.6615 15.8051L15.6645 15.8301C15.6846 16.027 15.6784 16.2302 15.6461 16.4256C15.6137 16.6225 15.5521 16.8085 15.4766 16.9789C15.3226 17.3212 15.1084 17.5947 14.882 17.8198C14.6556 18.0464 14.4137 18.2277 14.1657 18.3825C13.9177 18.5372 13.6635 18.6654 13.4047 18.7748C12.8871 18.9905 12.3511 19.1343 11.7904 19.2015C11.51 19.2343 11.2235 19.2484 10.9277 19.2343C10.632 19.2187 10.3254 19.1765 10.0081 19.0827L10.9755 18.8201C10.4271 19.4359 10.0081 20.1346 9.71848 20.9114C9.42426 21.6866 9.25943 22.5369 9.12695 23.4403C8.9914 24.3437 8.89281 25.3096 8.63556 26.3256C8.50616 26.832 8.33055 27.3509 8.08254 27.8542C7.83607 28.3559 7.51258 28.8389 7.1321 29.2578L7.12747 29.2625C6.7285 29.7001 6.05533 29.7282 5.62401 29.3234C5.19269 28.9186 5.16497 28.2356 5.56394 27.7979C5.56394 27.7964 5.57164 27.787 5.57472 27.7823Z" fill="black"/>
<path fill-rule="evenodd" clip-rule="evenodd" d="M4.30528 28.9736C4.68402 28.7076 5.05452 28.4475 5.36722 28.0695C5.36722 28.0695 7.3905 25.9907 8.01747 27.3724C6.84118 30.922 9.40371 33.2383 11.3134 34.6513C12.4595 35.4984 12.425 36.9551 12.0842 37.5537C11.3177 38.8979 9.42097 40.414 8.10519 41.1127C6.78941 41.8113 4.11184 42.968 4.67698 40.8798C4.8819 40.1228 4.36026 39.2841 3.72893 38.269C2.89383 36.9263 2.10406 35.1557 2.07562 33.0961C2.04718 31.0365 3.34814 29.6456 4.30528 28.9736ZM4.08275 33.2946C3.97347 33.1539 4.04393 32.9695 4.15465 32.8554C4.1791 32.8288 4.20642 32.8069 4.23518 32.7897C4.40918 32.6819 4.61769 32.6459 4.81326 32.6834C5.05485 32.7288 5.27486 32.8835 5.42873 33.0914C5.6056 33.3321 5.71058 33.6478 5.6847 33.9557C5.64443 34.4512 5.29643 34.9623 4.81326 34.9998C4.6105 35.0154 4.39768 34.9295 4.27401 34.7528C4.18917 34.6325 4.15465 34.4699 4.18054 34.3215C4.20189 34.1961 4.27239 34.1035 4.34378 34.0098C4.36854 33.9773 4.39341 33.9446 4.41637 33.9104C4.48252 33.8119 4.52422 33.6744 4.46814 33.5681C4.42656 33.4894 4.34788 33.4538 4.2683 33.4177C4.19925 33.3864 4.12952 33.3548 4.08275 33.2946Z" fill="black"/>
<path d="M13.5979 38.5664C13.5517 38.5977 13.504 38.6289 13.4531 38.6618C13.5009 38.6305 13.5502 38.5977 13.5979 38.5664Z" fill="black"/>
<path d="M13.3174 38.7578C13.3605 38.7281 13.4067 38.6969 13.456 38.6641C13.4098 38.6953 13.3636 38.7266 13.3174 38.7578Z" fill="black"/>
<path d="M18.8637 32.4047C18.8421 32.3781 18.8205 32.3531 18.7959 32.3281L18.8159 32.35C18.8313 32.3672 18.8467 32.386 18.8637 32.4047Z" fill="black"/>
<path d="M35.2035 46.3821C34.9539 46.7275 34.6535 47.0386 34.3224 47.3105C34.2407 47.3809 34.1544 47.4434 34.0697 47.509C33.9819 47.5716 33.8972 47.6356 33.8063 47.695C33.6292 47.8169 33.4458 47.9279 33.2579 48.0326C32.882 48.2405 32.4908 48.4203 32.0887 48.5766C31.6851 48.7313 31.2661 48.8548 30.8317 48.9314C30.3973 49.0064 29.9444 49.0283 29.4869 48.9611C29.259 48.9282 29.0325 48.872 28.8122 48.786C28.7568 48.7657 28.7029 48.7422 28.6489 48.7188C28.595 48.6922 28.538 48.6657 28.4857 48.636C28.3778 48.5766 28.2746 48.5109 28.1776 48.4359C27.9804 48.2874 27.811 48.1077 27.6662 47.9139C27.0931 47.1511 26.9699 46.0914 26.6957 45.1911C26.0194 42.967 24.5992 40.9054 22.1961 40.4928C22.0975 40.4756 21.9989 40.4615 21.8988 40.4506C20.2813 40.2661 18.2064 40.6913 17.4192 42.309C16.8739 43.4281 17.0896 44.8801 17.9907 45.746C18.2634 46.0086 18.593 46.2055 18.9473 46.2993C19.3016 46.3931 19.679 46.3774 20.0318 46.2524C20.2074 46.1914 20.383 46.1039 20.5324 46.0023C20.6849 45.8992 20.822 45.7679 20.9422 45.6194C21.1809 45.324 21.3427 44.952 21.3951 44.5644C21.4228 44.3705 21.4197 44.172 21.3874 43.9782C21.372 43.8813 21.3473 43.786 21.3165 43.6922C21.2857 43.5984 21.2487 43.5062 21.204 43.4187C21.1132 43.2436 20.993 43.0842 20.8436 42.9545C20.6942 42.8263 20.5155 42.731 20.3229 42.6731C20.1304 42.6137 19.9239 42.595 19.7175 42.6091C19.5111 42.6231 19.3047 42.67 19.106 42.7357C19.4834 42.5512 19.9209 42.4512 20.3568 42.5309C20.5725 42.5731 20.7835 42.6591 20.9668 42.7904C21.1517 42.9201 21.3088 43.092 21.432 43.2843C21.677 43.6688 21.7879 44.1392 21.7586 44.5987C21.7309 45.0598 21.5768 45.5131 21.3103 45.8992C21.1763 46.0914 21.013 46.2649 20.8251 46.4118C20.6356 46.5603 20.4308 46.6666 20.212 46.7526C19.7761 46.9245 19.2785 46.9651 18.8164 46.8573C18.3527 46.7526 17.9291 46.5134 17.5825 46.2008C17.2344 45.8882 16.954 45.5006 16.763 45.0723C16.6659 44.8582 16.592 44.6331 16.5396 44.4018C16.5134 44.2861 16.495 44.1674 16.4811 44.0517C16.4688 43.9376 16.458 43.8235 16.4518 43.7094C16.4303 43.2514 16.4718 42.7888 16.5751 42.3418C16.7815 41.4462 17.2205 40.6178 17.8043 39.9285C18.3881 39.2377 19.1137 38.6703 19.9255 38.2764C20.7358 37.8826 21.64 37.6528 22.5596 37.6731C22.7891 37.6778 23.0171 37.6966 23.2497 37.7325C23.4793 37.77 23.7072 37.8263 23.9275 37.8951C24.3712 38.0357 24.7902 38.2467 25.1753 38.5109C25.5604 38.7766 25.9101 39.1001 26.1981 39.4784C26.3429 39.6675 26.4708 39.8691 26.5832 40.0817C26.6125 40.1348 26.6371 40.1895 26.6633 40.2427C26.688 40.2974 26.7095 40.349 26.7327 40.4005C26.7558 40.4537 26.7789 40.5053 26.8004 40.5584L26.862 40.7194C27.0223 41.1477 27.1362 41.5869 27.2194 42.0245C27.3026 42.4606 27.3611 42.8966 27.4058 43.3265L27.5291 44.6003C27.5737 45.0208 27.6153 45.4396 27.6831 45.8382C27.7524 46.2383 27.8448 46.6291 27.9896 46.9839C28.1344 47.3371 28.3347 47.6513 28.6027 47.8826C28.8646 48.1124 29.222 48.2593 29.5917 48.3437C29.9645 48.4265 30.3619 48.4343 30.7593 48.3984C31.1583 48.3624 31.5573 48.2765 31.9532 48.1671C32.3491 48.0545 32.7403 47.917 33.1208 47.7513C33.5013 47.5856 33.8725 47.3996 34.2222 47.1699C34.3978 47.0573 34.5673 46.9339 34.7321 46.8041C34.8985 46.6775 35.0525 46.5337 35.2035 46.3821Z" fill="black"/>
<path d="M17.9941 34.6982C17.8771 35.0889 17.6922 35.4359 17.475 35.7297C17.2578 36.0251 17.0098 36.269 16.7526 36.4847C16.4953 36.7003 16.2273 36.8863 15.9531 37.0536C15.6789 37.2208 15.4001 37.3724 15.1182 37.5131C15.3292 37.2771 15.5325 37.0364 15.7205 36.7894C15.9084 36.5425 16.0779 36.2862 16.2211 36.0251C16.3628 35.7641 16.4799 35.4984 16.5461 35.2374C16.6139 34.9764 16.6355 34.7247 16.6108 34.495C16.5693 34.0948 16.8542 33.7354 17.2501 33.6916C17.6445 33.6494 17.9988 33.9385 18.0419 34.3402C18.0527 34.4387 18.0419 34.5356 18.0157 34.6263L17.9941 34.6982Z" fill="black"/>
<path d="M12.4185 3.25783C13.9127 3.48915 15.4362 4.1206 16.4175 5.32723C17.391 6.52605 17.7623 8.10155 18.0457 9.59264C18.266 10.7508 18.457 11.9278 18.8868 13.0312C19.0947 13.5642 19.3997 14.0331 19.6524 14.538C19.8619 14.9568 20.2454 15.3351 20.3933 15.7837C20.4364 15.9165 20.438 16.0744 20.3486 16.1807C19.828 16.7934 18.4216 16.1119 17.8916 15.8368C16.9628 15.357 16.1479 14.6661 15.4716 13.8659C13.3443 11.3526 12.2367 7.73581 12.3122 4.4457C12.3153 4.35349 12.3846 3.25314 12.4185 3.25783Z" fill="black"/>
<path fill-rule="evenodd" clip-rule="evenodd" d="M20.7031 22.2188C20.7031 23.6794 19.5361 24.8634 18.0966 24.8634C16.6572 24.8634 15.4902 23.6794 15.4902 22.2188C15.4902 20.7582 16.6572 19.5742 18.0966 19.5742C19.5361 19.5742 20.7031 20.7582 20.7031 22.2188ZM18.0961 21.9754C18.8193 21.9754 19.4055 21.5464 19.4055 21.0173C19.4055 20.4881 18.8193 20.0591 18.0961 20.0591C17.373 20.0591 16.7868 20.4881 16.7868 21.0173C16.7868 21.5464 17.373 21.9754 18.0961 21.9754Z" fill="black"/>
<path d="M41.4425 19.7033C41.4856 20.0128 41.1483 20.2285 40.8895 20.0596C40.5013 19.8064 40.1008 19.5798 39.6895 19.386C39.3676 19.2375 39.041 19.1047 38.7082 18.9937C38.3755 18.8843 38.0382 18.7889 37.6962 18.7123C36.3298 18.4044 34.9188 18.3669 33.4677 18.2778C32.7422 18.2278 32.0043 18.1715 31.2603 18.0403C30.8875 17.9762 30.5147 17.8965 30.1434 17.7933C29.7722 17.6901 29.404 17.562 29.0436 17.4104C28.6831 17.2603 28.3288 17.0837 27.9915 16.8774C27.9067 16.8274 27.8236 16.7742 27.7404 16.7195C27.6557 16.6664 27.5786 16.6117 27.5001 16.557L27.2644 16.3929L27.0349 16.2209C26.8793 16.1084 26.7329 15.9834 26.582 15.8646C26.508 15.8021 26.4356 15.738 26.3632 15.6754C26.2908 15.6129 26.2184 15.5488 26.1491 15.4816C25.8626 15.2222 25.5961 14.9408 25.3358 14.6532C24.8197 14.0749 24.3699 13.4372 23.9786 12.7792C23.5827 12.1212 23.2562 11.4382 22.9481 10.7676C22.6369 10.0987 22.3581 9.43754 22.0362 8.82484C21.8744 8.5185 21.7065 8.22309 21.5216 7.94488C21.3306 7.65416 21.1273 7.37126 20.9178 7.09461C20.0767 5.99114 19.0693 5.01895 17.8816 4.28435C17.2901 3.91704 16.657 3.60444 15.993 3.3528C15.3291 3.10116 14.6359 2.90578 13.9258 2.75417C15.3753 2.69478 16.868 2.96205 18.2436 3.581C19.6208 4.19369 20.85 5.15806 21.8575 6.29592C22.1086 6.58195 22.3458 6.87892 22.5753 7.18057C22.8095 7.4963 23.0189 7.82609 23.2084 8.15901C23.344 8.39815 23.4734 8.63885 23.5966 8.87642C23.8754 9.41878 24.4731 9.71106 25.0646 9.59071C28.4166 8.91237 32.0027 9.47661 34.9712 11.024C35.8769 11.9086 36.0217 12.7933 36.0217 13.5701C36.0217 14.2844 35.9 14.8643 35.6767 15.2019C35.3455 15.7036 35.4549 16.3788 35.9247 16.7477C36.1296 16.9087 36.373 16.9868 36.6163 16.9868C36.929 16.9868 37.2387 16.8571 37.462 16.6023C37.784 16.2366 38.0151 15.8333 38.243 15.2362C38.3339 14.9955 38.4048 14.7455 38.4587 14.5204C38.5311 14.2125 38.9177 14.1203 39.1149 14.3657C40.3272 15.8693 41.1606 17.6651 41.4425 19.7033Z" fill="black"/>
<path d="M40.9766 13.0302C40.5981 12.4659 40.1857 11.9329 39.7217 11.4781C39.5047 11.2655 39.2781 11.067 39.0434 10.881C38.9267 10.7888 38.8074 10.6982 38.6866 10.6122C38.4709 10.4575 38.2742 10.3074 38.0083 10.3527C37.8035 10.3887 37.6162 10.5262 37.4996 10.7232C37.387 10.9139 37.3476 11.1483 37.3856 11.3749C37.4195 11.5781 37.4426 11.7844 37.4535 11.9892C37.4779 12.4065 37.4507 12.8145 37.4005 13.2052C37.349 13.596 37.2717 13.982 37.1523 14.3524C37.0343 14.7198 36.8728 15.0714 36.6544 15.3559C37.0505 14.6729 37.1265 13.7398 37.1265 13.088C37.1265 11.9064 36.8769 10.2949 34.9736 8.88666H34.9776C34.2695 8.36618 33.5369 7.88478 32.7812 7.44714C33.8041 7.80976 34.8121 8.25208 35.797 8.76943C36.2963 9.03202 36.9366 8.56937 36.8375 7.85977C36.8199 7.73161 36.8077 7.60344 36.7996 7.47215C36.7765 7.05639 36.805 6.65314 36.8552 6.26552C36.9081 5.87946 36.9854 5.49496 37.1034 5.13078C37.2228 4.76661 37.3829 4.41962 37.6013 4.13672C37.2052 4.81975 37.1292 5.75442 37.1292 6.40462C37.1292 7.394 37.3042 8.62876 38.4763 9.8182C38.4953 9.83696 38.5143 9.85571 38.532 9.87447C38.692 10.0355 38.8616 10.1839 39.0258 10.3418C39.1886 10.4997 39.3473 10.6622 39.5006 10.831C39.6335 10.9779 39.7611 11.1296 39.8845 11.2859C40.0948 11.5531 40.2915 11.836 40.4719 12.1299C40.6537 12.4206 40.8192 12.7222 40.9766 13.0302Z" fill="black"/>
<path d="M33.1037 26.8398C30.8362 34.1609 39.3255 36.2788 35.8765 45.0503C41.0323 43.9718 43.4154 39.6595 42.6452 35.6661C41.6685 30.6098 36.2031 30.2691 33.1037 26.8398Z" fill="black"/>
<path d="M31.6356 30.8133C31.537 31.4542 31.3568 32.0778 31.0703 32.6592C30.4649 33.8846 29.4282 34.6989 28.2035 35.2288C27.7121 35.4414 27.2038 35.6102 26.6893 35.754C25.8467 35.99 25.0087 36.1713 24.1799 36.3776C23.3497 36.5824 22.5271 36.8106 21.7168 37.0997C22.4747 36.6918 23.2634 36.337 24.0613 36.0056C24.8562 35.6743 25.6603 35.3648 26.429 35.0162C27.1961 34.6693 27.9278 34.2738 28.5224 33.7674C29.499 32.9375 30.0921 31.7386 30.5265 30.5461C30.7114 30.0381 30.8515 29.502 30.944 28.9549C31.0349 28.4079 31.0795 27.8499 31.0472 27.2904C31.0148 26.7339 30.9085 26.1697 30.6313 25.6602C31.0133 26.0931 31.2613 26.6511 31.4261 27.2216C31.5909 27.7968 31.6788 28.3938 31.7126 28.9956C31.7465 29.6005 31.7265 30.2132 31.6356 30.8133Z" fill="black"/>
<path d="M26.773 17.2891C25.4282 27.6251 42.9121 25.5604 43.7793 33.9162C46.6753 29.1897 44.1644 25.5104 38.9362 22.4172C33.8435 19.4038 29.4903 20.0509 26.773 17.2891Z" fill="black"/>
</svg>
