<svg width="23" height="24" viewBox="0 0 23 24" fill="none" xmlns="http://www.w3.org/2000/svg">
<path d="M3.66438 0.912472C3.64246 0.850691 3.78636 0.620059 3.98393 0.400067C4.1816 0.180074 4.37333 0 4.41009 0C4.44686 0 4.88 0.382401 5.37274 0.849715L6.2685 1.69933L6.57535 1.48315C6.89511 1.25778 8.68028 0.488005 8.88287 0.488005C8.94678 0.488005 9.15367 0.792423 9.34253 1.16458C9.57226 1.61705 9.75682 1.85647 9.9 1.88751C10.0178 1.91298 10.539 2.01 11.0583 2.10311C11.9842 2.26903 12.0046 2.27869 12.1166 2.60185C12.2116 2.87611 12.1853 3.11211 11.9601 4.01013L11.6894 5.08882L12.0027 5.55418C12.3744 6.10602 12.386 6.20391 12.0982 6.3507C11.8537 6.47544 11.886 6.5056 11.3851 5.68546L11.0723 5.17334L11.3401 4.03541C11.4875 3.4095 11.5715 2.86449 11.5267 2.82428C11.4821 2.78407 11.0538 2.67954 10.5749 2.59209C10.0961 2.50454 9.60913 2.41377 9.49278 2.39035C9.35933 2.36341 9.19146 2.16518 9.03844 1.85393C8.90499 1.58241 8.74604 1.32084 8.6852 1.27282C8.51825 1.14076 7.21783 1.72305 6.68607 2.16801L6.22835 2.55119L5.37212 1.71475C4.57591 0.937068 4.32734 0.757384 4.32734 0.959516C4.32734 1.02296 4.92342 2.9702 5.20211 3.81728C5.23826 3.92698 5.02072 4.1418 4.48332 4.52723C3.74785 5.05476 3.71282 5.0977 3.71282 5.47298C3.71282 5.80228 3.77509 5.92048 4.09689 6.20216C4.4655 6.52483 4.51292 6.53839 5.27472 6.53878C5.71124 6.53908 6.06745 6.57226 6.06622 6.61247C6.06489 6.65268 5.75384 7.82761 5.37489 9.2233L4.68581 11.7609L2.65831 12.7121L0.630805 13.6633L0.699426 14.6642C0.850802 16.8701 0.765282 16.6512 1.90644 17.7555L2.91661 18.7331L3.2379 18.5774C3.41457 18.4918 3.57455 18.4091 3.5933 18.3935C3.61204 18.378 3.30099 17.7877 2.90196 17.0816C2.50293 16.3756 2.17652 15.751 2.17652 15.6935C2.17652 15.5883 3.19478 14.3594 3.44776 14.1593C3.54967 14.0787 3.63816 14.095 3.79947 14.2239L4.01506 14.3962L3.45421 15.0128C3.14583 15.352 2.89346 15.6815 2.89346 15.7451C2.89346 15.8086 3.23882 16.4755 3.66089 17.2269C4.08297 17.9782 4.42863 18.6185 4.42904 18.6496C4.42945 18.6807 4.04947 18.8707 3.5848 19.0715L2.73983 19.4369L1.49932 18.2033L0.258917 16.9696L0.191117 15.9757C0.153938 15.4291 0.0956606 14.6079 0.0616572 14.1508L0 13.3197L2.08117 12.3452L4.16244 11.3705L4.70035 9.4185C4.99614 8.34489 5.24072 7.38967 5.24369 7.29568C5.2482 7.15387 5.15715 7.12488 4.70793 7.12488C4.18959 7.12488 4.14462 7.10321 3.64451 6.61247C3.15207 6.12925 3.1193 6.06503 3.06839 5.48567L3.01452 4.87137L3.77335 4.32705C4.19071 4.0277 4.53218 3.7633 4.53218 3.73949C4.53218 3.69996 3.75645 1.17316 3.66438 0.912472Z" fill="black"/>
<path d="M7.38037 3.02212C7.62628 3.01987 7.86584 2.93477 8.06566 2.7786C8.44011 2.48609 8.44339 2.4859 8.6175 2.75157C8.74501 2.94619 8.73098 2.9864 8.46285 3.19712C7.8768 3.6576 7.05877 3.7756 6.93935 3.41692C6.84349 3.12899 6.9585 3.02602 7.38037 3.02212Z" fill="black"/>
<path d="M8.83678 4.51893C8.83514 4.45451 8.91349 4.35925 9.01089 4.30733C9.10819 4.25541 9.21891 4.2312 9.25691 4.25355C9.2948 4.2759 9.61384 4.74078 9.96586 5.28676L10.606 6.27926L10.3732 6.45895L10.1403 6.63863L9.49001 5.63734C9.13236 5.08667 8.83842 4.58335 8.83678 4.51893Z" fill="black"/>
<path d="M5.94721 5.15587C5.42763 4.94281 5.38902 4.88532 5.56027 4.58022C5.66095 4.40103 5.68379 4.39937 5.98623 4.5484C6.21842 4.66279 6.44139 4.68875 6.8017 4.64318C7.31257 4.57866 7.29977 4.57036 7.33848 4.99132C7.34411 5.05242 7.14439 5.15997 6.89459 5.23025C6.48481 5.34561 6.39243 5.33829 5.94721 5.15587Z" fill="black"/>
<path d="M18.872 6.62301L20.0126 6.00286L21.1532 5.3826L21.7067 5.78091L22.2604 6.17922L22.23 6.67533L22.1996 7.17143L20.5609 8.03325L18.9222 8.89497L17.7955 8.56157C16.6837 8.23245 16.5108 8.11338 16.712 7.81501C16.7917 7.69692 16.9458 7.71556 17.7203 7.93702C18.2231 8.08088 18.7192 8.19849 18.8226 8.19849C18.9262 8.19849 19.6015 7.88831 20.3236 7.50913C21.2838 7.00493 21.6363 6.77049 21.6363 6.63629C21.6363 6.45094 21.281 6.14887 21.063 6.14887C20.9981 6.14887 20.4957 6.39824 19.9467 6.70295L18.9483 7.25703L17.8086 6.90147L16.6689 6.54581L14.8766 6.97984C13.3631 7.34633 12.6559 7.58907 10.3318 8.53941C8.81794 9.15839 7.47419 9.69003 7.34565 9.72077C7.16683 9.76352 7.09534 9.72653 7.04095 9.56334C7.00183 9.44602 7.0091 9.31768 7.05693 9.27806C7.13733 9.21139 8.1645 8.78761 11.6788 7.37122C12.6033 6.99858 13.634 6.68284 14.8972 6.38535L16.7556 5.94771L17.8138 6.28541L18.872 6.62301Z" fill="black"/>
<path d="M18.7563 9.47804L20.3243 8.64443C21.1868 8.186 21.9177 7.81033 21.9487 7.80955C22.0516 7.80691 22.2508 8.04047 22.2508 8.16374C22.2508 8.27579 21.3372 8.79747 19.5247 9.72048L18.7959 10.0917L16.1448 9.38834C14.6869 9.00155 13.4165 8.68542 13.3217 8.68581C13.227 8.6862 12.1209 9.14297 10.8637 9.70086C8.83637 10.6005 8.56332 10.6978 8.44974 10.5606C8.37937 10.4756 8.32171 10.3559 8.32171 10.2946C8.32171 10.2334 9.43071 9.69501 10.7861 9.09827L13.2505 8.01324L14.8061 8.43419C15.6616 8.6657 16.9005 8.99521 17.559 9.1665L18.7563 9.47804Z" fill="black"/>
<path d="M13.2606 10.105C13.2449 10.0913 13.2778 9.96546 13.3336 9.8255C13.433 9.57652 13.4437 9.57388 13.833 9.70477C14.0518 9.77836 14.7628 9.99816 15.413 10.1933C16.5908 10.5468 16.5964 10.5475 16.9745 10.3756C17.3419 10.2087 17.3587 10.2092 17.498 10.3907C17.5772 10.4939 17.6416 10.6028 17.6411 10.6328C17.6398 10.7273 16.8414 11.1265 16.6537 11.1265C16.4999 11.1265 13.3406 10.1754 13.2606 10.105Z" fill="black"/>
<path d="M9.57635 11.544C9.35625 11.2656 9.43 11.1854 10.244 10.8173C10.6795 10.6204 11.1143 10.4556 11.2103 10.4513C11.3062 10.4469 11.9515 10.6447 12.6441 10.8906C14.6814 11.6142 14.6842 11.615 14.9118 11.499C15.0749 11.4158 15.1443 11.431 15.2539 11.5738C15.43 11.8032 15.3851 11.9217 15.0555 12.0988C14.8134 12.2289 14.7239 12.2188 14.0395 11.9838L12.2586 11.3724L11.2283 11.0187L10.4663 11.3623C9.77044 11.6762 9.69332 11.6919 9.57635 11.544Z" fill="black"/>
<path d="M15.3887 12.9809V12.6881V12.3953H16.1238H16.8591L18.0593 13.2713L19.2594 14.1473L20.7221 14.5412C21.5266 14.7579 22.2052 14.9546 22.2301 14.9783C22.3269 15.0706 22.1392 15.5094 22.0193 15.4712C21.9495 15.4489 21.2701 15.2703 20.5097 15.0741C18.9537 14.6729 19.0239 14.7067 17.6876 13.7113L16.7071 12.9809H16.0479H15.3887Z" fill="black"/>
<path d="M14.4248 13.8133C14.016 12.9798 13.9872 12.8753 14.1415 12.7896C14.2359 12.737 14.3643 12.6927 14.4265 12.6911C14.4888 12.6895 14.7599 13.1384 15.0288 13.6885L15.5178 14.689L15.274 15.6126C15.0332 16.5247 14.9298 16.719 14.2987 17.4439L13.9769 17.8137L14.4268 18.7183C14.6742 19.2158 14.8766 19.6566 14.8766 19.6977C14.8766 19.7387 14.5886 20.1267 14.2365 20.5598C13.8844 20.9929 13.1124 21.944 12.5209 22.6734C11.9294 23.4029 11.4225 23.9998 11.3943 24C11.3093 24.0006 10.4237 22.9395 10.3904 22.7971C10.3733 22.7243 10.6113 22.079 10.9193 21.3632C11.33 20.4088 11.454 20.0169 11.3845 19.8931C11.3323 19.8003 11.0368 19.3884 10.7276 18.9776C10.4182 18.5669 10.1653 18.1761 10.1653 18.1093C10.1653 17.997 11.346 15.4344 11.4382 15.3466C11.506 15.2819 11.9064 15.5181 11.9064 15.6227C11.9064 15.6762 11.6554 16.2469 11.3485 16.8908L10.7907 18.0618L11.4502 18.9618C11.813 19.4568 12.1101 19.9135 12.1105 19.9768C12.1109 20.04 11.8604 20.6769 11.5539 21.392C10.9975 22.6898 10.9969 22.6926 11.1999 22.8874C11.4033 23.0826 11.4034 23.0826 11.578 22.8714C13.5479 20.4895 14.1587 19.715 14.1544 19.6047C14.1515 19.5314 13.952 19.0761 13.711 18.593L13.2728 17.7146L13.8617 17.0314C14.3693 16.4424 14.4801 16.2374 14.6652 15.5448L14.88 14.7415L14.4248 13.8133Z" fill="black"/>
<path d="M4.76447 14.1772C4.73733 14.1098 4.74163 13.9887 4.77409 13.9082C4.80646 13.8276 4.87744 13.7617 4.93172 13.7617C4.9861 13.7617 6.27803 14.1851 7.80275 14.7027C10.6061 15.6542 10.7312 15.7185 10.4899 16.0807C10.4274 16.1746 10.1072 16.1013 9.13441 15.7704C8.43396 15.5321 7.17522 15.1038 6.33733 14.8185C5.49943 14.5333 4.79171 14.2447 4.76447 14.1772Z" fill="black"/>
</svg>
