<svg xmlns="http://www.w3.org/2000/svg" xmlns:xlink="http://www.w3.org/1999/xlink" width="500" height="500" viewBox="0 0 500 500"><defs><clipPath id="b"><rect width="500" height="500"/></clipPath></defs><g id="a" clip-path="url(#b)"><g transform="translate(2.83 -1.109)"><path d="M387.027,82.1c.9-.581,2.7-.06,3.938.794a12.357,12.357,0,0,1,2.994,3.583c1.074,1.567,2.54,3.518,3.274,4.489s.732.975.088.735a14.89,14.89,0,0,1-3.34-1.647c-1.4-.935-2.884-2.33-4.19-3.076s-2.458-.823-3.044-1.716S386.144,82.683,387.027,82.1Zm76.78,206.025c.951.484,1.395,2.311,1.285,3.808a12.392,12.392,0,0,1-1.618,4.389c-.814,1.717-1.767,3.954-2.25,5.082s-.473,1.125-.591.441a15.321,15.321,0,0,1-.245-3.726c.125-1.666.586-3.651.566-5.164s-.512-2.539-.034-3.493S462.861,287.659,463.807,288.127ZM323.771,457.641c.06,1.064-1.294,2.358-2.661,3.011a12.212,12.212,0,0,1-4.6.794c-1.889.152-4.31.442-5.527.591s-1.207.153-.681-.292a15.1,15.1,0,0,1,3.1-2.067c1.5-.746,3.452-1.325,4.749-2.1s1.948-1.706,3.011-1.767S323.714,456.574,323.771,457.641ZM106.946,421.114c-.884.585-2.69.06-3.936-.794a12.592,12.592,0,0,1-2.988-3.6c-1.069-1.555-2.531-3.506-3.268-4.479s-.732-.973-.088-.74a15.263,15.263,0,0,1,3.343,1.653c1.385.934,2.871,2.332,4.187,3.064s2.463.832,3.042,1.727S107.841,420.532,106.946,421.114ZM30.17,215.076c-.941-.471-1.393-2.3-1.272-3.8a12.348,12.348,0,0,1,1.614-4.382c.817-1.714,1.768-3.955,2.24-5.08s.484-1.123.606-.439a16.039,16.039,0,0,1,.239,3.712c-.121,1.678-.581,3.656-.56,5.177s.5,2.54.028,3.491S31.127,215.558,30.17,215.076ZM250.7,48.758A61.41,61.41,0,0,0,235.3,50.112a19.615,19.615,0,0,0,2-7.968c2.483-.01,5.895.006,7.422.047,2.526.069,4.956.214,7.314.42A23.293,23.293,0,0,1,250.7,48.758Zm17.177,3.758a48.467,48.467,0,0,0-12.1-3.3,24.84,24.84,0,0,0,1.976-5.957,82.45,82.45,0,0,1,13.293,2.96A23.175,23.175,0,0,1,267.879,52.516Zm14.051,9.278a44.882,44.882,0,0,0-9.647-7.157,24.785,24.785,0,0,0,4.255-6.4,51.056,51.056,0,0,1,11.869,6.9A22.571,22.571,0,0,1,281.93,61.794Zm9.279,12.964a45.436,45.436,0,0,0-6.068-9.492,25.894,25.894,0,0,0,7.815-5.989,41.473,41.473,0,0,1,7.588,11.138A22.662,22.662,0,0,1,291.209,74.758Zm4.338,16.149a46.34,46.34,0,0,0-2.564-11.887,24.506,24.506,0,0,0,9.8-2.759,55.516,55.516,0,0,1,2.3,13.327A22.285,22.285,0,0,1,295.547,90.906Zm-1.583,16.567A47.794,47.794,0,0,0,295.7,95.61a25.169,25.169,0,0,0,9.425.28A88.111,88.111,0,0,1,303.6,109.1,22.237,22.237,0,0,1,293.964,107.474ZM73.17,146.964a61.591,61.591,0,0,0-6.531,14.02,19.608,19.608,0,0,0-5.9-5.711c1.233-2.156,2.955-5.1,3.753-6.405,1.322-2.154,2.664-4.186,4.02-6.125A23.3,23.3,0,0,1,73.17,146.964ZM85.016,133.97a48.589,48.589,0,0,0-8.909,8.832,24.8,24.8,0,0,0-4.168-4.686,82.609,82.609,0,0,1,9.209-10.032A23.187,23.187,0,0,1,85.016,133.97Zm15.063-7.526a44.883,44.883,0,0,0-11.023,4.775,24.8,24.8,0,0,0-3.413-6.884,51.089,51.089,0,0,1,11.909-6.83A22.582,22.582,0,0,1,100.079,126.444Zm15.863-1.554a45.445,45.445,0,0,0-11.252.509,25.962,25.962,0,0,0-1.28-9.765,41.454,41.454,0,0,1,13.438-1A22.651,22.651,0,0,1,115.941,124.89Zm16.156,4.316a46.519,46.519,0,0,0-11.577-3.723,24.474,24.474,0,0,0,2.51-9.863,55.573,55.573,0,0,1,12.689,4.676A22.286,22.286,0,0,1,132.1,129.206Zm13.56,9.652a47.72,47.72,0,0,0-9.409-7.435,25.144,25.144,0,0,0,4.955-8.02,88.373,88.373,0,0,1,10.682,7.927A22.235,22.235,0,0,1,145.657,138.858ZM69.452,349.82a61.331,61.331,0,0,0,8.872,12.664,19.621,19.621,0,0,0-7.888,2.254c-1.25-2.148-2.943-5.11-3.671-6.453-1.2-2.221-2.294-4.4-3.294-6.542A23.275,23.275,0,0,1,69.452,349.82Zm-5.328-16.754a48.47,48.47,0,0,0,3.192,12.129,24.855,24.855,0,0,0-6.14,1.268,82.517,82.517,0,0,1-4.082-12.993A23.08,23.08,0,0,1,64.124,333.065Zm1.015-16.807a44.864,44.864,0,0,0-1.377,11.931A24.786,24.786,0,0,0,56.1,327.7a51.075,51.075,0,0,1,.038-13.728A22.57,22.57,0,0,1,65.139,316.259Zm6.588-14.514a45.485,45.485,0,0,0-5.187,10,25.909,25.909,0,0,0-9.1-3.776,41.45,41.45,0,0,1,5.852-12.139A22.64,22.64,0,0,1,71.727,301.744Zm11.815-11.833a46.509,46.509,0,0,0-9.012,8.165,24.494,24.494,0,0,0-7.289-7.108,55.47,55.47,0,0,1,10.394-8.652A22.288,22.288,0,0,1,83.542,289.912Zm15.137-6.917a47.856,47.856,0,0,0-11.143,4.431,25.167,25.167,0,0,0-4.47-8.306,88.49,88.49,0,0,1,12.206-5.288A22.253,22.253,0,0,1,98.679,282.994Zm144.6,171.464a61.409,61.409,0,0,0,15.406-1.354,19.591,19.591,0,0,0-2,7.968c-2.485.01-5.9,0-7.422-.047-2.526-.069-4.958-.214-7.316-.419A23.364,23.364,0,0,1,243.279,454.459ZM226.1,450.7a48.528,48.528,0,0,0,12.1,3.3,24.81,24.81,0,0,0-1.976,5.959,82.345,82.345,0,0,1-13.293-2.96A23.182,23.182,0,0,1,226.1,450.7Zm-14.046-9.281a44.951,44.951,0,0,0,9.646,7.158,24.731,24.731,0,0,0-4.257,6.4,51.1,51.1,0,0,1-11.871-6.9A22.623,22.623,0,0,1,212.055,441.418Zm-9.275-12.961a45.412,45.412,0,0,0,6.067,9.49,25.942,25.942,0,0,0-7.822,6,41.491,41.491,0,0,1-7.588-11.14A22.718,22.718,0,0,1,202.78,428.457Zm-4.338-16.146a46.4,46.4,0,0,0,2.564,11.885,24.474,24.474,0,0,0-9.8,2.76,55.457,55.457,0,0,1-2.3-13.328A22.3,22.3,0,0,1,198.442,412.312Zm1.577-16.567a47.732,47.732,0,0,0-1.735,11.865,25.169,25.169,0,0,0-9.431-.283,88.506,88.506,0,0,1,1.523-13.213A22.228,22.228,0,0,1,200.02,395.744Zm220.793-39.489a61.385,61.385,0,0,0,6.531-14.017,19.63,19.63,0,0,0,5.9,5.7c-1.233,2.158-2.953,5.105-3.753,6.407-1.32,2.154-2.663,4.185-4.02,6.124A23.265,23.265,0,0,1,420.813,356.255ZM408.967,369.25a48.444,48.444,0,0,0,8.909-8.83,24.912,24.912,0,0,0,4.167,4.682,82.5,82.5,0,0,1-9.211,10.032A23.136,23.136,0,0,1,408.967,369.25ZM393.9,376.774A44.969,44.969,0,0,0,404.925,372a24.8,24.8,0,0,0,3.413,6.881,51.142,51.142,0,0,1-11.909,6.828A22.543,22.543,0,0,1,393.9,376.774Zm-15.864,1.549a45.446,45.446,0,0,0,11.252-.506,25.93,25.93,0,0,0,1.281,9.765,41.469,41.469,0,0,1-13.441,1A22.687,22.687,0,0,1,378.04,378.323Zm-16.153-4.317a46.451,46.451,0,0,0,11.576,3.723,24.478,24.478,0,0,0-2.511,9.867,55.517,55.517,0,0,1-12.689-4.675A22.306,22.306,0,0,1,361.887,374.006Zm-13.556-9.653a47.772,47.772,0,0,0,9.408,7.437,25.133,25.133,0,0,0-4.962,8.025,88.473,88.473,0,0,1-10.682-7.925A22.242,22.242,0,0,1,348.331,364.353Zm76.2-210.955a61.356,61.356,0,0,0-8.874-12.664,19.583,19.583,0,0,0,7.891-2.256c1.253,2.148,2.944,5.11,3.671,6.453,1.205,2.222,2.294,4.4,3.294,6.544A23.306,23.306,0,0,1,424.526,153.4Zm5.331,16.754a48.5,48.5,0,0,0-3.194-12.129,24.815,24.815,0,0,0,6.141-1.268,82.1,82.1,0,0,1,4.081,12.993A23.159,23.159,0,0,1,429.857,170.152Zm-1.017,16.807a44.889,44.889,0,0,0,1.379-11.932,24.833,24.833,0,0,0,7.666.487,51.062,51.062,0,0,1-.039,13.727A22.6,22.6,0,0,1,428.84,186.959Zm-6.588,14.514a45.275,45.275,0,0,0,5.187-10,25.926,25.926,0,0,0,9.1,3.776,41.458,41.458,0,0,1-5.852,12.141A22.657,22.657,0,0,1,422.253,201.474ZM410.437,213.3a46.489,46.489,0,0,0,9.012-8.162,24.5,24.5,0,0,0,7.291,7.108,55.465,55.465,0,0,1-10.394,8.654A22.3,22.3,0,0,1,410.437,213.3ZM395.3,220.216a47.826,47.826,0,0,0,11.143-4.428,25.179,25.179,0,0,0,4.47,8.309,88.4,88.4,0,0,1-12.2,5.288A22.232,22.232,0,0,1,395.3,220.216Zm46.638,2.82c-9.031,12.421-27.942,28.724-55.461,35.614,0,0,6.872-3.283,9.474-9.532v0a114.19,114.19,0,0,1-20.753,2.059c-10.787.114-24.389-1.612-36.62-2.3-29.7-2.123-60.467-3.246-82.313,17.433.083.108,39.274-18.56,59.218,14.83l-.249-.15c8.88,14.885,12.915,33.25,19.483,58.649a55.28,55.28,0,0,0,10.523,21.249,25.989,25.989,0,0,0-7.8,6.752,155.53,155.53,0,0,1-20.828-25.373s23.895,52.216,63.1,51.494c34.414-.633,52.159-33.365,56.015-41.457.537-1.126,3.934-7.871,3.939-7.889-18.585-18.791-14.207-50-1.234-67.482,0,0-9.786,7.429-12.947,15.022s-1.016,26.309-2.76,35.04l-.02.107c-3.588,15.008-9.99,27.3-24.353,36.067-20.219,12.332-44.773-2.219-54.206-21.213,22.961,22.309,58.129,30.31,68.413-16.419,1.7-7.73,2.282-16.85,2.812-25.971a26.247,26.247,0,0,1,3.665-13.607c3.529-5.674,10.1-10.645,14.924-17.263a49.341,49.341,0,0,0,8.686-20.717c.775-5.845-.359-6.579-1.122-8.284-1.036-2.311,5.331-5.123,6.96-6.44-.915.947-.763,1.981-.813,3.135s.76,2.518,1.145,4.348a41.17,41.17,0,0,1,.439,6.487c.1,2.39.331,4.869.451,6.116s.115,1.245.394-.452a73.214,73.214,0,0,1,1.708-8.054c.852-2.962,2.006-5.493,2.769-8.1a47.257,47.257,0,0,0,1.3-6.65c.179-1.345.179-1.345-.282-.88a11.781,11.781,0,0,1-2.457,2.035,8.916,8.916,0,0,1-3.347,1.055l-.031.009a19.491,19.491,0,0,0,4.58-6.335c.791-1.579.791-1.579,2.823-.7s6.067,2.612,8.958,5.652a17.856,17.856,0,0,1,4.679,11.97c.06,4.578-1.535,9.409-2.368,15.105a122.572,122.572,0,0,0-.937,15.545c-.029,3.284-.029,3.284,1.215,3.877a12.934,12.934,0,0,1,5.374,4.238c1.633,2.439,2.438,6.145.932,11.2s-5.341,11.426-7.782,17.513a35.99,35.99,0,0,0-2.658,18.581c.833,6.707,3.534,14.35,6.245,21.992a11.142,11.142,0,0,1-6.239-2.8,46.451,46.451,0,0,1-5.953-7.6c-.543-.8-.848-1.256-1.256-1.353a81.2,81.2,0,0,1-10.241,27.776,77.194,77.194,0,0,1-19.948,22.908c-18.028,13.823-38.421,19.442-57.991,16.276l.019.013c-15.273-1.611-38.845-9.834-58.572-30.224,0,0,6.278,4.311,12.993,3.439l.007,0a114.079,114.079,0,0,1-12.158-16.941c-5.525-9.335-10.863-22.068-16.416-33.044-12.985-26.719-27.4-53.827-56.164-62.387-.054.125,35.71,24.731,16.766,58.7l.006-.289a82.658,82.658,0,0,1-4.425,7.043h0a.937.937,0,0,0-.058.085c-8.547,12.216-20.86,23.631-36.569,39.067a55.32,55.32,0,0,0-13.14,19.739,25.968,25.968,0,0,0-9.745-3.375,155.425,155.425,0,0,1,11.56-30.723s-33.275,46.8-13.047,80.391c17.755,29.486,54.975,28.488,63.91,27.781,1.245-.1,8.785-.53,8.8-.533,6.981-25.491,36.194-37.3,57.822-34.81,0,0-11.327-4.761-19.481-3.7s-23.294,12.275-31.727,15.129l-.006,0v0c-14.821,4.419-28.7,5.054-43.5-3.022-20.8-11.348-20.464-39.878-8.745-57.544-7.834,31.034,2.822,65.489,48.434,51.027,7.553-2.388,15.728-6.447,23.893-10.543a26.194,26.194,0,0,1,13.619-3.626c6.679.209,14.269,3.423,22.415,4.287a49.313,49.313,0,0,0,22.282-2.839c5.455-2.251,5.517-3.6,6.62-5.114,1.477-2.05,7.1,2.06,9.047,2.809-1.275-.318-2.1.325-3.122.858s-1.8,1.926-3.184,3.173a42.621,42.621,0,0,1-5.4,3.624c-2.019,1.272-4.056,2.72-5.07,3.443s-1.029.725.581.121a74.189,74.189,0,0,1,7.825-2.549c3-.744,5.773-1,8.414-1.656a46.31,46.31,0,0,0,6.408-2.2c1.256-.518,1.256-.518.623-.677a12.269,12.269,0,0,1-3-1.122,9.1,9.1,0,0,1-2.584-2.359l-.015-.034a19.263,19.263,0,0,0,7.774.8c1.765-.1,1.765-.1,2.015,2.091s.773,6.555-.41,10.587a17.891,17.891,0,0,1-8.025,10.041c-3.938,2.339-8.916,3.373-14.271,5.5a121.449,121.449,0,0,0-13.928,6.963c-2.863,1.617-2.863,1.617-2.763,2.981a12.787,12.787,0,0,1-.972,6.77c-1.3,2.651-4.1,5.2-9.23,6.42-5.123,1.2-12.567,1.083-19.064,2.013a35.865,35.865,0,0,0-17.409,6.984c-5.407,4.075-10.667,10.241-15.928,16.407a11.067,11.067,0,0,1-.7-6.8,46.871,46.871,0,0,1,3.6-8.957c.425-.872.676-1.364.554-1.765a81.4,81.4,0,0,1-29.182,5.019,77.156,77.156,0,0,1-29.81-5.824c-20.988-8.7-36.051-23.555-43.093-42.09l0,.034c-6.242-14.032-10.906-38.559-3.111-65.836,0,0-.594,7.593,3.518,12.969l.007.01a114.191,114.191,0,0,1,8.6-19.011c5.318-9.446,13.668-20.426,20.4-30.72,16.651-24.61,32.925-50.649,25.955-79.844-.137.016-3.564,43.294-42.454,43.869l.261-.147c-17.332.249-35.261-5.433-60.537-12.454a55.28,55.28,0,0,0-23.664-1.51,25.949,25.949,0,0,0-1.951-10.123,155.307,155.307,0,0,1,32.388-5.349s-57.169-5.416-76.146,28.9c-16.658,30.119,2.817,61.853,7.9,69.239.706,1.029,4.85,7.343,4.862,7.358,25.568-6.7,50.405,12.694,59.057,32.669,0,0-1.539-12.189-6.534-18.721s-22.271-14.033-28.963-19.91h0C82.594,355.472,75.113,343.763,74.7,326.9c-.573-23.682,24.312-37.659,45.462-36.337-30.791,8.728-55.306,35.193-19.976,67.459,5.845,5.343,13.448,10.4,21.08,15.418a26.322,26.322,0,0,1,9.954,9.981c3.153,5.895,4.166,14.072,7.482,21.554a49.407,49.407,0,0,0,13.607,17.882c4.682,3.6,5.874,2.984,7.733,3.176,2.518.26,1.767,7.178,2.1,9.237-.35-1.268-1.335-1.647-2.308-2.266s-2.561-.605-4.338-1.179a42.591,42.591,0,0,1-5.836-2.873c-2.12-1.1-4.392-2.146-5.525-2.667s-1.132-.515.193.569a74.442,74.442,0,0,1,6.125,5.5c2.137,2.222,3.756,4.5,5.633,6.458a45.465,45.465,0,0,0,5.112,4.45c1.075.824,1.075.824.894.2a12.23,12.23,0,0,1-.522-3.163,8.9,8.9,0,0,1,.753-3.413l.009-.034c.445,2.917,2.272,5.708,3.194,7.135.964,1.474.964,1.474-.8,2.79s-5.29,3.958-9.373,4.933a17.8,17.8,0,0,1-12.7-1.926c-4.008-2.232-7.39-6.038-11.909-9.6a119.723,119.723,0,0,0-13-8.585c-2.825-1.669-2.825-1.669-3.957-.893a12.816,12.816,0,0,1-6.361,2.54c-2.93.2-6.544-.954-10.161-4.791s-7.23-10.334-11.277-15.495A35.9,35.9,0,0,0,71.225,401.37c-6.227-2.642-14.189-4.116-22.163-5.594a11.2,11.2,0,0,1,5.546-4,46.848,46.848,0,0,1,9.56-1.353c.963-.07,1.5-.1,1.808-.411a81.184,81.184,0,0,1-18.943-22.759,77.149,77.149,0,0,1-9.863-28.73C34.212,316,39.54,295.536,52.063,280.172l-.02.009c9.031-12.421,27.941-28.725,55.461-35.614,0,0-6.872,3.283-9.475,9.532v0a114.17,114.17,0,0,1,20.75-2.059c10.775-.114,24.359,1.606,36.579,2.294,29.707,2.126,60.5,3.259,82.355-17.428-.082-.108-39.285,18.565-59.225-14.844l.264.162c-8.878-14.881-12.912-33.25-19.48-58.659a55.256,55.256,0,0,0-10.521-21.242,25.968,25.968,0,0,0,7.787-6.747,155.506,155.506,0,0,1,20.828,25.371s-23.893-52.216-63.1-51.492c-34.411.632-52.158,33.364-56.015,41.456-.537,1.126-3.934,7.871-3.939,7.89,18.585,18.789,14.21,50,1.234,67.48,0,0,9.787-7.429,12.947-15.021s1.015-26.309,2.76-35.04l0-.016c3.583-15.046,9.984-27.373,24.379-36.159,20.215-12.33,44.762,2.219,54.2,21.213-22.954-22.306-58.128-30.311-68.411,16.417-1.706,7.733-2.28,16.852-2.812,25.972a26.346,26.346,0,0,1-3.665,13.608c-3.525,5.674-10.1,10.644-14.923,17.253a49.238,49.238,0,0,0-8.687,20.727c-.775,5.843.362,6.577,1.126,8.283,1.034,2.311-5.342,5.123-6.961,6.44.912-.945.76-1.978.814-3.135s-.763-2.518-1.147-4.346a41.876,41.876,0,0,1-.442-6.488c-.1-2.391-.331-4.878-.451-6.115s-.111-1.247-.391.452a72.491,72.491,0,0,1-1.713,8.042c-.848,2.972-2.006,5.5-2.769,8.115a44.971,44.971,0,0,0-1.293,6.649c-.182,1.345-.182,1.345.271.884a11.935,11.935,0,0,1,2.47-2.041,8.923,8.923,0,0,1,3.343-1.062h.032a19.208,19.208,0,0,0-4.581,6.337c-.805,1.577-.805,1.577-2.819.7s-6.068-2.609-8.964-5.652a17.793,17.793,0,0,1-4.673-11.973c-.071-4.578,1.535-9.408,2.353-15.113a123.4,123.4,0,0,0,.948-15.549c.028-3.27.028-3.27-1.215-3.877a12.788,12.788,0,0,1-5.371-4.225c-1.647-2.451-2.451-6.15-.935-11.2s5.34-11.429,7.78-17.513a35.977,35.977,0,0,0,2.664-18.581c-.833-6.72-3.538-14.351-6.249-21.995a11.145,11.145,0,0,1,6.23,2.8,46.525,46.525,0,0,1,5.962,7.606c.534.8.846,1.255,1.258,1.354a81.079,81.079,0,0,1,10.242-27.779,76.964,76.964,0,0,1,19.946-22.907c18.022-13.819,38.411-19.442,57.976-16.28l-.012-.009c15.273,1.611,38.845,9.834,58.572,30.222,0,0-6.278-4.31-12.991-3.437a114.147,114.147,0,0,1,12.155,16.941c5.482,9.262,10.776,21.865,16.281,32.782l0,.007c13.019,26.8,27.433,54.057,56.29,62.645.051-.123-33.059-22.91-18.68-54.893,13.9-21.039,23.348-30.434,42.967-49.72a55.3,55.3,0,0,0,13.139-19.726,26,26,0,0,0,9.742,3.373,155.634,155.634,0,0,1-11.558,30.723s33.272-46.8,13.044-80.393c-17.754-29.484-54.972-28.488-63.91-27.782-1.245.1-8.783.53-8.8.534-6.981,25.491-36.2,37.3-57.823,34.808,0,0,11.325,4.762,19.48,3.7s23.294-12.275,31.728-15.129c14.831-4.428,28.711-5.053,43.514,3.022,20.8,11.351,20.467,39.881,8.738,57.546,7.845-31.034-2.812-65.487-48.427-51.036-7.553,2.4-15.727,6.453-23.892,10.553a26.193,26.193,0,0,1-13.619,3.624c-6.687-.212-14.271-3.424-22.415-4.3a49.472,49.472,0,0,0-22.284,2.851c-5.454,2.253-5.525,3.6-6.62,5.115-1.474,2.047-7.1-2.07-9.046-2.812,1.264.321,2.1-.333,3.122-.864s1.8-1.922,3.181-3.166a43.023,43.023,0,0,1,5.407-3.623c2.018-1.274,4.053-2.733,5.072-3.458s1.021-.721-.6-.108a72.607,72.607,0,0,1-7.823,2.552c-2.99.732-5.765,1-8.406,1.655a43.83,43.83,0,0,0-6.405,2.2c-1.258.511-1.258.511-.623.671a11.842,11.842,0,0,1,2.991,1.125,9.114,9.114,0,0,1,2.594,2.362l.019.029a19.42,19.42,0,0,0-7.775-.805c-1.767.1-1.767.1-2.032-2.086-.248-2.189-.76-6.569.425-10.587a17.875,17.875,0,0,1,8.023-10.04c3.938-2.352,8.921-3.378,14.271-5.5a123.663,123.663,0,0,0,13.931-6.96c2.866-1.618,2.866-1.618,2.749-3a12.973,12.973,0,0,1,.989-6.768c1.291-2.641,4.1-5.19,9.225-6.4s12.567-1.087,19.052-2.021a35.931,35.931,0,0,0,17.425-6.992c5.407-4.065,10.666-10.235,15.928-16.4a11.151,11.151,0,0,1,.693,6.8,46.681,46.681,0,0,1-3.607,8.956c-.43.875-.671,1.367-.552,1.767a81.461,81.461,0,0,1,29.184-5.019,77.18,77.18,0,0,1,29.808,5.824c20.982,8.7,36.044,23.546,43.088,42.071v-.013c6.24,14.032,10.9,38.559,3.111,65.836,0,0,.594-7.593-3.518-12.971l0,0a114.081,114.081,0,0,1-8.594,19c-5.279,9.38-13.546,20.272-20.247,30.5l0,0c-16.7,24.675-33.1,50.786-26.108,80.072.136-.018,3.563-43.29,42.448-43.869l-.249.137a83.221,83.221,0,0,1,8.34.318l.069.006c14.856,1.3,30.905,6.245,52.128,12.129a55.307,55.307,0,0,0,23.658,1.514c-.212,3.54.848,7.057,1.951,10.129a155.305,155.305,0,0,1-32.388,5.35s57.168,5.416,76.146-28.9c16.656-30.117-2.816-61.853-7.9-69.237-.706-1.03-4.851-7.343-4.863-7.358-25.565,6.7-50.4-12.7-59.057-32.672,0,0,1.541,12.192,6.535,18.724s22.277,14.033,28.966,19.911l.092.079c11.2,10.614,18.639,22.3,19.052,39.112.57,23.683-24.315,37.662-45.464,36.345,30.789-8.737,55.293-35.189,19.977-67.456-5.849-5.343-13.448-10.394-21.089-15.416a26.311,26.311,0,0,1-9.945-9.981c-3.157-5.9-4.166-14.071-7.5-21.563a49.169,49.169,0,0,0-13.605-17.875c-4.672-3.6-5.867-2.982-7.734-3.172-2.508-.263-1.754-7.183-2.089-9.242.35,1.255,1.326,1.647,2.3,2.267s2.571.6,4.336,1.179a43.213,43.213,0,0,1,5.849,2.861c2.117,1.112,4.386,2.158,5.521,2.671s1.135.522-.19-.563a72.538,72.538,0,0,1-6.128-5.5c-2.136-2.231-3.756-4.5-5.635-6.456a44.742,44.742,0,0,0-5.11-4.449c-1.077-.839-1.077-.839-.9-.2a11.779,11.779,0,0,1,.534,3.152,8.89,8.89,0,0,1-.754,3.424l-.012.028c-.438-2.909-2.272-5.711-3.192-7.129-.966-1.475-.966-1.475.8-2.8s5.3-3.948,9.377-4.93a17.858,17.858,0,0,1,12.7,1.935c4.011,2.232,7.391,6.03,11.9,9.6a125.037,125.037,0,0,0,13,8.588c2.833,1.666,2.833,1.666,3.966.891a12.772,12.772,0,0,1,6.348-2.54c2.943-.2,6.557.954,10.172,4.783S403.942,85.1,408,90.248a35.879,35.879,0,0,0,14.764,11.6c6.223,2.642,14.189,4.116,22.161,5.592a11.079,11.079,0,0,1-5.543,3.985,46.22,46.22,0,0,1-9.562,1.369c-.959.058-1.513.1-1.806.4a81.385,81.385,0,0,1,18.943,22.765,77.252,77.252,0,0,1,9.862,28.723c2.957,22.526-2.37,42.995-14.892,58.36ZM170.22,45.577c-.066-1.065,1.29-2.361,2.651-3.013a12.334,12.334,0,0,1,4.608-.8c1.889-.15,4.309-.448,5.525-.589s1.2-.153.668.289a15.324,15.324,0,0,1-3.09,2.07c-1.506.732-3.455,1.326-4.762,2.1s-1.949,1.706-3,1.765S170.277,46.642,170.22,45.577Z" transform="translate(0 0)" fill="#f4f4f4" fill-rule="evenodd"/><path d="M130.851,196.889c-11.515-26.76-.858-34.807-3.553-46.18A132.7,132.7,0,0,0,92.3,232.224c22-2.742,56.7,9.406,86.979,3.37-28.263-1.236-64.209-11.086-71.067-10.323,10.209-2.628,37.316,2.409,46.084,1a25.689,25.689,0,0,0-1.2-2.6,252.238,252.238,0,0,1-14.663-33.157c-2.781-7.972-5.086-16.14-7.256-24.327-4.625,9.49-1.634,25.24-.325,30.7m8.958,102.773c-28.975-3.427-30.627-16.664-41.838-20.021a132.757,132.757,0,0,0,53.218,71.01c8.623-20.393,36.509-44.311,46.415-73.506-15.2,23.814-41.724,49.963-44.49,56.275,2.826-10.139,20.749-31.057,23.912-39.339a25.4,25.4,0,0,0-2.855-.258,253.348,253.348,0,0,1-36.1-3.9c-8.3-1.582-16.544-3.671-24.732-5.889C119.26,292.773,134.418,298.062,139.809,299.662Zm93.638,43.64c-17.459,23.334-29.767,18.145-38.285,26.161a133.208,133.208,0,0,0,88.212-10.505c-13.379-17.651-20.186-53.719-40.564-76.877,13.058,25.049,22.485,61.049,26.578,66.6-7.383-7.511-16.57-33.464-22.173-40.341a26.167,26.167,0,0,0-1.653,2.34,252.481,252.481,0,0,1-21.433,29.255c-5.524,6.389-11.458,12.467-17.476,18.438C217.2,357.622,229.365,347.163,233.447,343.3Zm84.68-59.132c11.515,26.762.858,34.808,3.553,46.18a132.655,132.655,0,0,0,34.993-81.513c-22,2.742-56.7-9.406-86.978-3.37,28.262,1.234,64.208,11.084,71.067,10.323-10.209,2.628-37.318-2.409-46.085-1a25.284,25.284,0,0,0,1.205,2.6,252.255,252.255,0,0,1,14.663,33.158c2.779,7.972,5.086,16.138,7.256,24.327C322.425,305.379,319.435,289.63,318.127,284.17Zm-8.96-102.77c28.975,3.424,30.628,16.662,41.841,20.018a132.766,132.766,0,0,0-53.22-71.01c-8.624,20.393-36.511,44.312-46.415,73.508,15.2-23.814,41.724-49.965,44.49-56.275-2.826,10.139-20.749,31.056-23.911,39.34a26.352,26.352,0,0,0,2.855.257,253.3,253.3,0,0,1,36.1,3.9c8.308,1.582,16.545,3.671,24.732,5.889C329.717,188.288,314.558,183,309.167,181.4ZM67.19,230.578A156.841,156.841,0,0,1,100.91,142.7a47.679,47.679,0,0,1,7.383,3.473,148.98,148.98,0,0,0-32.928,81.378C72.626,228.451,69.9,229.461,67.19,230.578Zm70.029,141.213a158.175,158.175,0,0,1-59.272-73.13A47.293,47.293,0,0,1,84.642,294a150.211,150.211,0,0,0,54.047,69.193C138.095,366.013,137.6,368.886,137.219,371.791Zm157.329,9.961a156.98,156.98,0,0,1-70.06,16.388,158.669,158.669,0,0,1-22.93-1.659,47.58,47.58,0,0,1-.686-8.125,150.725,150.725,0,0,0,23.616,1.854,149.126,149.126,0,0,0,63.346-14.026Q291.058,379.071,294.549,381.752Zm87.24-131.271a156.874,156.874,0,0,1-33.718,87.875,47.6,47.6,0,0,1-7.381-3.471,149,149,0,0,0,32.922-81.378C376.351,252.611,379.084,251.6,381.789,250.481Zm-70.032-141.21A158.134,158.134,0,0,1,371.028,182.4a47.5,47.5,0,0,1-6.694,4.663,150.2,150.2,0,0,0-54.044-69.19C310.881,115.048,311.373,112.175,311.757,109.271Zm-87.268-26.35a158.959,158.959,0,0,1,22.936,1.66,47.293,47.293,0,0,1,.684,8.125,150.957,150.957,0,0,0-23.62-1.856,149.1,149.1,0,0,0-63.346,14.027q-3.224-2.887-6.713-5.569A156.969,156.969,0,0,1,224.489,82.921Zm-8.958,54.838c17.459-23.336,29.769-18.146,38.285-26.16A133.185,133.185,0,0,0,165.6,122.1c13.381,17.65,20.187,53.719,40.566,76.877-13.058-25.05-22.487-61.05-26.579-66.6,7.386,7.513,16.57,33.466,22.174,40.342a26,26,0,0,0,1.652-2.342,252.78,252.78,0,0,1,21.433-29.255c5.525-6.388,11.458-12.466,17.478-18.436C231.781,123.438,219.611,133.9,215.53,137.759Z" transform="translate(22.502 34.341)" fill="#fff" fill-rule="evenodd"/></g></g></svg>