<svg width="32" height="32" viewBox="0 0 32 32" fill="none" xmlns="http://www.w3.org/2000/svg">
<path fill-rule="evenodd" clip-rule="evenodd" d="M16 32C24.8366 32 32 24.8366 32 16C32 7.16344 24.8366 0 16 0C7.16344 0 0 7.16344 0 16C0 24.8366 7.16344 32 16 32ZM24.179 13.2348C25.5869 13.2348 26.7266 14.3745 26.7266 15.7824C26.7266 16.7209 26.2573 17.5254 25.4528 17.9277C25.5198 18.0618 25.5198 18.2629 25.5198 18.464C25.5198 20.2071 24.5142 21.8831 22.6371 23.0898C20.827 24.2295 18.4805 24.9 15.933 24.9C13.3854 24.9 11.039 24.2966 9.22886 23.0898C7.35171 21.8831 6.34609 20.2741 6.34609 18.464C6.34609 18.3635 6.36285 18.2629 6.37961 18.1623C6.39637 18.0618 6.41313 17.9612 6.41313 17.8606C5.74272 17.3914 5.27344 16.5869 5.27344 15.7153C5.27344 14.3075 6.41313 13.1678 7.821 13.1678C8.42437 13.1678 8.96069 13.3689 9.42998 13.7041C11.106 12.6985 13.3184 12.0951 15.5978 12.0281L17.0056 7.67041C17.0727 7.40225 17.4079 7.20112 17.676 7.26816L21.2292 8.1397C21.6314 7.46929 22.3689 7 23.1734 7C24.3801 7 25.3187 7.93857 25.3187 9.14531C25.3187 10.3521 24.3801 11.2906 23.1734 11.2906C22.0337 11.2906 21.0951 10.4191 21.0281 9.27939L18.0112 8.60898L16.8715 12.1622C19.0168 12.2292 21.0281 12.8326 22.57 13.8382C22.9723 13.4359 23.5756 13.2348 24.179 13.2348ZM24.179 9.14531C24.179 8.60898 23.7097 8.1397 23.1734 8.1397C22.6371 8.1397 22.1678 8.60898 22.1678 9.14531C22.1678 9.68164 22.6371 10.1509 23.1734 10.1509C23.7097 10.1509 24.179 9.68164 24.179 9.14531ZM12.8491 15.9165C12.0446 15.9165 11.3742 16.5869 11.3742 17.3914C11.3742 18.1959 12.0446 18.8663 12.8491 18.8663C13.6536 18.8663 14.324 18.1959 14.324 17.3914C14.324 16.5869 13.6536 15.9165 12.8491 15.9165ZM16 22.8217C17.676 22.8217 18.8157 22.4194 19.5532 21.682C19.7543 21.4138 19.7543 21.0786 19.4191 20.8775C19.218 20.6764 18.8157 20.6764 18.6146 20.8775C18.0783 21.3468 17.2067 21.6149 15.933 21.6149C14.6592 21.6149 13.7876 21.4138 13.2513 20.8775C13.0502 20.6764 12.6479 20.6764 12.4468 20.8775C12.2457 21.0786 12.2457 21.4809 12.4468 21.682C13.2513 22.4865 14.391 22.8217 16 22.8217ZM17.7431 17.3914C17.7431 18.1959 18.4135 18.8663 19.218 18.8663C20.0225 18.8663 20.6929 18.1959 20.6929 17.3914C20.6929 16.5869 20.0225 15.9165 19.218 15.9165C18.4135 15.9165 17.7431 16.5869 17.7431 17.3914Z" fill="#4E4F7F"/>
</svg>
