<svg width="32" height="32" viewBox="0 0 32 32" fill="none" xmlns="http://www.w3.org/2000/svg">
<path fill-rule="evenodd" clip-rule="evenodd" d="M16 32C24.8366 32 32 24.8366 32 16C32 7.16344 24.8366 0 16 0C7.16344 0 0 7.16344 0 16C0 24.8366 7.16344 32 16 32ZM15.1842 9.11171L16.5033 9.11178C17.9443 9.11178 19.3854 9.11178 20.8265 9.11148C21.0874 9.11148 21.3483 9.11128 21.6092 9.11107H21.6095C22.4356 9.11041 23.2617 9.10975 24.0877 9.11569C24.2432 9.11689 24.2745 9.06945 24.2724 8.92202C24.2645 8.33142 24.2659 7.74082 24.2718 7.15053C24.2733 7.02892 24.2352 6.998 24.1207 7.0001C23.8623 7.00485 23.6038 7.00401 23.3452 7.00316C23.2447 7.00283 23.1441 7.0025 23.0435 7.0025H8.92179C8.73143 7.0025 8.73114 7.0028 8.73114 7.19977C8.73105 7.36423 8.73145 7.52869 8.73185 7.69314V7.69315C8.73284 8.10426 8.73383 8.51532 8.7273 8.92623C8.72494 9.08176 8.77157 9.11539 8.91854 9.11509C11.0072 9.11137 13.0956 9.11154 15.1841 9.11171H15.1842H15.1842ZM8.73119 24.8041V24.9935C8.75592 24.9809 8.77637 24.9707 8.79404 24.9619C8.82298 24.9475 8.84448 24.9368 8.86518 24.9251L10.057 24.2479C12.1516 23.0577 14.2464 21.8675 16.3386 20.6735C16.4679 20.5996 16.5573 20.6194 16.6721 20.6849C19.0665 22.0501 21.4626 23.4133 23.8584 24.7761C23.9448 24.8253 24.0324 24.8723 24.1259 24.9225L24.1259 24.9225L24.1262 24.9227L24.1268 24.923C24.1728 24.9477 24.2203 24.9732 24.2698 25.0001V24.8038V15.3473C24.2698 15.1386 24.2698 15.1386 24.0626 15.1386H8.93985C8.73149 15.1386 8.73119 15.1386 8.73119 15.3476V24.8041ZM16.5028 11.0797H24.0574C24.269 11.0797 24.269 11.08 24.269 11.3004C24.269 11.4537 24.2687 11.6071 24.2683 11.7604C24.2674 12.1725 24.2665 12.5847 24.2723 12.9965C24.2743 13.1383 24.2307 13.1704 24.0982 13.1701C22.3543 13.1669 20.6102 13.1671 18.8662 13.1673L17.6355 13.1674H8.9302C8.73129 13.1674 8.73099 13.1671 8.73099 12.9632C8.73099 12.8098 8.7314 12.6563 8.73182 12.5028V12.5028C8.73293 12.0908 8.73404 11.6788 8.72715 11.2671C8.7245 11.1116 8.77231 11.0761 8.91869 11.0764C11.007 11.0801 13.0954 11.08 15.1837 11.0798L16.5028 11.0797Z" fill="#5D5FEF"/>
</svg>
