<svg width="32" height="32" viewBox="0 0 32 32" fill="none" xmlns="http://www.w3.org/2000/svg">
<path fill-rule="evenodd" clip-rule="evenodd" d="M16 32C24.8366 32 32 24.8366 32 16C32 7.16344 24.8366 0 16 0C7.16344 0 0 7.16344 0 16C0 24.8366 7.16344 32 16 32ZM24.358 8.14382C24.4078 8.19809 24.4423 8.2646 24.4579 8.33655C24.4889 8.46368 24.5019 8.59455 24.4963 8.72529C24.4956 8.79244 24.4903 8.857 24.4841 8.933C24.4799 8.98458 24.4753 9.04142 24.4713 9.10793C24.3665 10.7865 21.2542 23.3107 21.2542 23.3107C21.2542 23.3107 21.0714 24.0437 20.4012 24.0693C20.237 24.0747 20.0733 24.047 19.9201 23.9877C19.7668 23.9285 19.6271 23.8389 19.5092 23.7244C18.8067 23.1224 17.1774 21.9666 15.6633 20.9216C15.2069 21.3037 14.2966 22.0897 13.3479 23.0396C12.0099 24.38 12.1817 23.0396 12.1817 23.0396L12.5912 18.7434C12.589 18.7163 12.5933 18.689 12.6039 18.664C12.6146 18.639 12.6311 18.6169 12.6521 18.5996C12.6555 18.5963 12.7071 18.5501 12.7993 18.4677C13.8802 17.5007 20.5497 11.5343 20.7473 10.8572C20.7607 10.7963 20.6998 10.7713 20.6175 10.7963C20.0961 10.9876 11.1291 16.6494 10.0351 17.3401L10.0157 17.3524C9.94338 17.374 9.86704 17.3786 9.79267 17.3658L5.38987 15.9309C5.38987 15.9309 4.86465 15.7176 5.03343 15.2338C5.06816 15.1333 5.13823 15.0486 5.34905 14.9024C6.32454 14.2224 23.4075 8.08247 23.4075 8.08247C23.6537 7.99608 23.9186 7.97714 24.1746 8.02764C24.2449 8.04946 24.3082 8.08955 24.358 8.14382Z" fill="#4E4F7F"/>
</svg>
