<svg width="32" height="32" viewBox="0 0 32 32" fill="none" xmlns="http://www.w3.org/2000/svg">
<path fill-rule="evenodd" clip-rule="evenodd" d="M16 32C24.8366 32 32 24.8366 32 16C32 7.16344 24.8366 0 16 0C7.16344 0 0 7.16344 0 16C0 24.8366 7.16344 32 16 32ZM24.4154 11.5231C25.2769 11.4615 26.0154 11.2154 26.7538 10.9077C26.2 11.7077 25.5231 12.3846 24.7846 13V13.4923C24.7846 18.8462 20.7231 25 13.2769 25C11 25 8.84615 24.3231 7 23.2154C7.30769 23.2769 7.67692 23.2769 7.98462 23.2769C9.89231 23.2769 11.6769 22.6615 13.0308 21.5538C11.3077 21.4923 9.76923 20.3231 9.27692 18.7231C9.52308 18.7846 9.76923 18.7846 10.0154 18.7846C10.3377 18.7846 10.6132 18.7377 10.9236 18.6849C10.9687 18.6772 11.0146 18.6694 11.0615 18.6615C9.21538 18.2923 7.8 16.6923 7.8 14.7231V14.6615C8.35385 14.9692 8.96923 15.1538 9.64615 15.1538C8.6 14.4154 7.86154 13.1846 7.86154 11.7692C7.86154 11.0308 8.04615 10.3538 8.41538 9.73846C10.4462 12.2 13.4 13.8 16.7846 13.9846C16.7231 13.6769 16.6615 13.3692 16.6615 13.0615C16.6615 10.7846 18.5077 9 20.7231 9C21.8308 9 22.8769 9.49231 23.6154 10.2923C24.5385 10.1077 25.4 9.8 26.2 9.30769C25.8923 10.2308 25.2769 11.0308 24.4154 11.5231Z" fill="#5D5FEF"/>
</svg>
