<?xml version="1.0" encoding="utf-8"?>
<!-- Generator: Adobe Illustrator 23.1.0, SVG Export Plug-In . SVG Version: 6.00 Build 0)  -->
<svg version="1.1" id="Layer_1" xmlns="http://www.w3.org/2000/svg" xmlns:xlink="http://www.w3.org/1999/xlink" x="0px"
    y="0px" viewBox="0 0 107.3 47.6" style="enable-background:new 0 0 107.3 47.6;" xml:space="preserve">
    <style type="text/css">
        .st0 {
            fill: #A4223C;
        }

        .st1 {
            fill: url(#Path_7006_1_);
        }

        .st2 {
            opacity: 0.83;
            enable-background: new;
        }

        .st3 {
            fill: #580C48;
        }

        .st4 {
            fill: url(#SVGID_1_);
        }

        .st5 {
            opacity: 0.61;
            fill: url(#SVGID_2_);
            enable-background: new;
        }

        .st6 {
            opacity: 0.61;
            fill: url(#SVGID_3_);
            enable-background: new;
        }

        .st7 {
            opacity: 0.61;
            fill: url(#SVGID_4_);
            enable-background: new;
        }

        .st8 {
            opacity: 0.61;
            fill: url(#SVGID_5_);
            enable-background: new;
        }

        .st9 {
            opacity: 0.61;
            fill: url(#SVGID_6_);
            enable-background: new;
        }

        .st10 {
            opacity: 0.61;
            fill: url(#SVGID_7_);
            enable-background: new;
        }

        .st11 {
            opacity: 0.61;
            fill: url(#SVGID_8_);
            enable-background: new;
        }

        .st12 {
            opacity: 0.61;
            fill: url(#SVGID_9_);
            enable-background: new;
        }

        .st13 {
            fill: url(#SVGID_10_);
        }

        .st14 {
            opacity: 0.61;
            fill: url(#SVGID_11_);
            enable-background: new;
        }

        .st15 {
            opacity: 0.62;
            fill: url(#SVGID_12_);
            enable-background: new;
        }

        .st16 {
            opacity: 0.62;
            fill: url(#SVGID_13_);
            enable-background: new;
        }

        .st17 {
            opacity: 0.78;
            fill: url(#SVGID_14_);
            enable-background: new;
        }

        .st18 {
            opacity: 0.62;
            fill: url(#SVGID_15_);
            enable-background: new;
        }

        .st19 {
            fill: #262261;
        }

        .st20 {
            fill: #892759;
        }

        .st21 {
            fill: url(#SVGID_16_);
        }

        .st22 {
            fill: #E76F81;
        }

        .st23 {
            fill: #A82671;
        }

        .st24 {
            fill: url(#SVGID_17_);
        }

        .st25 {
            fill: #FFFFFF;
        }

        .st26 {
            fill: #312F68;
        }

        .st27 {
            opacity: 0.56;
            fill: url(#SVGID_18_);
            enable-background: new;
        }

        .st28 {
            fill: #977280;
        }

        .st29 {
            opacity: 0.47;
            fill: #E6E7E8;
            enable-background: new;
        }

        .st30 {
            fill: #7D1854;
        }

        .st31 {
            fill: #69505C;
        }

        .st32 {
            fill: #6966AB;
        }

        .st33 {
            opacity: 0.18;
        }

        .st34 {
            fill: #F9CDD4;
        }

        .st35 {
            opacity: 0.35;
            enable-background: new;
        }

        .st36 {
            fill: #C2242D;
        }

        .st37 {
            fill: #080018;
        }

        .st38 {
            opacity: 0.58;
            fill: url(#SVGID_19_);
            enable-background: new;
        }

        .st39 {
            fill: url(#SVGID_20_);
        }

        .st40 {
            fill: url(#SVGID_21_);
        }

        .st41 {
            fill: #0B0018;
        }

        .st42 {
            fill: #CB5474;
        }

        .st43 {
            opacity: 0.75;
            fill: url(#SVGID_22_);
            enable-background: new;
        }

        .st44 {
            opacity: 0.33;
        }

        .st45 {
            fill: #231F20;
        }

        .st46 {
            opacity: 0.58;
            fill: url(#SVGID_23_);
            enable-background: new;
        }

        .st47 {
            fill: url(#SVGID_24_);
        }

        .st48 {
            fill: url(#SVGID_25_);
        }

        .st49 {
            fill: #EF7D92;
        }

        .st50 {
            fill: #F497A9;
        }

        .st51 {
            fill: #F3A095;
        }

        .st52 {
            opacity: 0.6;
            fill: url(#SVGID_26_);
            enable-background: new;
        }

        .st53 {
            fill: #4F0B31;
        }

        .st54 {
            opacity: 0.23;
            fill: url(#SVGID_27_);
            enable-background: new;
        }

        .st55 {
            opacity: 0.94;
        }

        .st56 {
            fill: url(#SVGID_28_);
        }

        .st57 {
            opacity: 0.24;
            fill: #541223;
            enable-background: new;
        }

        .st58 {
            opacity: 0.2;
            fill: #FFFFFF;
            enable-background: new;
        }

        .st59 {
            opacity: 0.75;
            fill: url(#SVGID_29_);
            enable-background: new;
        }

        .st60 {
            opacity: 0.75;
            fill: url(#SVGID_30_);
            enable-background: new;
        }
    </style>
    <title>Jelly logo</title>
    <g>
        <g id="Layer_1-2">
            <g id="Group_576">
                <g id="Group_604">
                    <path id="Path_6997" class="st0" d="M58.4,10.6H61v8.5c0,0.6-0.1,1.1-0.3,1.7c-0.2,0.5-0.5,0.9-0.9,1.2
					c-0.4,0.3-0.8,0.6-1.3,0.8S57.4,23,56.9,23c-0.6,0-1.1-0.1-1.7-0.2c-0.5-0.1-0.9-0.4-1.3-0.7c-0.4-0.3-0.7-0.7-0.9-1.2
					s-0.3-1.1-0.3-1.7h2.5c0,0.3,0,0.6,0.1,0.8c0.1,0.2,0.2,0.4,0.3,0.5s0.3,0.2,0.5,0.3c0.2,0.1,0.4,0.1,0.6,0.1
					c0.4,0,0.9-0.2,1.2-0.5c0.3-0.4,0.5-0.9,0.4-1.4v-8.4H58.4z" />
                    <path id="Path_6998" class="st0" d="M67.2,23c-0.7,0-1.3-0.1-1.9-0.3c-1.1-0.4-1.9-1.3-2.3-2.4c-0.2-0.6-0.3-1.1-0.3-1.7v-0.3
					c0-0.7,0.1-1.3,0.3-1.9c0.2-0.5,0.5-1.1,0.9-1.5c0.4-0.4,0.8-0.7,1.3-1c0.6-0.2,1.2-0.4,1.8-0.3c0.6,0,1.2,0.1,1.7,0.3
					s0.9,0.5,1.3,0.9s0.6,0.9,0.8,1.5c0.2,0.6,0.3,1.2,0.3,1.8v1.1h-5.8c0,0.3,0.1,0.6,0.2,0.8c0.1,0.2,0.3,0.4,0.5,0.6
					s0.4,0.3,0.7,0.4c0.3,0.1,0.6,0.2,0.9,0.1c0.4,0,0.8-0.1,1.2-0.2c0.4-0.2,0.7-0.4,1-0.8l1.2,1.3c-0.2,0.2-0.3,0.4-0.6,0.6
					c-0.2,0.2-0.5,0.4-0.8,0.5c-0.3,0.2-0.6,0.3-1,0.4C68,23,67.6,23.1,67.2,23z M66.9,15.6c-0.2,0-0.5,0-0.7,0.1s-0.4,0.2-0.5,0.4
					c-0.1,0.2-0.3,0.4-0.3,0.6c-0.1,0.3-0.2,0.5-0.2,0.8h3.4v-0.2c0-0.2,0-0.5-0.1-0.7s-0.2-0.4-0.3-0.5c-0.1-0.2-0.3-0.3-0.5-0.4
					C67.4,15.6,67.1,15.6,66.9,15.6L66.9,15.6z" />
                    <path id="Path_6999" class="st0" d="M74.9,22.9h-2.4v-13h2.4V22.9z" />
                    <path id="Path_7000" class="st0" d="M79.5,22.9H77v-13h2.4L79.5,22.9L79.5,22.9z" />
                    <path id="Path_7001" class="st0" d="M84.9,19.4l1.7-5.7h2.6l-3.7,10.5c-0.1,0.3-0.2,0.5-0.3,0.7c-0.1,0.3-0.3,0.5-0.5,0.8
					c-0.2,0.2-0.5,0.4-0.8,0.6c-0.4,0.2-0.8,0.2-1.2,0.2h-0.3H82h-0.3l-0.3-0.1v-1.8h0.2c0.1,0,0.1,0,0.2,0c0.2,0,0.4,0,0.6,0
					s0.3-0.1,0.4-0.2s0.2-0.2,0.3-0.3c0.1-0.1,0.2-0.3,0.2-0.4l0.3-0.7l-3.2-9.1H83L84.9,19.4z" />
                    <path id="Path_7002" class="st0" d="M73.8,37.5c0-0.4-0.1-0.7-0.2-1c-0.2-0.3-0.4-0.6-0.6-0.8c-0.4-0.3-0.8-0.5-1.2-0.7
					c-0.6-0.2-1.2-0.4-1.8-0.6c-0.6-0.2-1.1-0.3-1.7-0.5c-0.5-0.2-0.9-0.4-1.3-0.7c-0.3-0.2-0.6-0.5-0.8-0.9
					c-0.2-0.4-0.3-0.8-0.3-1.3c0-0.4,0.1-0.9,0.3-1.3c0.2-0.4,0.5-0.7,0.9-1s0.8-0.5,1.3-0.6s1.1-0.2,1.6-0.2c0.6,0,1.1,0.1,1.6,0.3
					c0.5,0.2,0.9,0.4,1.3,0.7c0.4,0.3,0.6,0.7,0.8,1.1c0.2,0.5,0.3,1,0.3,1.5h-0.5c0-0.4-0.1-0.9-0.3-1.3c-0.2-0.4-0.4-0.7-0.7-1
					c-0.3-0.3-0.7-0.5-1.1-0.7c-0.5-0.2-1-0.3-1.5-0.2c-0.5,0-1,0.1-1.5,0.2c-0.4,0.1-0.8,0.3-1.1,0.6c-0.3,0.2-0.5,0.5-0.7,0.8
					s-0.2,0.6-0.2,1c0,0.3,0.1,0.6,0.2,0.9s0.3,0.6,0.6,0.8c0.3,0.3,0.7,0.5,1.1,0.7c0.6,0.3,1.2,0.5,1.8,0.6
					c0.6,0.2,1.1,0.3,1.7,0.5c0.5,0.2,0.9,0.4,1.3,0.7s0.6,0.6,0.9,1c0.4,0.8,0.4,1.8,0,2.7c-0.2,0.4-0.5,0.7-0.9,1
					s-0.8,0.5-1.3,0.6s-1.1,0.2-1.6,0.2c-0.4,0-0.7,0-1.1-0.1s-0.7-0.1-1-0.3c-0.3-0.1-0.7-0.3-1-0.4c-0.6-0.4-1.1-1-1.3-1.6
					c-0.1-0.4-0.2-0.8-0.2-1.2h0.5c0,0.4,0,0.7,0.2,1.1c0.1,0.3,0.3,0.6,0.5,0.8s0.4,0.4,0.7,0.6c0.3,0.2,0.6,0.3,0.9,0.4
					c0.3,0.1,0.6,0.2,0.9,0.2s0.6,0.1,1,0.1c0.5,0,1-0.1,1.5-0.2c0.4-0.1,0.8-0.3,1.1-0.5c0.3-0.2,0.6-0.5,0.8-0.8
					C73.7,38.3,73.8,37.9,73.8,37.5z" />
                    <path id="Path_7003" class="st0" d="M78.1,37.8l0.5,1.9l0.6-1.9l2-6.5h0.5l2,6.5l0.6,1.9l0.5-1.9l1.9-6.5h0.5l-2.7,9.1H84
					l-2.3-6.9L81.5,32L81,33.6l-2.2,6.9h-0.5l-2.6-9.1h0.6L78.1,37.8z" />
                    <path id="Path_7004" class="st0" d="M95.4,40.5c-0.1-0.3-0.1-0.5-0.1-0.8s0-0.6,0-0.9c-0.3,0.5-0.8,1-1.4,1.3
					c-0.3,0.2-0.6,0.3-1,0.4c-0.4,0.1-0.8,0.2-1.2,0.2c-0.4,0-0.8-0.1-1.2-0.2c-0.3-0.1-0.6-0.3-0.9-0.5c-0.5-0.4-0.8-1.1-0.8-1.8
					c0-0.4,0.1-0.8,0.3-1.1c0.2-0.4,0.5-0.7,0.8-0.9c0.4-0.3,0.9-0.5,1.3-0.6c0.6-0.1,1.2-0.2,1.8-0.2h2.2v-1.3
					c0-0.7-0.2-1.3-0.7-1.8c-0.6-0.5-1.3-0.7-2.1-0.6c-0.4,0-0.8,0.1-1.2,0.2c-0.3,0.1-0.7,0.3-1,0.5c-0.3,0.2-0.5,0.4-0.6,0.7
					c-0.2,0.3-0.2,0.6-0.2,0.9H89c0-0.3,0.1-0.7,0.3-1c0.2-0.3,0.4-0.6,0.7-0.9c0.3-0.3,0.7-0.5,1.1-0.6s0.9-0.2,1.4-0.2
					c0.4,0,0.9,0.1,1.3,0.2s0.7,0.3,1,0.5c0.3,0.3,0.5,0.6,0.7,0.9c0.2,0.4,0.2,0.8,0.2,1.3v4.6c0,0.2,0,0.3,0,0.5s0,0.3,0,0.5
					s0,0.3,0.1,0.4c0,0.1,0,0.2,0.1,0.3l0,0H95.4z M91.6,40.2c0.4,0,0.8,0,1.2-0.1c0.7-0.2,1.3-0.6,1.8-1.1c0.2-0.3,0.4-0.6,0.6-0.9
					v-2.2h-2.1c-0.5,0-1.1,0.1-1.6,0.2c-0.4,0.1-0.8,0.3-1.2,0.5c-0.3,0.2-0.6,0.4-0.8,0.7c-0.3,0.5-0.3,1.2-0.1,1.7
					c0.1,0.2,0.3,0.5,0.5,0.6c0.2,0.2,0.5,0.3,0.7,0.4C91,40.1,91.3,40.2,91.6,40.2L91.6,40.2z" />
                    <path id="Path_7005" class="st0" d="M105.6,36c0,0.7-0.1,1.3-0.2,1.9c-0.1,0.5-0.4,1-0.7,1.5c-0.6,0.8-1.5,1.3-2.5,1.3
					c-0.3,0-0.7,0-1-0.1s-0.6-0.2-0.9-0.3s-0.5-0.3-0.7-0.5s-0.4-0.4-0.5-0.6V44h-0.5V31.4h0.5V33c0.1-0.3,0.3-0.5,0.5-0.7
					s0.4-0.4,0.7-0.6c0.3-0.2,0.6-0.3,0.9-0.4s0.7-0.1,1-0.1c0.5,0,1,0.1,1.5,0.3c0.4,0.2,0.8,0.5,1.1,0.9c0.3,0.4,0.5,0.9,0.7,1.5
					C105.5,34.6,105.6,35.3,105.6,36L105.6,36z M105.1,35.8c0-0.6-0.1-1.1-0.2-1.7c-0.1-0.5-0.3-0.9-0.5-1.3c-0.2-0.4-0.6-0.7-1-0.9
					c-0.4-0.2-0.9-0.3-1.3-0.3s-0.8,0.1-1.2,0.2c-0.6,0.2-1.2,0.7-1.5,1.3c-0.1,0.3-0.3,0.5-0.4,0.8v4.3c0.1,0.3,0.3,0.6,0.4,0.8
					c0.2,0.2,0.4,0.5,0.7,0.6c0.3,0.2,0.6,0.3,0.9,0.4c0.4,0.1,0.8,0.2,1.1,0.1c0.9,0,1.8-0.4,2.2-1.2c0.3-0.4,0.4-0.9,0.6-1.3
					C105,37,105.1,36.5,105.1,35.8L105.1,35.8z" />
                </g>
                <g id="Group_643">

                    <radialGradient id="Path_7006_1_" cx="-3033.3884" cy="252.6441" r="0.5712"
                        gradientTransform="matrix(47.61 -1.29 -1.3 -48.26 144774.6094 8310.0293)"
                        gradientUnits="userSpaceOnUse">
                        <stop offset="0.37" style="stop-color:#BAD68E" />
                        <stop offset="0.86" style="stop-color:#6DCDF6" />
                    </radialGradient>
                    <path id="Path_7006" class="st1" d="M47.5,30.2L33.2,45.3c-1.3,1.4-3.3,1.9-5.1,1.4l-16.5-5.2c-1.4-0.4-2.5-1.5-3-2.8l-6-16.1
					c-0.7-1.8-0.2-3.8,1.1-5.1L18,2.3c1.3-1.4,3.2-1.9,5.1-1.4l16.4,5.2c1.3,0.4,2.4,1.5,2.9,2.8L48.5,25
					C49.1,26.8,48.8,28.8,47.5,30.2z" />
                    <g>
                        <path class="st2" d="M47.9,39.7L47.9,39.7L47.9,39.7c-0.3,0.5-0.9,0.9-1.7,1.1c-0.5,0.1-1.1,0.2-1.7,0.2
						c-2.9-0.1-3.6-0.3-4.9-0.1c-1.1,0.1-2.5,1.1-3,1.4l0,0c-0.1,0-0.1,0-0.1,0.1l0,0c-2.6,0.1-3.3-1.1-5.6-1.3
						c-1.8-0.2-5.7,1.2-7.7,1.6c-1.4,0.3-0.9-0.8-3.1-0.3c-0.2,0.1-1.2-0.1-2.3-0.1c-0.3,0-0.6,0-0.9,0.1l0,0
						c-0.2,0-0.4,0.1-0.7,0.1c-0.4,0.1-0.8,0.2-1.1,0.4s-0.6,0.3-1,0.4c-0.8,0.3-1.6,0.3-2.1,0.2l0,0c-0.2,0-0.3-0.1-0.4-0.3l0,0
						c-0.1-0.3-0.2-0.6-0.3-0.9l0,0C11.1,42.1,11,42,11,41.9l0,0c-0.2-0.2-0.5-0.3-0.9-0.2c-0.6,0.2-1.3,0.4-2,0.5l0,0
						c-1.5,0.2-3.1,0.3-4.5-0.3l0,0c-0.6-0.3-1.2-0.7-1.5-1.3c-0.2-0.5-0.2-1.1,0-1.7l0,0c0.1-0.3,0.2-0.6,0.4-0.8
						c0.2-0.3,0.4-0.5,0.7-0.6l0,0c0.1,0,0.1,0,0.2-0.1c0.1,0,0.2,0,0.2-0.1C3.9,37,3.3,35.6,5.4,35c0.1,0,0.1,0,0.1,0
						c0.1,0,0.1,0,0.1,0s0,0,0.1,0c0.2-0.1,0.3-0.5,0.5-2.2c0-0.1,0.1-0.1,0.1-0.2l0,0C6.4,32,6.5,31.5,6.6,31
						c0.1-0.3,0.1-0.5,0.2-0.8c0.4-1.2,0.9-2.4,1.5-3.5v-0.1c-0.3-2.8,0.8-1.3,1.1-3.1c0.5-2.6,4.8-9,4.8-9s8.1,0.4,9.9-6.3l0,0
						c0.2-0.8,0.3-1.7,0.4-2.5l0,0l0,0l0,0c2.4-0.8,3.5,0.2,3.9,0.8l0,0c0,0.1,0.1,0.1,0.1,0.2c0,0,0,0,0,0.1l0,0
						c0.1,0.1,0.1,0.1,0.2,0c1-0.7,2.1-0.4,3.1,0.5h0.1H32l0,0l0.1,0.1l0,0l0,0l0,0c1.5,1.5,3,4.1,4.3,6.8c0,0,0,0.1,0.1,0.1l0,0
						c1.3,2.9,1.7,5.9,2,6.9c0.1,0.2,1,1.8,1.1,2c0.2,2,1.1,5,2.2,7.1l0.2,0.4l0,0c0.7,1.6,1.6,3,2.2,3.3c0.3,0.2,0.5,0.4,0.7,0.6
						c0,0.1,0.1,0.2,0.1,0.3c0,0.2,0.2,0.3,0.3,0.4c0.1,0.2,0.1,0.3,0.2,0.5c0,0.1,0.1,0.2,0.1,0.4s0.1,0.3,0.2,0.4c0,0,0,0,0.1,0
						c0.4,0.1,1.2,0.3,1.6,0.9c0.1,0.1,0.2,0.3,0.3,0.4l0,0c0.1,0.2,0.2,0.4,0.2,0.7l0,0c0,0.1,0,0.1,0,0.1
						C48.1,39.2,48,39.5,47.9,39.7z" />
                        <path class="st3" d="M27.3,5.4C27.3,5.4,27.2,5.3,27.3,5.4C27.2,5.3,27.3,5.4,27.3,5.4z" />
                        <path class="st3" d="M27.4,5.6c-0.1-0.1-0.1-0.1-0.1-0.2C27.3,5.5,27.4,5.5,27.4,5.6z" />
                        <path class="st3" d="M27.9,6L27.9,6L27.9,6z" />
                        <path class="st3" d="M27.9,6L27.9,6L27.9,6z" />
                        <path class="st3" d="M27.9,6L27.9,6L27.9,6L27.9,6L27.9,6z" />
                        <path class="st3" d="M28,6L28,6L28,6L28,6z" />
                        <path class="st3" d="M28.3,6.2L28.3,6.2L28.3,6.2L28.3,6.2L28.3,6.2z" />
                        <path class="st3" d="M28.4,6.4L28.4,6.4L28.4,6.4z" />
                        <path class="st3" d="M29,7.2L29,7.2C29.1,7.3,29,7.3,29,7.2z" />

                        <radialGradient id="SVGID_1_" cx="28.1" cy="-956.1" r="0"
                            gradientTransform="matrix(1 0 0 -1 0 -950)" gradientUnits="userSpaceOnUse">
                            <stop offset="0.48" style="stop-color:#D04C5E;stop-opacity:0.5" />
                            <stop offset="0.57" style="stop-color:#C44860;stop-opacity:0.45" />
                            <stop offset="0.73" style="stop-color:#A33F66;stop-opacity:0.31" />
                            <stop offset="0.93" style="stop-color:#6F306F;stop-opacity:8.000000e-02" />
                            <stop offset="1" style="stop-color:#5B2A73;stop-opacity:0" />
                        </radialGradient>
                        <path class="st4" d="M28.1,6.1L28.1,6.1z" />

                        <radialGradient id="SVGID_2_" cx="27.2498" cy="-955.3528" r="6.247442e-02"
                            gradientTransform="matrix(1 0 0 -1 0 -950)" gradientUnits="userSpaceOnUse">
                            <stop offset="0.24" style="stop-color:#FFFFFF;stop-opacity:0" />
                            <stop offset="0.35" style="stop-color:#E7B9BB;stop-opacity:0.23" />
                            <stop offset="0.47" style="stop-color:#D27D7F;stop-opacity:0.44" />
                            <stop offset="0.59" style="stop-color:#C14D51;stop-opacity:0.6" />
                            <stop offset="0.71" style="stop-color:#B52B2F;stop-opacity:0.71" />
                            <stop offset="0.83" style="stop-color:#AE171C;stop-opacity:0.78" />
                            <stop offset="0.96" style="stop-color:#AC1015;stop-opacity:0.8" />
                        </radialGradient>
                        <path class="st5" d="M27.2,5.3C27.2,5.4,27.3,5.4,27.2,5.3C27.3,5.4,27.2,5.3,27.2,5.3z" />

                        <radialGradient id="SVGID_3_" cx="27.3595" cy="-955.4842" r="0.1173"
                            gradientTransform="matrix(1 0 0 -1 0 -950)" gradientUnits="userSpaceOnUse">
                            <stop offset="0.24" style="stop-color:#FFFFFF;stop-opacity:0" />
                            <stop offset="0.35" style="stop-color:#E7B9BB;stop-opacity:0.23" />
                            <stop offset="0.47" style="stop-color:#D27D7F;stop-opacity:0.44" />
                            <stop offset="0.59" style="stop-color:#C14D51;stop-opacity:0.6" />
                            <stop offset="0.71" style="stop-color:#B52B2F;stop-opacity:0.71" />
                            <stop offset="0.83" style="stop-color:#AE171C;stop-opacity:0.78" />
                            <stop offset="0.96" style="stop-color:#AC1015;stop-opacity:0.8" />
                        </radialGradient>
                        <path class="st6" d="M27.3,5.4c0.1,0.1,0.1,0.1,0.1,0.2C27.4,5.5,27.3,5.5,27.3,5.4z" />

                        <radialGradient id="SVGID_4_" cx="27.9" cy="-956" r="0"
                            gradientTransform="matrix(1 0 0 -1 0 -950)" gradientUnits="userSpaceOnUse">
                            <stop offset="0.24" style="stop-color:#FFFFFF;stop-opacity:0" />
                            <stop offset="0.35" style="stop-color:#E7B9BB;stop-opacity:0.23" />
                            <stop offset="0.47" style="stop-color:#D27D7F;stop-opacity:0.44" />
                            <stop offset="0.59" style="stop-color:#C14D51;stop-opacity:0.6" />
                            <stop offset="0.71" style="stop-color:#B52B2F;stop-opacity:0.71" />
                            <stop offset="0.83" style="stop-color:#AE171C;stop-opacity:0.78" />
                            <stop offset="0.96" style="stop-color:#AC1015;stop-opacity:0.8" />
                        </radialGradient>
                        <path class="st7" d="M27.9,6L27.9,6L27.9,6z" />

                        <radialGradient id="SVGID_5_" cx="27.9" cy="-955.9" r="0"
                            gradientTransform="matrix(1 0 0 -1 0 -950)" gradientUnits="userSpaceOnUse">
                            <stop offset="0.24" style="stop-color:#FFFFFF;stop-opacity:0" />
                            <stop offset="0.35" style="stop-color:#E7B9BB;stop-opacity:0.23" />
                            <stop offset="0.47" style="stop-color:#D27D7F;stop-opacity:0.44" />
                            <stop offset="0.59" style="stop-color:#C14D51;stop-opacity:0.6" />
                            <stop offset="0.71" style="stop-color:#B52B2F;stop-opacity:0.71" />
                            <stop offset="0.83" style="stop-color:#AE171C;stop-opacity:0.78" />
                            <stop offset="0.96" style="stop-color:#AC1015;stop-opacity:0.8" />
                        </radialGradient>
                        <path class="st8" d="M27.9,5.9L27.9,5.9L27.9,5.9z" />

                        <radialGradient id="SVGID_6_" cx="27.9" cy="-956" r="0"
                            gradientTransform="matrix(1 0 0 -1 0 -950)" gradientUnits="userSpaceOnUse">
                            <stop offset="0.24" style="stop-color:#FFFFFF;stop-opacity:0" />
                            <stop offset="0.35" style="stop-color:#E7B9BB;stop-opacity:0.23" />
                            <stop offset="0.47" style="stop-color:#D27D7F;stop-opacity:0.44" />
                            <stop offset="0.59" style="stop-color:#C14D51;stop-opacity:0.6" />
                            <stop offset="0.71" style="stop-color:#B52B2F;stop-opacity:0.71" />
                            <stop offset="0.83" style="stop-color:#AE171C;stop-opacity:0.78" />
                            <stop offset="0.96" style="stop-color:#AC1015;stop-opacity:0.8" />
                        </radialGradient>
                        <path class="st9" d="M27.9,6L27.9,6L27.9,6L27.9,6L27.9,6z" />

                        <radialGradient id="SVGID_7_" cx="28" cy="-956.1" r="0"
                            gradientTransform="matrix(1 0 0 -1 0 -950)" gradientUnits="userSpaceOnUse">
                            <stop offset="0.24" style="stop-color:#FFFFFF;stop-opacity:0" />
                            <stop offset="0.35" style="stop-color:#E7B9BB;stop-opacity:0.23" />
                            <stop offset="0.47" style="stop-color:#D27D7F;stop-opacity:0.44" />
                            <stop offset="0.59" style="stop-color:#C14D51;stop-opacity:0.6" />
                            <stop offset="0.71" style="stop-color:#B52B2F;stop-opacity:0.71" />
                            <stop offset="0.83" style="stop-color:#AE171C;stop-opacity:0.78" />
                            <stop offset="0.96" style="stop-color:#AC1015;stop-opacity:0.8" />
                        </radialGradient>
                        <path class="st10" d="M28,6.1L28,6.1L28,6.1L28,6.1L28,6.1L28,6.1z" />

                        <radialGradient id="SVGID_8_" cx="28.1" cy="-956.1" r="0"
                            gradientTransform="matrix(1 0 0 -1 0 -950)" gradientUnits="userSpaceOnUse">
                            <stop offset="0.24" style="stop-color:#FFFFFF;stop-opacity:0" />
                            <stop offset="0.35" style="stop-color:#E7B9BB;stop-opacity:0.23" />
                            <stop offset="0.47" style="stop-color:#D27D7F;stop-opacity:0.44" />
                            <stop offset="0.59" style="stop-color:#C14D51;stop-opacity:0.6" />
                            <stop offset="0.71" style="stop-color:#B52B2F;stop-opacity:0.71" />
                            <stop offset="0.83" style="stop-color:#AE171C;stop-opacity:0.78" />
                            <stop offset="0.96" style="stop-color:#AC1015;stop-opacity:0.8" />
                        </radialGradient>
                        <path class="st11" d="M28.1,6.1L28.1,6.1L28.1,6.1L28.1,6.1z" />

                        <radialGradient id="SVGID_9_" cx="28.2" cy="-956.2" r="0"
                            gradientTransform="matrix(1 0 0 -1 0 -950)" gradientUnits="userSpaceOnUse">
                            <stop offset="0.24" style="stop-color:#FFFFFF;stop-opacity:0" />
                            <stop offset="0.35" style="stop-color:#E7B9BB;stop-opacity:0.23" />
                            <stop offset="0.47" style="stop-color:#D27D7F;stop-opacity:0.44" />
                            <stop offset="0.59" style="stop-color:#C14D51;stop-opacity:0.6" />
                            <stop offset="0.71" style="stop-color:#B52B2F;stop-opacity:0.71" />
                            <stop offset="0.83" style="stop-color:#AE171C;stop-opacity:0.78" />
                            <stop offset="0.96" style="stop-color:#AC1015;stop-opacity:0.8" />
                        </radialGradient>
                        <path class="st12" d="M28.2,6.2L28.2,6.2L28.2,6.2L28.2,6.2z" />
                        <path class="st3" d="M47.9,39C47.9,39.1,47.9,39.1,47.9,39c0,0.2-0.1,0.2-0.1,0.3c0,0,0,0,0,0.1l0,0c-0.1,0.2-0.2,0.3-0.3,0.4
						c0,0,0,0-0.1,0.1L47.3,40l0,0l0,0c-0.2,0.1-0.4,0.3-0.6,0.3l0,0l0,0l0,0l0,0c-0.5,0.2-1.1,0.3-1.6,0.2h-0.4h-0.3l0,0
						c-0.6,0-1.2,0-1.8,0h-0.3H42h-0.1h-0.2h-0.1h-0.2h-0.1h-0.2H41h0l0,0h-0.1h-0.1h-0.1h-0.1h-0.1h-0.2H40h-0.1l0,0h-0.1
						c-0.2,0-0.3,0-0.4,0c-0.3,0-0.6,0.1-0.8,0.3c-0.6,0.4-1.3,0.6-2,0.8l0,0l-0.2,0.1l0,0c-2.4,0.7-4.2,0.1-4.2,0.1
						c-5.8-0.7-6.7-0.5-8.7,0.2c-2,0.6-2.8-0.5-4-0.2l0,0c-0.9,0.2-2,0-2.5-0.1c-0.1,0-0.1,0-0.2,0l0,0c-0.2,0-0.4,0-0.6,0.1l0,0
						c-1.4,0.6-2.4,1-3.1,1.1l0,0c-0.5,0.1-0.8,0-1.1-0.1l0,0c-0.1-0.1-0.3-0.2-0.4-0.3c-0.2-0.3-0.3-0.7-0.3-0.9l0,0c0,0,0,0,0-0.1
						s-0.1-0.1-0.1-0.2l0,0l0,0l0,0l0,0l0,0l0,0l0,0l0,0h-0.1c-0.6-0.3-1.6,0.2-2.3,0.3c-0.1,0-0.3,0-0.4,0.1l0,0
						C7.3,41.9,6.7,42,6,42H5.9c-0.1,0-0.2,0-0.3,0l0,0c-0.1,0-0.2,0-0.3,0H5.2H5H4.9c-0.1,0-0.2,0-0.3-0.1H4.5H4.3H4.2
						c-0.1,0-0.1,0-0.2-0.1H3.9H3.8H3.7H3.6H3.5l0,0l0,0l0,0H3.4l0,0l0,0l0,0c-0.1,0-0.1-0.1-0.2-0.1l0,0l-0.1-0.1l0,0
						c-0.1-0.1-0.2-0.1-0.3-0.2l0,0l0,0l0,0l0,0l0,0l0,0l0,0l0,0l-0.1-0.1l-0.1-0.1l0,0l0,0l0,0l0,0l0,0l0,0c0,0,0-0.1-0.1-0.1
						c0,0,0-0.1-0.1-0.1l0,0v-0.1l0,0c0,0,0-0.1-0.1-0.1l0,0v-0.1v-0.1v-0.1l0,0l0,0l0,0l0,0c0-0.1-0.1-0.2-0.1-0.3l0,0l0,0v-0.1V40
						v-0.1l0,0v-0.1c0-0.4,0-0.7,0.1-1v-0.1c0-0.1,0-0.1,0.1-0.2v-0.1v-0.1l0,0c0,0,0-0.1,0.1-0.1l0,0l0.1-0.1L2.7,38l0.1-0.1
						c0,0,0,0,0.1-0.1v-0.1l0,0l0,0c0.2-0.2,0.4-0.3,0.6-0.4c0.1,0,0.1,0,0.1,0c0.1,0,0.2,0,0.2-0.1c0.3-0.3,0.1-1.1,0.7-1.7l0,0
						l0.1-0.1l0.1-0.1l0,0h0.1c0,0,0.1,0,0.1-0.1s0.1,0,0.1-0.1h0.1c0,0,0.1,0,0.1-0.1h0.1c0,0,0.1,0,0.1-0.1h0.1h0.1h0.1h0.1l0,0
						h0.1l0,0l0,0l0,0l0,0l0,0l0,0H6l0,0h0.1h0.1l0,0l0,0l0,0c0.2-0.2,0.2-0.6,0.5-2.2c0.4-2.8,2.1-5.9,2.1-5.9
						C8,23.6,9,25.1,9.3,23.2c0.5-2.6,4.8-9,4.8-9s8,0.3,9.9-6.3l0,0c0.2-0.8,0.4-1.7,0.4-2.6l0,0v0c1.9-0.7,3-0.2,3.5,0.4L28,5.8
						c0,0,0,0,0.1,0.1l0,0L28.2,6c0,0,0,0.1,0.1,0.1s0,0,0,0.1l0,0l0,0l0,0v0.1c0,0.1,0.1,0.1,0.1,0.1s0,0,0,0.1l0,0
						c0.1,0.1,0.1,0.1,0.2,0C29.1,6.2,29.5,6,29.9,6H30l0,0l0,0l0,0l0,0h0.1l0,0l0,0l0,0h0.1l0,0c0.1,0,0.2,0.1,0.3,0.1l0,0h0.1l0,0
						h0.1l0,0c0.1,0,0.1,0.1,0.1,0.1l0,0h0.1H31c0,0,0,0,0.1,0h0.1l0,0l0,0h0.1l0,0h0.1l0,0l0,0l0.1,0.1h0.1l0.1,0.1l0,0h0.1h0.1
						l0,0L32.1,7l0,0l0,0l0,0l0.1,0.1l0.1,0.1l0,0l0,0l0.1,0.1l0.1,0.1c0.1,0.1,0.1,0.1,0.2,0.2l0.1,0.1l0.1,0.1L33,7.9
						c0,0,0,0.1,0.1,0.2l0.1,0.1c0.2,0.3,0.4,0.6,0.6,0.9l0.1,0.1L34,9.3v0.1c0.3,0.4,0.5,0.8,0.8,1.2l0.1,0.1c0,0,0,0.1,0.1,0.1
						c0,0.1,0,0.1,0,0.2l0.1,0.1l0.1,0.2v0.1v0.1l0.1,0.1c0.1,0.1,0.1,0.2,0.2,0.4l0.1,0.1l0.1,0.1l0.1,0.1l0,0v0.1l0.1,0.2l0.1,0.2
						v0.1l0.1,0.1l0.1,0.1c0.1,0.3,0.3,0.6,0.4,0.8l0.1,0.1l0,0c0.2,0.4,0.4,0.8,0.5,1.1c0,0.1,0.1,0.1,0.1,0.2l0.1,0.1l0.1,0.1
						l0.1,0.2l0.2,0.3c0.1,0.2,0.2,0.3,0.2,0.5l0.1,0.2l0.1,0.2l0.1,0.3l0.1,0.2c0,0.1,0,0.1,0.1,0.2c0,0.1,0.1,0.2,0.1,0.2l0.1,0.2
						c0.1,0.1,0.1,0.3,0.2,0.4v0.1l0,0c0,0,0,0.1,0.1,0.1c0,0.1,0.1,0.2,0.1,0.3l0.1,0.1c0,0.1,0.1,0.2,0.1,0.2c0,0.1,0,0.1,0.1,0.1
						c0,0.1,0,0.1,0.1,0.1l0.1,0.1c0,0.1,0.1,0.2,0.1,0.3c0,0,0,0,0,0.1V20v0.1c0,0.1,0.1,0.2,0.1,0.3v0.1v0.1v0.1l0.1,0.2V21l0,0
						v0.1v0.1l0,0v0.1c0,0.1,0,0.1,0.1,0.1v0.1v0.1l0,0v0.1l0,0c0,0.1,0,0.1,0.1,0.1c0.1,0.2,0.4,2,0.4,2.2c0,0.1,0,0.3,0.1,0.4
						c0,0,0,0,0,0.1s0,0.1,0,0.1v0.1c0,0.1,0,0.2,0,0.3v0.1v0.1v0.1v0.1c0,0.1,0,0.1,0,0.2v0.1v0.1v0.1V26c0,0.1,0,0.1,0,0.2
						s0.1,0.2,0.1,0.3c0,0.1,0,0.1,0.1,0.2l0,0c0,0.1,0,0.1,0.1,0.2c0,0.1,0,0.1,0.1,0.2v0.1c0.1,0.3,0.2,0.5,0.2,0.8v0.1v0.1v0.1
						v0.1c0.1,0.2,0.1,0.4,0.2,0.6c0,0.1,0,0.1,0.1,0.2v0.1c0.1,0.2,0.1,0.3,0.2,0.5c0,0.1,0.1,0.1,0.1,0.2v0.1v0.1v0.1l0.1,0.2
						c0,0.1,0.1,0.1,0.1,0.2l0,0c0,0,0,0,0,0.1l0,0v0.1l0,0l0,0c0,0.1,0.1,0.1,0.1,0.2s0.1,0.2,0.1,0.2l0,0v0.1l0,0l0,0l0,0l0,0l0,0
						l0,0l0,0l0,0v0.1c0.1,0.3,0.3,0.5,0.4,0.8v0.1v0.1v0.1c0.1,0.2,0.2,0.3,0.3,0.5c0,0,0,0.1,0.1,0.1v0.1v0.1c0,0,0,0,0,0.1l0,0
						l0,0l0,0c0.1,0.1,0.1,0.2,0.2,0.2v0.1l0,0l0,0l0,0l0,0c0,0,0,0.1,0.1,0.1l0,0l0,0l0,0l0,0l0,0l0,0l0,0l0,0l0,0l0,0l0,0l0,0
						c0.4,0.3,0.7,0.5,1.1,0.9c0.6,0.8,0.3,1.7,0.7,1.8l0,0h0.1h0.1h0.1l0,0h0.1l0,0c0.5,0.1,0.8,0.4,1,0.5s0.3,0.3,0.4,0.5
						c0.1,0.1,0.2,0.3,0.2,0.4l0,0c0.1,0.2,0.2,0.4,0.2,0.7l0,0C48,38.6,48,38.8,47.9,39z" />

                        <radialGradient id="SVGID_10_" cx="-5604.4102" cy="-18013.3926" r="187.6936" fx="-5605.5073"
                            fy="-18013.3926" gradientTransform="matrix(0.11 0 0 -0.11 646.26 -1960.1699)"
                            gradientUnits="userSpaceOnUse">
                            <stop offset="0.48" style="stop-color:#D04C5E;stop-opacity:0.5" />
                            <stop offset="0.57" style="stop-color:#C44860;stop-opacity:0.45" />
                            <stop offset="0.73" style="stop-color:#A33F66;stop-opacity:0.31" />
                            <stop offset="0.93" style="stop-color:#6F306F;stop-opacity:8.000000e-02" />
                            <stop offset="1" style="stop-color:#5B2A73;stop-opacity:0" />
                        </radialGradient>
                        <path class="st13" d="M47.9,39C47.9,39.1,47.9,39.1,47.9,39c0,0.2-0.1,0.2-0.1,0.3c0,0,0,0,0,0.1l0,0c-0.1,0.2-0.2,0.3-0.3,0.4
						c0,0,0,0-0.1,0.1L47.3,40l0,0l0,0c-0.2,0.1-0.4,0.3-0.6,0.3l0,0l0,0l0,0l0,0l0,0c-0.5,0.2-1.1,0.3-1.6,0.2h-0.4h-0.3l0,0
						c-0.6,0-1.2,0-1.8,0h-0.3H42h-0.1h-0.2h-0.1h-0.2h-0.1h-0.2H41h0l0,0h-0.1h-0.1h-0.1h-0.1h-0.1h-0.2H40h-0.1l0,0h-0.1
						c-0.2,0-0.3,0-0.4,0c-0.3,0-0.6,0.1-0.8,0.3c-0.6,0.4-1.3,0.6-2,0.8l0,0l-0.2,0.1l0,0c-2.4,0.7-4.2,0.1-4.2,0.1
						c-5.8-0.7-6.7-0.5-8.7,0.2c-2,0.6-2.8-0.5-4-0.2l0,0c-0.6,0.1-1.3,0-1.8-0.2c-0.2-0.1-0.4-0.1-0.5-0.2c-0.4-0.1-0.7,0-1.1,0.2
						c-0.7,0.4-1.3,0.7-2,1c-0.3,0.1-0.6,0.2-1,0.3l0,0c-0.5,0.1-0.8,0-1.1-0.1l0,0c-0.1-0.1-0.3-0.2-0.4-0.3
						c-0.2-0.3-0.3-0.7-0.3-0.9l0,0c0,0,0,0,0-0.1s-0.1-0.1-0.1-0.2l0,0l0,0l0,0l0,0l0,0l0,0l0,0l0,0h-0.1c-0.6-0.3-1.6,0.2-2.3,0.3
						c-0.1,0-0.3,0-0.4,0.1l0,0C7.3,41.9,6.7,42,6,42H5.9c-0.1,0-0.2,0-0.3,0l0,0c-0.1,0-0.2,0-0.3,0H5.2H5H4.9
						c-0.1,0-0.2,0-0.3-0.1H4.5H4.3H4.2c-0.1,0-0.1,0-0.2-0.1H3.9H3.8H3.7H3.6H3.5l0,0l0,0l0,0H3.4l0,0l0,0l0,0
						c-0.1,0-0.1-0.1-0.2-0.1l0,0l-0.1-0.1l0,0c-0.1-0.1-0.2-0.1-0.3-0.2l0,0l0,0l0,0l0,0l0,0l0,0l0,0l0,0l-0.1-0.1l-0.1-0.1l0,0
						l0,0l0,0l0,0l0,0l0,0c0,0,0-0.1-0.1-0.1c0,0,0-0.1-0.1-0.1l0,0v-0.1l0,0c0,0,0-0.1-0.1-0.1l0,0v-0.1v-0.1v-0.1l0,0l0,0l0,0l0,0
						c0-0.1-0.1-0.2-0.1-0.3l0,0l0,0v-0.1V40v-0.1l0,0v-0.1c0-0.4,0-0.7,0.1-1v-0.1c0-0.1,0-0.1,0.1-0.2v-0.1v-0.1l0,0
						c0,0,0-0.1,0.1-0.1l0,0l0.1-0.1L2.7,38l0.1-0.1c0,0,0,0,0.1-0.1v-0.1l0,0l0,0c0.2-0.2,0.4-0.3,0.6-0.4c0.1,0,0.1,0,0.1,0
						c0.1,0,0.2,0,0.2-0.1c0.3-0.3,0.1-1.1,0.7-1.7l0,0l0.1-0.1l0.1-0.1l0,0h0.1c0,0,0.1,0,0.1-0.1s0.1,0,0.1-0.1h0.1
						c0,0,0.1,0,0.1-0.1h0.1c0,0,0.1,0,0.1-0.1h0.1h0.1h0.1h0.1l0,0h0.1l0,0l0,0l0,0l0,0l0,0l0,0H6l0,0h0.1h0.1l0,0l0,0l0,0
						c0.2-0.2,0.2-0.6,0.5-2.2c0.4-2.8,2.1-5.9,2.1-5.9C8,23.6,9,25.1,9.3,23.2c0.5-2.6,4.8-9,4.8-9s8,0.3,9.9-6.3l0,0
						c0.2-0.8,0.4-1.7,0.4-2.6l0,0v0c1.9-0.7,3-0.2,3.5,0.4L28,5.8c0,0,0,0,0.1,0.1l0,0L28.2,6c0,0,0,0.1,0.1,0.1s0,0,0,0.1l0,0l0,0
						l0,0v0.1c0,0.1,0.1,0.1,0.1,0.1s0,0,0,0.1l0,0c0.1,0.1,0.1,0.1,0.2,0C29.1,6.2,29.5,6,29.9,6H30l0,0l0,0l0,0l0,0h0.1l0,0l0,0
						l0,0h0.1l0,0c0.1,0,0.2,0.1,0.3,0.1l0,0h0.1l0,0h0.1l0,0c0.1,0,0.1,0.1,0.1,0.1l0,0h0.1H31c0,0,0,0,0.1,0h0.1l0,0l0,0h0.1l0,0
						h0.1l0,0l0,0l0.1,0.1h0.1l0.1,0.1l0,0h0.1h0.1l0,0L32.1,7l0,0l0,0l0,0l0,0l0,0l0.1,0.1l0,0l0,0l0.1,0.1l0.1,0.1
						c0.1,0.1,0.1,0.1,0.2,0.2l0.1,0.1l0.1,0.1l0.1,0.1C33,7.9,33,8,33.1,8.1l0.1,0.1c0.2,0.3,0.4,0.6,0.6,0.9l0.1,0.1L34,9.3v0.1
						c0.3,0.4,0.5,0.8,0.8,1.2l0.1,0.1c0,0,0,0.1,0.1,0.1c0,0.1,0,0.1,0,0.2l0.1,0.1l0.1,0.2v0.1v0.1l0.1,0.1
						c0.1,0.1,0.1,0.2,0.2,0.4l0.1,0.1l0.1,0.1l0.1,0.1l0,0v0.1l0.1,0.2l0.1,0.2v0.1l0.1,0.1l0.1,0.1c0.1,0.3,0.3,0.6,0.4,0.8
						l0.1,0.1l0,0c0.2,0.4,0.4,0.8,0.5,1.1c0,0.1,0.1,0.1,0.1,0.2l0.1,0.1l0.1,0.1l0.1,0.2l0.2,0.3c0.1,0.2,0.2,0.3,0.2,0.5l0.1,0.2
						l0.1,0.2l0.1,0.3l0.1,0.2c0,0.1,0,0.1,0.1,0.2c0,0.1,0.1,0.2,0.1,0.2l0.1,0.2c0.1,0.1,0.1,0.3,0.2,0.4v0.1l0,0
						c0,0,0,0.1,0.1,0.1c0,0.1,0.1,0.2,0.1,0.3l0.1,0.1c0,0.1,0.1,0.2,0.1,0.2c0,0.1,0,0.1,0.1,0.1c0,0.1,0,0.1,0.1,0.1l0.1,0.1
						c0,0.1,0.1,0.2,0.1,0.3c0,0,0,0,0,0.1V20v0.1c0,0.1,0.1,0.2,0.1,0.3v0.1v0.1v0.1l0.1,0.2V21l0,0v0.1v0.1l0,0v0.1
						c0,0.1,0,0.1,0.1,0.1v0.1v0.1l0,0v0.1l0,0c0,0.1,0,0.1,0.1,0.1c0.1,0.2,0.4,2,0.4,2.2c0,0.1,0,0.3,0.1,0.4c0,0,0,0,0,0.1
						s0,0.1,0,0.1v0.1c0,0.1,0,0.2,0,0.3v0.1v0.1v0.1v0.1c0,0.1,0,0.1,0,0.2v0.1v0.1v0.1V26c0,0.1,0,0.1,0,0.2s0.1,0.2,0.1,0.3
						c0,0.1,0,0.1,0.1,0.2l0,0c0,0.1,0,0.1,0.1,0.2c0,0.1,0,0.1,0.1,0.2v0.1c0.1,0.3,0.2,0.5,0.2,0.8v0.1v0.1v0.1v0.1
						c0.1,0.2,0.1,0.4,0.2,0.6c0,0.1,0,0.1,0.1,0.2v0.1c0.1,0.2,0.1,0.3,0.2,0.5c0,0.1,0.1,0.1,0.1,0.2v0.1v0.1v0.1l0.1,0.2
						c0,0.1,0.1,0.1,0.1,0.2l0,0c0,0,0,0,0,0.1l0,0l0,0c0,0,0,0,0,0.1l0,0l0,0c0,0.1,0.1,0.1,0.1,0.2s0.1,0.2,0.1,0.2l0,0v0.1l0,0
						l0,0l0,0l0,0l0,0l0,0l0,0v0.1c0.1,0.3,0.3,0.5,0.4,0.8v0.1v0.1v0.1c0.1,0.2,0.2,0.3,0.3,0.5c0,0,0,0.1,0.1,0.1v0.1v0.1
						c0,0,0,0,0,0.1l0,0l0,0l0,0c0.1,0.1,0.1,0.2,0.2,0.2v0.1l0,0l0,0l0,0l0,0c0,0,0,0.1,0.1,0.1l0,0l0,0l0,0l0,0l0,0l0,0l0,0l0,0
						l0,0l0,0l0,0l0,0c0.4,0.3,0.7,0.5,1.1,0.9c0.6,0.8,0.3,1.7,0.7,1.8l0,0h0.1h0.1h0.1l0,0h0.1l0,0c0.5,0.1,0.8,0.4,1,0.5
						s0.3,0.3,0.4,0.5c0.1,0.1,0.2,0.3,0.2,0.4l0,0c0.1,0.2,0.2,0.4,0.2,0.7l0,0C48,38.6,48,38.8,47.9,39z" />

                        <radialGradient id="SVGID_11_" cx="-5603.7944" cy="-18013.4102" r="278.9508" fx="-5603.7944"
                            fy="-18011.3906" gradientTransform="matrix(0.11 0 0 -0.11 646.26 -1960.1699)"
                            gradientUnits="userSpaceOnUse">
                            <stop offset="0.16" style="stop-color:#FFFFFF;stop-opacity:0" />
                            <stop offset="0.24" style="stop-color:#DACBD3;stop-opacity:0.21" />
                            <stop offset="0.42" style="stop-color:#9D778C;stop-opacity:0.56" />
                            <stop offset="0.59" style="stop-color:#723B5A;stop-opacity:0.8" />
                            <stop offset="0.76" style="stop-color:#58173B;stop-opacity:0.95" />
                            <stop offset="0.95" style="stop-color:#4F0B31" />
                        </radialGradient>
                        <path class="st14" d="M47.8,39.4L47.8,39.4L47.8,39.4c-0.3,0.5-0.9,0.9-1.7,1.1c-0.5,0.1-1.1,0.2-1.7,0.2
						c-2.9-0.1-3.6-0.3-4.9-0.1c-1.1,0.1-2.5,1.1-3,1.4l0,0c0,0-0.1,0-0.1,0.1l0,0c-2.6,0.1-3.3-1.1-5.6-1.3
						c-1.8-0.2-5.7,1.2-7.7,1.6c-1.4,0.3-0.9-0.8-3.1-0.3c-0.2,0.1-1.2-0.1-2.3-0.1c-0.3,0-0.6,0-0.9,0.1l0,0
						c-0.2,0-0.4,0.1-0.7,0.1c-0.4,0.1-0.8,0.2-1.1,0.4s-0.6,0.3-1,0.4c-0.8,0.3-1.6,0.3-2.1,0.2l0,0c-0.2,0-0.3-0.1-0.4-0.3l0,0
						c-0.1-0.3-0.2-0.6-0.3-0.9l0,0c-0.1-0.1-0.1-0.2-0.2-0.3l0,0c-0.2-0.2-0.5-0.3-0.9-0.2c-0.6,0.2-1.3,0.4-2,0.5l0,0
						c-1.5,0.2-3.1,0.3-4.5-0.3l0,0C3,41.4,2.4,41,2.1,40.4c-0.2-0.5-0.2-1.1,0-1.7l0,0c0.1-0.3,0.2-0.6,0.4-0.8
						c0.2-0.3,0.4-0.5,0.7-0.6l0,0c0.1,0,0.1,0,0.2,0c0.1,0,0.2,0,0.2-0.1c0.4-0.4-0.2-1.7,1.8-2.3c0.1,0,0.1,0,0.1,0
						c0.1,0,0.1,0,0.1,0s0,0,0.1,0c0.2-0.1,0.3-0.5,0.5-2.2c0-0.1,0.1-0.1,0.1-0.2l0,0c0.1-0.5,0.2-0.9,0.3-1.4
						c0.1-0.3,0.1-0.5,0.2-0.8c0.4-1.2,0.9-2.4,1.5-3.5v-0.1c-0.3-3,0.7-1.6,1.1-3.4c0.5-2.6,4.8-9,4.8-9s8.1,0.4,9.9-6.3l0,0
						c0.2-0.8,0.3-1.7,0.4-2.5l0,0l0,0l0,0c2.4-0.8,3.5,0.2,3.9,0.8l0,0c0,0.1,0.1,0.1,0.1,0.2c0,0,0,0,0,0.1l0,0
						c0.1,0.1,0.1,0.1,0.2,0c1-0.7,2.1-0.4,3.1,0.5h0.1H32l0,0l0.1,0.1l0,0l0,0l0,0c1.5,1.5,3,4.1,4.3,6.8c0,0,0,0.1,0.1,0.1l0,0
						c1.3,2.9,1.7,5.9,2,6.9c0.1,0.2,1,1.8,1.1,2c0.2,2,1.1,5,2.2,7.1c0.1,0.1,0.1,0.3,0.2,0.4l0,0c0.7,1.6,1.5,3,2.2,3.3
						c0.3,0.2,0.5,0.4,0.7,0.6c0,0.1,0.1,0.2,0.1,0.3c0,0.2,0.2,0.3,0.3,0.4c0.1,0.2,0.1,0.3,0.2,0.5c0,0.1,0.1,0.2,0.1,0.4
						s0.1,0.3,0.2,0.4c0,0,0,0,0.1,0c0.4,0.1,1.2,0.3,1.6,0.9c0.1,0.1,0.2,0.3,0.3,0.4l0,0c0.1,0.2,0.2,0.4,0.2,0.7l0,0
						c0,0.1,0,0.1,0,0.1C48,38.9,47.9,39.2,47.8,39.4z" />

                        <radialGradient id="SVGID_12_" cx="-3606.854" cy="-2783.7854" r="0.9856"
                            gradientTransform="matrix(0 0.11 0.34 0 970.04 407.56)" gradientUnits="userSpaceOnUse">
                            <stop offset="6.000000e-02" style="stop-color:#FAAF40;stop-opacity:0.3" />
                            <stop offset="0.1" style="stop-color:#CF9135;stop-opacity:0.39" />
                            <stop offset="0.19" style="stop-color:#74521E;stop-opacity:0.57" />
                            <stop offset="0.29" style="stop-color:#34240D;stop-opacity:0.7" />
                            <stop offset="0.38" style="stop-color:#0D0903;stop-opacity:0.77" />
                            <stop offset="0.48" style="stop-color:#000000;stop-opacity:0.8" />
                        </radialGradient>
                        <path class="st15"
                            d="M24.9,5.9L25,5.8c-0.1,0.1-0.2,0.1-0.2,0.1V6c0,0,0,0,0-0.1l0,0H24.9L24.9,5.9z" />

                        <radialGradient id="SVGID_13_" cx="-3398.875" cy="-2902.0002" r="0.1041"
                            gradientTransform="matrix(0 0.11 0.34 0 1015.0801 385.3201)" gradientUnits="userSpaceOnUse">
                            <stop offset="6.000000e-02" style="stop-color:#FAAF40;stop-opacity:0.3" />
                            <stop offset="0.1" style="stop-color:#CF9135;stop-opacity:0.39" />
                            <stop offset="0.19" style="stop-color:#74521E;stop-opacity:0.57" />
                            <stop offset="0.29" style="stop-color:#34240D;stop-opacity:0.7" />
                            <stop offset="0.38" style="stop-color:#0D0903;stop-opacity:0.77" />
                            <stop offset="0.48" style="stop-color:#000000;stop-opacity:0.8" />
                        </radialGradient>
                        <path class="st16" d="M28.4,6.7C28.4,6.6,28.4,6.6,28.4,6.7L28.4,6.7L28.4,6.7z" />

                        <radialGradient id="SVGID_14_" cx="-5607.3545" cy="-18005.707" r="202.5994" fx="-5608.5381"
                            fy="-18005.707" gradientTransform="matrix(0.11 0 0 -0.11 646.26 -1960.1699)"
                            gradientUnits="userSpaceOnUse">
                            <stop offset="0.22" style="stop-color:#E4333D" />
                            <stop offset="0.5" style="stop-color:#CC2D3D" />
                            <stop offset="1" style="stop-color:#A5223D" />
                        </radialGradient>
                        <path class="st17" d="M10.8,36.7c-1.3-0.2-4.4-2.1-3.8-4.6c0.6-2.7,2.1-7,3.3-8.6c1.3-1.8,3.7-7.4,4.6-9
						c0.2-0.3,0.9-0.2,0.9-0.2s3.8-0.3,6.8-2.2c0.8-0.5,1.1-2.3,1.7-3.4c0.8-0.2,2.6,0.4,3.6,3.1c0.2,0.5,0.2-1.1-1-2.7
						c-0.3-0.4,1-1,2.3-0.4c1.2,0.5,1.9,2,2,2.1c0.3,0.4-0.2-0.6-1.1-1.9c4.4-1.6,5.7,5.3,7,8.2c2.1,4.7,3.8,12.3,4.9,15.1
						C45,39.7,19.7,38.2,10.8,36.7z" />

                        <radialGradient id="SVGID_15_" cx="-5598.3032" cy="-18003.3809" r="159.4156" fx="-5599.2349"
                            fy="-18003.3809" gradientTransform="matrix(0.11 0 0 -0.11 646.26 -1960.1699)"
                            gradientUnits="userSpaceOnUse">
                            <stop offset="0.23" style="stop-color:#E63A42" />
                            <stop offset="0.45" style="stop-color:#E03C4D" />
                            <stop offset="0.83" style="stop-color:#D1416A" />
                            <stop offset="1" style="stop-color:#CA4478" />
                        </radialGradient>
                        <path class="st18" d="M41.3,34c-1.1,1.3-3.2,2.2-5.8,2.7C28,38.2,16.2,37,11.2,34.6C10,34,8.8,33.2,9.1,30.7
						c0.4-2.7,1.5-6.3,2.6-7.8c1.5-2.1,4-8.6,4-8.6s4.9-0.2,7.1-2.9c0.4-0.5,0.7-1.1,1.1-2.1l0,0l0,0c0.1-0.2,0.2-0.4,0.3-0.6
						c0.1,0,0.1,0,0.2,0l0,0l0,0c0.1,0,0.3,0,0.4,0c0.8,0.2,1.6,0.6,2.3,1.7l0,0l0,0c0.1,0.2,0.2,0.3,0.3,0.5l0,0
						c0.1,0.2,0.2,0.5,0.3,0.8c0,0.1,0,0.1,0.1,0.1c0.1,0.1-0.1-1.5-0.9-2.6l0,0c-0.1-0.1-0.1-0.2-0.2-0.3l0,0
						c0-0.3,0.3-0.4,0.6-0.5l0,0c0.6-0.1,1.5,0,1.9,0.2c0.9,0.5,1.3,1.2,1.4,1.4s0.2,0.3,0.3,0.5c0,0.1,0.1,0.1,0.2,0.2
						c0.1-0.1-0.8-1.4-1-1.7c0,0-0.1-0.2-0.1-0.2c1.1-0.4,2.1-0.2,2.9,0.2l0,0c0.2,0.1,0.4,0.3,0.6,0.4c1.9,2,3.6,6.7,3.7,7.1
						c0.8,2.2,3.8,11.7,4.6,14.3C42.2,32.1,42,33.2,41.3,34z" />
                        <path class="st19" d="M24.5,5.3c-1.1,4-6.7,8.7-10.3,8.9C19.3,14.6,24.2,14.5,24.5,5.3z" />
                        <path class="st20" d="M47.6,37.5L47.6,37.5L47.6,37.5c-0.2-0.1-0.3-0.1-0.4-0.1c-1.5-0.2-1.6,2-2.4,2.4c-1.9,0.8-4-0.9-5.1-0.5
						c-0.9,0.3-1.9,1.3-2.8,1.6c-2.2,0.7-3.2,0.1-5.4-0.7c-1.5-0.6-5,0.7-6.5,1.2c-2.6,0.8-2.7-0.4-4.2-0.7c-1.3-0.2-2,2-3.1,0.7
						c-1.3-1.6-1.7,1.7-5.3,1.1c-1.1-0.2-0.7-1.8-1.5-1.8c-1.5-0.1-0.8,2-7.4,0.5C2.7,41,1.8,39.7,2,38.6l0,0
						c0.1-0.3,0.2-0.6,0.4-0.8s0.4-0.4,0.7-0.6l0,0h0.1c0-0.1,0.1-0.2,0.2-0.2c0,0,0,0,0.1,0.1l0,0c0.3,0.4,1.2,2.5,4.3,2.5
						c1.8,0,2.7,0,3.1,0.2l0,0c0.2,0.1,0.4,0.2,0.5,0.4c0.1,0.1,0.1,0.2,0.2,0.3l0,0c1.8,2.8,2.9,1.7,3.6,0.8
						c0.2-0.2,0.3-0.3,0.4-0.5l0,0c0.1-0.1,0.1-0.1,0.2-0.1l0,0c0.8-0.8,1.6-1,1.8-0.5c0.7,1.4,1.5,0.2,2.2-0.4l0,0
						c0.3-0.2,0.5-0.4,0.8-0.4c0.6,0.1,1,0.8,1.6,1c0.7,0.2,1.4,0.2,2.1,0c0.9-0.3,1.5-1,2-1.4c0.8-0.7,1.8-0.6,2.6-0.3l0,0
						c0.1,0,0.2,0.1,0.3,0.2l0,0c0.1,0.1,0.2,0.1,0.3,0.2c0.2,0.1,0.4,0.2,0.7,0.3l0,0c1,0.4,2,0.7,3.1,0.9c0.9,0.1,1.8,0.1,2.6-0.2
						c0.1-0.1,0.3-0.1,0.4-0.2l0,0c0.5-0.3,1.1-0.7,1.7-1c0.4-0.2,0.8-0.5,1.2-0.7c0.3-0.1,0.6-0.1,0.8-0.1l0,0
						c1.5,0.2,3.3,2.1,4.7,0.9l0,0c0.3-0.2,0.6-0.6,0.9-1.2c0.1-0.3,0.2-0.5,0.3-0.8c0-0.1,0-0.2,0-0.3l0,0c0,0,0,0,0-0.1H46
						c0.1,0,0.2,0,0.2,0.1l0,0c0.5,0.1,0.8,0.4,1,0.5C47.3,37.1,47.4,37.3,47.6,37.5z" />

                        <radialGradient id="SVGID_16_" cx="-5787.8848" cy="-13677.9697" r="25.4067"
                            gradientTransform="matrix(0.11 0 0 -0.2 646.26 -2697.8601)" gradientUnits="userSpaceOnUse">
                            <stop offset="0.35" style="stop-color:#FCDACB;stop-opacity:0.5" />
                            <stop offset="0.45" style="stop-color:#EECBC3;stop-opacity:0.46" />
                            <stop offset="0.62" style="stop-color:#C9A2AF;stop-opacity:0.34" />
                            <stop offset="0.84" style="stop-color:#8E618F;stop-opacity:0.16" />
                            <stop offset="1" style="stop-color:#5B2A73;stop-opacity:0" />
                        </radialGradient>
                        <path class="st21" d="M6.4,39.6c-0.1-0.1-2.5-1.2-3.5-0.5C2.2,39.7,3,40.6,3.4,41H3.3c-0.4-0.2-1.8-1.2-1.1-2.4
						C2.9,37.6,4.9,38.4,6.4,39.6z" />
                        <path class="st22" d="M31.4,40.3c0.1,0.1-0.9,0.1-1.5,0.1c-1.8-0.5-4.9,1.9-6.3,0.9c-0.2-0.2-0.4-0.4-0.6-0.6l0,0
						C24.6,41.8,30.2,38.7,31.4,40.3z" />
                        <path class="st23" d="M5.6,34.6c0.1,1.4,2.5,3.5,4,3.2c0.9-0.2,1.3-0.7,2,0c0.5,0.4,0.7,1.1,0.9,1.7s0.8,1.2,1.4,1.1
						c0.7-0.1,2-2.1,2.6-2.2c0.9-0.1,2,0.8,3,0.7c0.5-0.1,1.7-0.7,2.2-0.2c1.3,1.4,4.1-1.3,4.1-1s-2.7,3.4-3.7,1.9
						c-1-1.6-2-0.7-2.4-0.4c-0.8,0.4-2.4-0.6-3.3-0.6c-0.5,0-1.8,1.6-2.2,2.1c-1,1-1.5-0.5-1.7-0.9c-0.3-0.6-0.8-1.5-1.4-1.7
						c-1.2-0.5-1.1,0.2-2.4-0.2C5.2,37,5.6,34.6,5.6,34.6z" />
                        <path class="st23" d="M30.2,39.1c1.2,0.6,2.7,1,3.7,0.8c1.9-0.3,2.5-2,4.3-2.4c2.1-0.5,6,1.8,6.5-0.2c0.2-0.6,0-1.4,0-1.4
						c0,0.5-0.8,1.3-1.1,1.4c-2.2,0.7-3.7-1.1-5.8-0.2c-1.1,0.5-2.8,1.8-3.9,2.1C32.7,39.4,30.2,39.1,30.2,39.1z" />
                        <path class="st22" d="M38,19.7c-1.1-2-2.9-9.2-5.1-10.7l0,0c-0.8-0.5-1.8-0.6-2.9-0.2c0,0,0.4,0.6,0.4,0.7
						c1.1-0.5,3.2,0.5,5.1,4.7c0.2,0.5,1.1,2.7,1.9,4.6C37.4,18.8,38.3,20.2,38,19.7z M31.1,10.7L31,10.5c-0.1-0.2-0.6-1.2-1.6-1.7
						c-0.6-0.3-1.3-0.4-1.9-0.2c-0.3,0.1-0.7,0.3-0.6,0.5C27,9.2,27,9.3,27.1,9.4l0,0C28.9,8.9,30.6,9.9,31.1,10.7
						C31.4,11.3,31.4,11.2,31.1,10.7L31.1,10.7z" />
                        <path class="st22" d="M27.9,11.9c0.2,0.7,0,0.2,0,0.2C27.3,10.5,25,9,24,9.3c0.1-0.2,0.2-0.4,0.3-0.6c0.1,0,0.1,0,0.2,0l0,0
						c0.5,0,2.1,0.2,3.1,2.3C27.6,11.3,27.9,11.8,27.9,11.9z" />

                        <radialGradient id="SVGID_17_" cx="-5653.5649" cy="-17887.2344" r="42.8957"
                            gradientTransform="matrix(0.11 0 0 -0.11 646.26 -1960.1699)" gradientUnits="userSpaceOnUse">
                            <stop offset="0.19" style="stop-color:#FFFFFF;stop-opacity:0" />
                            <stop offset="0.8" style="stop-color:#000000;stop-opacity:0.7" />
                        </radialGradient>
                        <path class="st24" d="M24.5,5.3c-1.1,4-6.7,8.7-10.3,8.9C19.3,14.6,24.2,14.5,24.5,5.3z" />
                        <path class="st25" d="M24.5,5.3c-1.1,4-6.7,8.7-10.3,8.9C18.2,13.9,23.7,14.7,24.5,5.3z" />
                        <path class="st22" d="M23.6,10.4c-1.4,3.4-4.2,3.9-6.4,3.9c-0.1,0-0.2,0.3-0.1,0.3C18.1,14.8,22,14.6,23.6,10.4
						C23.7,10.3,23.6,10.3,23.6,10.4L23.6,10.4z" />
                        <path class="st26" d="M16.3,14.1c3.7-0.4,4.7-1.3,4.9-1.5c1.7-1.4,2.6-4,2.6-4.8c0.2-0.9,0-0.7-0.5,0.2c-0.5,1-4.3,5.2-7.1,5.9
						c-0.3,0.1-0.6,0.1-0.5,0.2C15.7,14.1,16.1,14.1,16.3,14.1z" />
                        <path class="st22"
                            d="M35.5,36.7c6.3-2.5,4.8-6.3,3.7-11.4c0.5,1.1,3,6.7,2.1,8.6C41,34.7,38.5,36.2,35.5,36.7z" />

                        <linearGradient id="SVGID_18_" gradientUnits="userSpaceOnUse" x1="24.0139" y1="-958.65"
                            x2="33.7293" y2="-958.65" gradientTransform="matrix(1 0 0 -1 0 -950)">
                            <stop offset="0.1" style="stop-color:#2D2B2C;stop-opacity:0.8" />
                            <stop offset="0.22" style="stop-color:#544430;stop-opacity:0.7" />
                            <stop offset="0.41" style="stop-color:#C18A3A;stop-opacity:0.44" />
                            <stop offset="0.49" style="stop-color:#FAAF40;stop-opacity:0.3" />
                            <stop offset="0.53" style="stop-color:#CF9135;stop-opacity:0.39" />
                            <stop offset="0.64" style="stop-color:#74521E;stop-opacity:0.57" />
                            <stop offset="0.74" style="stop-color:#34240D;stop-opacity:0.7" />
                            <stop offset="0.85" style="stop-color:#0D0903;stop-opacity:0.77" />
                            <stop offset="0.96" style="stop-color:#000000;stop-opacity:0.8" />
                        </linearGradient>
                        <path class="st27" d="M33.7,9.7c-0.1-0.1-0.3-0.4-0.6-0.5l0,0c-0.5-0.3-1-0.5-1.6-0.6c-0.5-0.1-1.1,0-1.6,0.2
						c0.3,0.4,0.5,0.8,0.7,1.1c0.4,0.8,0.7,1.2,0.4,0.9c-0.1-0.1-0.3-0.5-0.4-0.6C30.4,9.9,29.8,9,29,8.7c-1.5-0.5-2.6,0.1-2.3,0.4
						c0,0.1,0.1,0.1,0.1,0.2l0,0c0.3,0.5,0.6,1.1,0.8,1.7c0.1,0.3,0.2,0.7,0.1,0.9c0,0-0.2-0.4-0.2-0.5c-0.6-1.2-0.9-1.6-1.4-2l0,0
						c-0.5-0.4-0.8-0.5-1.4-0.7l0,0c-0.1,0-0.2,0-0.3,0c-0.1,0-0.1,0-0.2,0s-0.1,0-0.1,0l-0.2,0.5c0.5-1.4,0.7-2.6,0.8-3
						c0-0.1,0-0.1,0-0.2l0,0V5.9l0,0l0,0l0,0l0,0l0,0l0,0l0,0l0,0l0.1-0.1l0,0l0,0l0,0c0.5-0.3,1-0.4,1.6-0.4l0,0l0,0l0,0l0,0l0,0
						c0.4,0.1,0.9,0.3,1.2,0.6l0,0l0,0l0,0l0,0c0.2,0.2,0.3,0.3,0.4,0.5l0,0c-0.3,0.4-0.5,1.2-0.5,1.2l0,0l0,0l0,0l0,0
						c0.3-0.4,0.6-0.7,0.9-0.9l0,0h0.1c0.3-0.1,0.7-0.2,1.1-0.2l0,0c0.5,0,0.9,0.1,1.3,0.3l0,0c0.3,0.2,0.6,0.4,0.9,0.6l0,0
						c0.2,0.3,0.5,0.6,0.7,0.9l0,0C33.2,8.8,33.5,9.3,33.7,9.7z" />
                        <path class="st28" d="M34.9,10.9c0,0.1-0.5-0.6-1-1.3c-0.3-0.4-0.6-0.8-0.9-1.1l0,0c-0.2-0.3-0.5-0.6-0.7-0.9l0,0
						c-0.2-0.3-0.5-0.5-0.9-0.6l0,0c-0.4-0.2-0.9-0.3-1.3-0.3l0,0c-0.4,0-0.7,0.1-1.1,0.2c-0.4,0.2-0.7,0.6-1,0.9l0,0l0,0l0,0
						c0,0,0,0,0-0.1c0-0.1,0.2-0.7,0.4-1l0,0l0,0l0,0c-0.4-0.5-0.9-1.1-1.8-1.2c-0.5,0-1.1,0.1-1.6,0.4l0,0l0,0l0,0L24.9,6l0,0l0,0
						l0,0l0,0l0,0l0,0l0,0l0,0v0.1l0,0c0,0,0,0.1,0,0.2c0,0.4-0.1,1.1-0.5,2.5c0,0.1-0.4,1-0.4,0.9c0.3-1,0.6-2.9,0.7-4.3
						c0.7-0.3,2.9-1.1,4,1c0,0.1,0.1,0.1,0.2,0.1l0,0c0.8-0.6,1.9-0.8,3.5,0.8c0.5,0.5,1,1.1,1.5,1.7C34.1,9.6,34.5,10.2,34.9,10.9z
						" />
                        <path class="st29" d="M24.8,5.9L24.8,5.9L24.8,5.9L24.8,5.9L24.8,5.9L24.8,5.9z" />
                        <path class="st29" d="M27.9,7.8L27.9,7.8C27.9,7.8,27.9,7.9,27.9,7.8z" />
                        <path class="st29" d="M28.8,6.9C28.9,6.9,28.9,6.9,28.8,6.9C28.9,6.9,28.9,6.9,28.8,6.9z" />
                        <path class="st30" d="M8.3,26.8c0,0.1-0.1,0.2-0.1,0.3c-0.1,0.2-0.2,0.4-0.3,0.6c-0.2,0.4-0.3,0.8-0.4,1.3
						c-0.2,0.7-0.4,1.3-0.6,2c-0.1,0.5-0.2,0.9-0.3,1.4c0,0.1,0,0.1,0,0.2l0,0l0,0c0,0,0,0,0,0.1s0,0.3,0,0.4c0,0.2,0,0.4,0,0.6
						c0,0.4,0,0.7,0,1.1c0,0.4,0,0.7-0.1,1c0,0.1-0.1,0.2-0.2,0.2c0,0-0.7-1.2-0.7-1.5c0.2-0.1,0.2-0.3,0.5-2.2
						c0-0.1,0.3-1.2,0.4-1.7c0.1-0.3,0.1-0.5,0.2-0.8c0.4-1.2,0.9-2.4,1.5-3.5v-0.1c0,0,0.1,0,0.1,0.1l0,0
						C8.4,26.6,8.4,26.7,8.3,26.8z" />
                        <path class="st31" d="M25.3,6.1c-0.2,0.1-0.3,0.2-0.5,0.3c0-0.2,0-0.5,0-0.5c0.4-0.2,1-0.5,1.8-0.5c0.7,0,1.2,0.5,1.4,0.7
						C28,6.1,26.5,5.2,25.3,6.1z" />
                        <path class="st32" d="M22.4,9.7c-0.3,0.5-0.5,0.8-1.4,1.3c-0.2,0.1-2,1.4-2.2,1.9c-0.1,0.3,0.6,0.2,1.8-0.2
						c0.7-0.2,0.4-0.5,0.9-1c0.5-0.4,0.8-0.7,1-1.9C22.6,9.7,22.7,9.2,22.4,9.7z" />
                        <path class="st22" d="M39.8,38.5c1,0,2.5,0.5,2.2,0.4c-0.6-0.1-1.4-0.9-2.2-0.9c-0.9,0-2.3,1.1-2,0.9
						C37.9,38.9,38.9,38.5,39.8,38.5z" />
                        <path class="st22" d="M18.4,41c0.6-0.1,1.3-1.2,1.4-1.4c-0.3-0.1-0.8,1.1-1.6,1.1c-0.4,0-0.7-0.4-0.8-0.7
						C17.5,40,17.9,41.1,18.4,41z" />
                        <g class="st33">
                            <path class="st25" d="M6.4,39.6c-0.1-0.1-2.5-1.2-3.5-0.5c-0.2,0.1-0.3,0.3-0.3,0.5c0,0-0.1-0.1-0.1-0.2c0-0.1,0-0.2,0-0.3
							c0.1-0.2,0.2-0.3,0.3-0.4c0.3-0.2,0.6-0.2,0.9-0.3c0.3,0,0.7,0,1,0.1l0,0C5.4,38.9,5.9,39.2,6.4,39.6z" />
                        </g>
                        <path class="st34" d="M47.8,39.4c-0.2,0.3-0.5,0.7-1,0.9l0,0h-0.1c0,0,0,0-0.1,0l0,0c-0.2,0-0.7,0.1-0.6,0.1c0,0,0,0,0.1,0
						c0.1-0.1,0.2-0.1,0.4-0.2c1.4-0.6,1.1-2.4,0.7-2.8l0,0c-0.2-0.2-0.9-0.3-1.4-0.6c-0.1-0.1-0.2-0.1-0.2-0.2
						c-0.6-1,0.1-1.4-2.3-3.6c-0.5-0.4-1-1.8-1.2-2.5l0,0c0-0.1-0.1-0.2-0.1-0.3l0.1,0.2l0,0c0,0,0,0,0,0.1l0,0l0,0c0,0,0,0,0,0.1
						l0,0l0,0l0.1,0.1c0.1,0.1,0.1,0.2,0.1,0.3l0,0v0.1l0,0l0,0l0,0l0,0l0,0l0,0c0.3,0.6,0.7,1.2,1.1,1.8l0,0l0,0
						c0.2,0.3,0.4,0.5,0.6,0.7l0,0c0.4,0.3,0.7,0.5,1.1,0.9c0.6,0.8,0.3,1.7,0.7,1.8l0,0h0.1c0.1,0,0.2,0,0.2,0.1l0,0
						c0.5,0.1,0.8,0.4,1,0.5s0.3,0.3,0.4,0.5c0.1,0.1,0.2,0.3,0.2,0.4l0,0C48,38.3,48,38.9,47.8,39.4z" />
                        <path class="st22"
                            d="M9.5,28.1c-0.1,0.1-0.2,0.2-0.2,0.4c-0.1,0.1-1.8,3.8,1.1,6.2c0.2,0.1,1.2,0.8,1.6,0.8
						c0.4,0.1,0.8-0.1,0.9-0.5v-0.1c0-0.2,0.1-0.4-0.1-0.5c-0.2-0.1-4.2-1-3-5.7c0-0.1,0.1-0.3,0.1-0.4S9.6,28,9.5,28.1L9.5,28.1z" />
                        <path class="st22" d="M20.4,36.9c1.7,0.2,4.9,0.4,5.3,0.4c0.4,0,3.3,0,3.5,0c0.4-0.1,2-0.1,2.1-0.1c0.5-0.1,0.8,0,1.2-0.1
						c-0.1,0-0.6-0.3-5-0.3C21.6,36.9,20.6,36.8,20.4,36.9C20.2,36.9,20.3,36.9,20.4,36.9z" />
                        <path class="st35" d="M11.6,38.3c1.4,0.9,1.3,3.5,2.5,2.6c0.5-0.4,2-2.2,2.5-2.2c1.5,0,2.2,0.9,3,0.6c1.8-0.8,1.1-0.8,2.6,0.5
						c1.6,1.4,2-2.6,4.9-2c2.6,0.5,5.5,3.9,9,0.6c0.8-0.8,2.1-2,3.4-1.5c3.1,1.1,5.9,2.8,5-1.4c-0.1-0.3,1,0.7,0.8,1.5
						c-0.6,2.9-1.9,3-5.2,1.1c-2-1.2-2.7,3.3-8.9,1.7c-1.5-0.4-3.1-2.1-4.8-1.1c-2.2,1.3-3.2,3-4.6,1.7c-2.7-2.6-3.1,1.8-4.3-0.1
						c-0.9-1.5-2.2,1.4-3.8,1.8c-1.2,0.4-2.2-1.8-3-2.3c-0.9-0.5-2.5,0.4-5.7-0.9c-0.9-0.4-2.7-3,0.5-4.1c0.2-0.1-0.2,2.5,3.2,3.3
						C9.8,38.2,10.4,37.6,11.6,38.3z" />
                        <path class="st22" d="M2.6,39.7c0,0.5,0.5,1.1,0.8,1.4C3.4,41,3.3,41,3.3,41c-0.4-0.2-1.8-1.2-1.1-2.4c0.5-0.7,1.5-0.5,2.6,0
						c0.6,0.3,1.1,0.6,1.6,1c-0.1-0.1-2.5-1.2-3.5-0.5C2.7,39.3,2.6,39.5,2.6,39.7z" />
                        <path class="st31" d="M32.9,8.5c-0.1,0-0.1-0.1-0.1-0.1c-0.8-0.7-2.1-2-3.9-1.2c-0.5,0.2-1,0.8-1,0.7l0,0l0,0l0,0l0,0
						c0.6-0.8,0.9-0.9,1-0.9c0.3-0.1,0.7-0.2,1.1-0.2c0.5,0,0.9,0.1,1.3,0.3C31.3,6.9,32,7.1,32.9,8.5L32.9,8.5z" />
                        <path class="st36" d="M15.2,15.4c5.5-2.7,8.1,4.8,8.5,4c5-9.3,15.8-1.6,12,5.2c-1,1.8-2.2,3.9-7.7,2.4c-0.8-0.2-4-2.1-4.5-1.8
						C13.9,30.9,10.6,26,10.1,24C11.4,22.1,14.8,16,15.2,15.4z" />
                        <path class="st22" d="M45.5,39c0.1-0.1,0.1-0.1,0.6-0.7c0.5-0.6,1-0.4,0.9-0.8c-0.1-0.6-1-0.1-1.5,1.2
						C45.4,38.9,45.4,38.9,45.5,39C45.4,39,45.4,39,45.5,39L45.5,39z" />
                        <path class="st22" d="M10.9,39.6c0.6,0.2,1.2,1.3,1.3,1.6c-0.5-0.6-0.9-0.9-1.4-1.3c-0.3-0.2-0.8-0.3-1.1-0.4
						C9.6,39.5,10.4,39.5,10.9,39.6z" />
                        <path class="st25" d="M35.8,21.3c0,0,0.1,4.1-3,5.1s-8.2,0.8-8.4-5L35.8,21.3z" />

                        <ellipse transform="matrix(0.3707 -0.9287 0.9287 0.3707 -3.809 40.9679)" class="st37" cx="28.3"
                            cy="23.3" rx="2.2" ry="2.4" />
                        <ellipse transform="matrix(0.3896 -0.921 0.921 0.3896 -4.51 40.3701)" class="st25" cx="28.2"
                            cy="23.6" rx="0.5" ry="0.7" />

                        <ellipse transform="matrix(0.3896 -0.921 0.921 0.3896 -4.4203 38.8241)" class="st25" cx="27.1"
                            cy="22.7" rx="0.2" ry="0.3" />

                        <linearGradient id="SVGID_19_" gradientUnits="userSpaceOnUse" x1="-5037.1455" y1="-968.7433"
                            x2="-5037.0996" y2="-972.479" gradientTransform="matrix(-1 0 0 -1 -5007.0801 -950)">
                            <stop offset="0.41" style="stop-color:#231F20;stop-opacity:0.9" />
                            <stop offset="0.71" style="stop-color:#312E2F;stop-opacity:0.84" />
                            <stop offset="0.85" style="stop-color:#646162;stop-opacity:0.63" />
                            <stop offset="0.95" style="stop-color:#BCBABB;stop-opacity:0.28" />
                            <stop offset="1" style="stop-color:#FFFFFF;stop-opacity:0" />
                        </linearGradient>
                        <path class="st38"
                            d="M24.3,21.7c-0.8-4.6,11.4-3.2,11.5,0c0,0.2,0,0.7-0.1,0.8C35.8,22.5,24.4,21.9,24.3,21.7z" />
                        <path class="st3" d="M24.3,21.4c0,0-0.2-6.8,6.3-6.3c2.3,0.2,5.3,1.8,6.3,6.1L24.3,21.4z" />

                        <linearGradient id="SVGID_20_" gradientUnits="userSpaceOnUse" x1="24.2686" y1="-968.2369"
                            x2="36.8693" y2="-968.2369" gradientTransform="matrix(1 0 0 -1 0 -950)">
                            <stop offset="1.000000e-02" style="stop-color:#6B134C" />
                            <stop offset="7.000000e-02" style="stop-color:#73154D" />
                            <stop offset="0.61" style="stop-color:#B52155" />
                        </linearGradient>
                        <path class="st39" d="M24.3,21.4c0,0-0.2-6.8,6.3-6.3c2.3,0.2,5.3,1.8,6.3,6.1L24.3,21.4z" />

                        <linearGradient id="SVGID_21_" gradientUnits="userSpaceOnUse" x1="24.1" y1="-970.3111"
                            x2="36.8244" y2="-970.3111" gradientTransform="matrix(1 0 0 -1 0 -950)">
                            <stop offset="1.000000e-02" style="stop-color:#801951;stop-opacity:0.4" />
                            <stop offset="0.34" style="stop-color:#AF1D4D;stop-opacity:0.71" />
                            <stop offset="0.58" style="stop-color:#CE204A;stop-opacity:0.92" />
                            <stop offset="0.7" style="stop-color:#DA2149" />
                        </linearGradient>
                        <path class="st40" d="M24.1,21.2c0,0,12.6-4,12.7,0H24.1z" />
                        <path class="st41" d="M24.1,21.5c0.5,0,1,0.1,1.5,0c0.5,0,0.9,0,1.4,0c0.3,0,0.5,0,0.8,0c0.1,0,0.3,0,0.4,0s0.3,0,0.4,0
						c0.6,0,1.2,0,1.7,0H32c0.5,0,1.1,0,1.6,0s0.9,0,1.4,0s1.1,0,1.6,0h0.1c0.2,0,0.4-0.2,0.4-0.4s-0.2-0.4-0.4-0.4l0,0
						c-0.5,0-0.9,0-1.4,0s-0.9,0-1.3,0.1c-0.5,0-1,0-1.6,0.1c-1.2,0-2.3,0-3.5,0.1c-0.5,0-1.1,0.1-1.6,0.1s-1,0-1.4,0
						c-0.6,0-1.2,0-1.8,0H24C24,21.4,24,21.5,24.1,21.5L24.1,21.5z" />
                        <path class="st42" d="M34.7,17.5c-0.1,0.4-2.1-1.1-4-1.3c-1.8-0.2-3,0.2-3-0.2c0-0.4,1.5-0.8,3-0.7
						C32.3,15.5,34.8,17.1,34.7,17.5z" />

                        <radialGradient id="SVGID_22_" cx="26940.0723" cy="-11931" r="40.4974" fx="26947.5273"
                            fy="-11928.416" gradientTransform="matrix(0 0.12 -0.22 0 -2616.8398 -3207.5103)"
                            gradientUnits="userSpaceOnUse">
                            <stop offset="0.63" style="stop-color:#25A9E0;stop-opacity:0.2" />
                            <stop offset="0.74" style="stop-color:#229ACC;stop-opacity:0.27" />
                            <stop offset="0.85" style="stop-color:#186D90;stop-opacity:0.48" />
                            <stop offset="0.96" style="stop-color:#07222D;stop-opacity:0.84" />
                            <stop offset="1" style="stop-color:#000000" />
                        </radialGradient>
                        <path class="st43" d="M22.7,21.4c0.3,1.2-0.2,4.5-3.3,5.5c-3.6,1.1-8.4,0.9-8.7-5.4L22.7,21.4z" />
                        <g class="st44">
                            <path class="st45" d="M16.5,26.6c3.6,0.2,5.6-2.2,5.4-5.1c0-0.2,0.6-0.2,0.6,0c0.1,1-0.4,5.7-6.1,5.3
							C16.4,26.8,16.4,26.6,16.5,26.6z" />
                        </g>
                        <g class="st44">
                            <path class="st45" d="M16.5,26.6c3.6,0.2,5.6-2.2,5.4-5.1c0-0.2,0.6-0.2,0.6,0c0.1,1-0.4,5.7-6.1,5.3
							C16.4,26.8,16.4,26.6,16.5,26.6z" />
                        </g>
                        <g class="st44">
                            <path class="st45" d="M30.9,26.9c-3.6,0.2-6.3-2.4-6.1-5.3c0-0.2-0.4-0.2-0.4,0c-0.1,1,0.4,5.7,6.1,5.3c0.1,0,0.7-0.1,0.6-0.1
							L30.9,26.9z" />
                        </g>
                        <g class="st44">
                            <path class="st22" d="M34.4,24C34.4,24,34.5,23.9,34.4,24c0-0.1,0-0.1,0-0.1s0,0,0-0.1c0,0,0,0,0-0.1s-0.1-0.1-0.2-0.1
							c-0.1,0-0.1,0-0.2,0.1c0,0,0,0,0,0.1s0,0,0,0.1V24l0,0C34.2,24.1,34.3,24.1,34.4,24L34.4,24z" />
                        </g>
                        <g class="st44">
                            <path class="st22" d="M34.6,23.3c0.1-0.1,0.1-0.1,0.2-0.2c0.1-0.1,0.1-0.2,0.1-0.3c0-0.1,0.1-0.2,0.1-0.4c0-0.1,0-0.3,0-0.4
							s-0.1-0.1-0.2,0l0,0c-0.1,0.1,0,0.2-0.1,0.4c0,0.1,0,0.2-0.1,0.3c0,0.1,0,0.2-0.1,0.3c0,0.1-0.1,0.2-0.1,0.2
							c0,0.1,0,0.1,0,0.1C34.6,23.3,34.6,23.3,34.6,23.3L34.6,23.3z" />
                        </g>
                        <path class="st25" d="M11.2,21.3c0,0-0.1,4.1,3,5.1s8.2,0.8,8.4-5L11.2,21.3z" />

                        <ellipse transform="matrix(0.9287 -0.3707 0.3707 0.9287 -7.3342 8.6033)" class="st37" cx="18.7"
                            cy="23.4" rx="2.4" ry="2.2" />
                        <ellipse transform="matrix(0.921 -0.3896 0.3896 0.921 -7.7144 9.1918)" class="st25" cx="18.8"
                            cy="23.6" rx="0.7" ry="0.5" />
                        <ellipse transform="matrix(0.921 -0.3896 0.3896 0.921 -7.2754 9.5411)" class="st25" cx="19.9"
                            cy="22.7" rx="0.3" ry="0.2" />
                        <g class="st44">
                            <path class="st45" d="M16.1,26.8c3.6,0.2,6.3-2,6.3-5.3c0-0.2,0.3-0.1,0.3,0.1c0.1,1-0.4,5.7-6.1,5.3c-0.1,0-0.7-0.1-0.6-0.1
							L16.1,26.8z" />
                        </g>
                        <g class="st44">
                            <path class="st45"
                                d="M11.6,21.7c0.1-0.2-0.4-0.2-0.4,0c-0.1,1,0.6,4.9,4.2,5.1C12.4,26.4,11.3,22.6,11.6,21.7z" />
                        </g>

                        <linearGradient id="SVGID_23_" gradientUnits="userSpaceOnUse" x1="-6410.7856" y1="-968.7438"
                            x2="-6410.7397" y2="-972.4795" gradientTransform="matrix(1 0 0 -1 6427.7202 -950)">
                            <stop offset="0.41" style="stop-color:#231F20;stop-opacity:0.9" />
                            <stop offset="0.71" style="stop-color:#312E2F;stop-opacity:0.84" />
                            <stop offset="0.85" style="stop-color:#646162;stop-opacity:0.63" />
                            <stop offset="0.95" style="stop-color:#BCBABB;stop-opacity:0.28" />
                            <stop offset="1" style="stop-color:#FFFFFF;stop-opacity:0" />
                        </linearGradient>
                        <path class="st46"
                            d="M22.7,21.7c0.8-4.6-11.5-3.2-11.5,0c0,0.2,0,0.7,0.1,0.8C11.3,22.5,22.6,21.9,22.7,21.7z" />
                        <g class="st44">
                            <path class="st22" d="M12.9,24C12.9,24,12.9,23.9,12.9,24c0-0.1,0-0.1,0-0.1s0,0,0-0.1c0,0,0,0,0-0.1s-0.1-0.1-0.2-0.1
							c-0.1,0-0.1,0-0.2,0.1c0,0,0,0,0,0.1s0,0,0,0.1V24l0,0C12.6,24.1,12.7,24.1,12.9,24L12.9,24z" />
                        </g>
                        <g class="st44">
                            <path class="st22" d="M12.5,23.2c0-0.1-0.1-0.1-0.1-0.2s-0.1-0.2-0.1-0.3c0-0.1,0-0.2-0.1-0.3c0-0.1,0-0.3-0.1-0.4
							c0-0.1-0.1-0.1-0.2,0l0,0c-0.1,0.1,0,0.3,0,0.4s0,0.3,0.1,0.4c0,0.1,0.1,0.2,0.1,0.3c0.1,0.1,0.1,0.1,0.2,0.2h0.1
							C12.5,23.3,12.6,23.2,12.5,23.2L12.5,23.2z" />
                        </g>
                        <path class="st3" d="M22.8,21.4c0,0,0.2-6.8-6.3-6.3c-2.3,0.2-5.3,1.8-6.3,6.1L22.8,21.4z" />

                        <linearGradient id="SVGID_24_" gradientUnits="userSpaceOnUse" x1="1399.5813" y1="-973.4233"
                            x2="1407.8209" y2="-966.5094" gradientTransform="matrix(-1 0 0 -1 1420.6499 -950)">
                            <stop offset="1.000000e-02" style="stop-color:#6B134C" />
                            <stop offset="7.000000e-02" style="stop-color:#73154D" />
                            <stop offset="0.61" style="stop-color:#B52155" />
                        </linearGradient>
                        <path class="st47" d="M22.8,21.4c0,0,0.2-6.8-6.3-6.3c-2.3,0.2-5.3,1.8-6.3,6.1L22.8,21.4z" />

                        <linearGradient id="SVGID_25_" gradientUnits="userSpaceOnUse" x1="1397.707" y1="-970.3111"
                            x2="1410.4314" y2="-970.3111" gradientTransform="matrix(-1 0 0 -1 1420.6499 -950)">
                            <stop offset="0" style="stop-color:#801951;stop-opacity:0.2" />
                            <stop offset="9.000000e-02" style="stop-color:#8F1A50;stop-opacity:0.33" />
                            <stop offset="0.31" style="stop-color:#AF1D4D;stop-opacity:0.62" />
                            <stop offset="0.49" style="stop-color:#C61F4B;stop-opacity:0.82" />
                            <stop offset="0.62" style="stop-color:#D52149;stop-opacity:0.95" />
                            <stop offset="0.7" style="stop-color:#DA2149" />
                        </linearGradient>
                        <path class="st48" d="M22.9,21.2c0,0-12.6-4-12.7,0H22.9z" />
                        <path class="st41" d="M22.9,21.5c-0.5,0-1,0.1-1.5,0c-0.5,0-0.9,0-1.4,0c-0.3,0-0.5,0-0.8,0c-0.1,0-0.3,0-0.4,0s-0.3,0-0.4,0
						c-0.6,0-1.2,0-1.7,0H15c-0.5,0-1.1,0-1.6,0s-0.9,0-1.4,0s-1.1,0-1.6,0h-0.1c-0.2,0-0.4-0.2-0.4-0.4s0.2-0.4,0.4-0.4
						c0.5,0,0.9,0,1.4,0s0.9,0,1.3,0.1c0.5,0,1,0,1.6,0.1c1.2,0,2.3,0,3.5,0.1c0.5,0,1.1,0.1,1.6,0.1s1,0,1.4,0c0.6,0,1.2,0,1.8,0
						H23C23,21.4,23,21.5,22.9,21.5L22.9,21.5z" />
                        <path class="st42" d="M20.4,16.7c-0.1,0.4-1.4,0-2.9-0.2s-3.2,0.1-3.1-0.3c0.1-0.4,1.8-1,3.3-0.8
						C19.2,15.5,20.5,16.3,20.4,16.7z" />
                        <path class="st49" d="M34.7,29.7c0.1,1.5,0.1,2.5-0.6,2.9c-0.4,0.2-0.6,0.5-0.9,0.6c-0.5,0.3-1.1,0.5-1.7,0.7
						c-9.8,4-17.7-0.8-17.7-0.8c-0.9-0.4-1.8-1.3-1.8-1.9c0-1.4-0.3-2.9-1-4.2c0-0.1,0-0.1,0.1-0.2h0.1c4.1,1.4,8.9,2,12.5,1.8
						c6.8-0.4,11.7-2.5,11.7-2.5C35,27.8,34.6,28.2,34.7,29.7z" />
                        <path class="st34" d="M13.9,33.2c-0.9-0.4-1.8-1.3-1.8-1.9c0-1.4-0.3-2.9-1-4.2c0-0.1,0-0.1,0.1-0.2h0.1
						C15.3,28.4,13.9,33.2,13.9,33.2z" />
                        <path class="st50"
                            d="M34.4,32.3c-0.1,0.1-0.2,0.2-0.3,0.3C34.2,32.5,34.3,32.5,34.4,32.3C34.3,32.3,34.4,32.3,34.4,32.3z" />
                        <path class="st51" d="M39.9,22.7c-3.3,4.5-17.4,9.1-31.5,3.1c-0.1-0.1-0.2-0.5-0.2-0.5c16,7,30.4-0.5,31.6-2.9
						C39.9,22.5,39.9,22.6,39.9,22.7z" />
                        <path class="st34" d="M39.9,22.7c-1.4,1.8-4.5,3.7-8.7,4.9c-6.1,1.7-2.9,0.8,2.9-1.5c3.2-1.2,5.3-2.7,5.7-3.5
						C39.9,22.5,39.9,22.6,39.9,22.7z" />
                        <path class="st37" d="M38.9,23.7c-0.4,0.3-0.8,0.6-1.2,0.9s-0.8,0.5-1.2,0.7s-0.9,0.5-1.3,0.7l0,0c-2.4,0.9-13.1,4.7-23.6,1
						c0,0-1.1-0.4-1.6-0.5c-0.2-0.1-0.5-0.2-0.7-0.3c-0.2-0.1-0.5-0.2-0.7-0.3H8.5H8.4c-0.1,0-0.1-0.1-0.1-0.1
						c-0.1-0.1-0.1-0.2-0.1-0.3c0-0.1,0-0.2,0-0.4c0-0.1,0-0.1,0.1-0.2c0-0.1,0-0.1,0.1-0.2c0,0.1-0.1,0.1-0.1,0.2s0,0.1-0.1,0.2
						c0,0.1,0,0.2,0,0.4s0,0.3,0.1,0.4C8.3,26,8.4,26,8.4,26c0.6,0.5,3.1,1.7,3.3,1.9c0.2,0.7,0.5,2.1,0.6,3.6
						c0,0.6,0.6,1.1,1.6,1.6c0,0,7.5-1.6,19-0.2H33c1-0.4,1.3-1.2,1.3-2c0,0-0.3-2.6,1.1-4.4c1.7-0.8,3.3-2.2,3.7-2.5
						c0.3-0.3,0.6-0.8,0.8-1.2C39.6,23,39.3,23.4,38.9,23.7z" />

                        <radialGradient id="SVGID_26_" cx="-5615.7334" cy="-18066.9941" r="75.5889"
                            gradientTransform="matrix(0.11 0 0 -0.11 646.26 -1960.1699)" gradientUnits="userSpaceOnUse">
                            <stop offset="0.43" style="stop-color:#BE1E2D;stop-opacity:0.9" />
                            <stop offset="0.49" style="stop-color:#B81D2C;stop-opacity:0.87" />
                            <stop offset="0.57" style="stop-color:#A71A28;stop-opacity:0.79" />
                            <stop offset="0.66" style="stop-color:#8B1621;stop-opacity:0.66" />
                            <stop offset="0.75" style="stop-color:#641018;stop-opacity:0.47" />
                            <stop offset="0.84" style="stop-color:#32080C;stop-opacity:0.24" />
                            <stop offset="0.92" style="stop-color:#000000;stop-opacity:0" />
                        </radialGradient>
                        <path class="st52" d="M33.8,31.1c0,0.8,0.4,1.7-0.6,2.1l0,0c-10.7-1.2-19,0.1-19,0.1c-0.9-0.4-1.6-0.9-1.6-1.5
						c-0.1-2-0.6-4.1-0.6-4.1c3.9,1.4,8.1,1.9,12.2,1.7c6.8-0.4,11-2.4,11-2.4C33.6,29.1,33.8,31.1,33.8,31.1z" />
                        <path class="st53" d="M32.9,32.8c0,0-3.6,1.2-5.2,1.4c-8,1.3-13.9-1.3-13.9-1.3c2.3-1.3,4-2,5.4-2.3c1.8-0.4,2.8-0.1,3.3,0.1
						c0.3,0.2,0.6,0.1,0.8,0c0.5-0.3,1.7-0.6,4.2,0l0,0C29,31.1,30.7,31.7,32.9,32.8z" />
                        <path class="st25" d="M34.9,27.1c-0.1,0.4-0.8,1.1-3.2,1.8c-2.2,0.6-6.7,0.7-10.1,0.7c-3.9-0.1-7.1-0.3-7.5-0.3
						c-0.6-0.1-1.4-1-1.7-1.4c1.6,0.6,6.8,1.3,11.5,1.2c2.5-0.1,5.4-0.7,7.3-1.2c1.9-0.5,3.3-1.1,3.6-1.2
						C34.9,26.7,34.9,26.9,34.9,27.1z" />
                        <path class="st41" d="M34.9,26.5L34.9,26.5L34.9,26.5c-0.1,0-1.6,0.6-3.7,1.2c-1.9,0.5-4.8,1.2-7.3,1.2c-0.2,0-0.5,0-0.7,0
						c-4.7,0-9.7-0.8-11-1.4l-0.3-0.1l0.2,0.2c0.1,0.1,1.2,1.6,2,1.7c0.3,0.1,1.8,0.2,3.9,0.2h0.1c1.5,0.1,3.2,0.1,4.9,0.1
						c3.4,0,6.8-0.2,8.7-0.7l0.3-0.1c1-0.3,1.7-0.6,2.2-0.9c0.4-0.3,0.7-0.6,0.8-0.9C35.1,26.9,35,26.6,34.9,26.5z M34.9,27.1
						c-0.1,0.2-0.2,0.5-0.7,0.8c0-0.2,0-0.3-0.1-0.4c-0.1-0.2-0.3,0-0.2,0.1S34,27.8,34,28v0.1c-0.6,0.3-1.2,0.6-1.9,0.8
						c0.1-0.2,0.1-0.4,0.1-0.7c0-0.2-0.3-0.2-0.3,0s0,0.5-0.2,0.7c0,0,0,0,0,0.1l0,0c-2.2,0.6-6.7,0.7-10.1,0.7
						c-1.2,0-2.4-0.1-3.4-0.1v-0.1c-0.1-0.1-0.2-0.2-0.4-0.3c-0.1,0-0.2,0-0.2,0.1s0,0.1,0,0.2c0.1,0,0.1,0.1,0.2,0.1
						c-2-0.1-3.5-0.2-3.7-0.2c-0.6-0.1-1.4-1-1.7-1.4c1.6,0.6,6.8,1.3,11.5,1.2c2.5-0.1,5.4-0.7,7.3-1.2c1.9-0.5,3.3-1.1,3.6-1.2
						C34.9,26.7,34.9,26.9,34.9,27.1L34.9,27.1z" />

                        <radialGradient id="SVGID_27_" cx="-5619.6055" cy="-15222.5146" r="62.1314"
                            gradientTransform="matrix(0.11 0 0 -0.15 646.26 -2257.71)" gradientUnits="userSpaceOnUse">
                            <stop offset="0.39" style="stop-color:#FFFFFF;stop-opacity:0" />
                            <stop offset="0.4" style="stop-color:#F6F6F6;stop-opacity:3.000000e-02" />
                            <stop offset="1" style="stop-color:#000000" />
                        </radialGradient>
                        <path class="st54" d="M12.2,27.6c0,0,1.2,1.5,2,1.6s13.1,0.8,17.3-0.5c3.3-1,2.7-1.9,2.7-1.9s-5.4,1.9-10.3,2
						S13.4,28.2,12.2,27.6z" />
                        <g class="st55">
                            <path class="st41" d="M18.1,29.6H18H18.1z" />
                        </g>
                        <g class="st33">
                            <path class="st25"
                                d="M31.6,27.1C31.7,27.1,31.7,27.1,31.6,27.1c0.1-0.1,0-0.1,0-0.1S31.6,27,31.6,27.1L31.6,27.1L31.6,27.1z" />
                        </g>

                        <radialGradient id="SVGID_28_" cx="23.3891" cy="-982.4824" r="6.8916" fx="23.3894"
                            fy="-982.4824" gradientTransform="matrix(1 0 0 -1 0 -950)" gradientUnits="userSpaceOnUse">
                            <stop offset="0.22" style="stop-color:#E4333D" />
                            <stop offset="0.5" style="stop-color:#CC2D3D" />
                            <stop offset="1" style="stop-color:#A5223D" />
                        </radialGradient>
                        <path class="st56" d="M32.9,32.8c0,0-3.6,1.2-5.2,1.4c-8,1.3-13.9-1.3-13.9-1.3c2.3-1.3,4-2,5.4-2.3c1.8-0.4,2.8-0.1,3.3,0.1
						c0.3,0.2,0.6,0.1,0.8,0c0.5-0.3,1.7-0.6,4.2,0l0,0C29,31.1,30.7,31.7,32.9,32.8z" />
                        <path class="st22"
                            d="M17,32.1c-0.3,0.8,3.8,0.2,4.5-0.4c0.7-0.7-1-0.9-2.1-0.7C17.9,31.3,17.1,31.5,17,32.1z" />
                        <path class="st22"
                            d="M27.7,31.7c-0.4,0.9-4.1,0.7-3.7-0.2c0.2-0.6,1.3-0.9,2-0.8C26.8,30.9,28,31.1,27.7,31.7z" />
                        <path class="st57" d="M27.6,30.7c-1-0.1-3.9-0.8-4.4,1.8c-0.5-2.2-2.1-1.9-4-1.9c1.8-0.4,2.8-0.1,3.3,0.1
						c0.3,0.2,0.6,0.1,0.8,0C23.9,30.4,25.1,30.1,27.6,30.7z" />
                        <path class="st34" d="M26.1,35.4c3.4,0,7.4-1.7,8.2-3C32.3,33.9,29.4,34.9,26.1,35.4z" />

                        <ellipse transform="matrix(0.2159 -0.9764 0.9764 0.2159 0.1528 48.8213)" class="st58" cx="30.5"
                            cy="24.3" rx="1.3" ry="2.2" />

                        <ellipse transform="matrix(0.9595 -0.2817 0.2817 0.9595 -6.1724 5.6344)" class="st58" cx="16.5"
                            cy="24.3" rx="2.2" ry="1.3" />

                        <radialGradient id="SVGID_29_" cx="17.9374" cy="474.7757" r="7.9376"
                            gradientTransform="matrix(1 0 0 1 0 -450)" gradientUnits="userSpaceOnUse">
                            <stop offset="0" style="stop-color:#FFFFFF;stop-opacity:0" />
                            <stop offset="1" style="stop-color:#540C3C;stop-opacity:0.6" />
                        </radialGradient>
                        <path class="st59" d="M22.7,21.4c0.5,2.6-1.4,5.2-4,5.7c-3.5,0.6-7.3-0.2-7.5-5.4L22.7,21.4z" />

                        <radialGradient id="SVGID_30_" cx="29.9168" cy="475.3617" r="8.0723"
                            gradientTransform="matrix(1 0 0 1 0 -450)" gradientUnits="userSpaceOnUse">
                            <stop offset="0" style="stop-color:#FFFFFF;stop-opacity:0" />
                            <stop offset="1" style="stop-color:#540C3C;stop-opacity:0.6" />
                        </radialGradient>
                        <path class="st60" d="M24.5,21.3c-0.5,2.6,1.4,5.2,4,5.5c3.5,0.4,7.2-0.2,7.4-5.3L24.5,21.3z" />
                    </g>
                </g>
            </g>
        </g>
    </g>
</svg>