<svg width="93" height="17" viewBox="0 0 93 17" fill="none" xmlns="http://www.w3.org/2000/svg">
<path d="M4.19402 13.559L0.747803 1.54272H3.52936L5.52334 9.89136H5.62361L7.82297 1.54272H10.2051L12.398 9.90911H12.5031L14.4971 1.54272H17.2786L13.8324 13.559H11.3517L9.0585 5.70252H8.9647L6.67801 13.559H4.19402Z" fill="#3A434E"/>
<path d="M21.0934 8.34878V13.559H18.5884V1.54272H21.0222V6.13657H21.1274C21.3311 5.60409 21.661 5.18779 22.1154 4.88444C22.5699 4.58109 23.1407 4.42941 23.8264 4.42941C24.4539 4.42941 25.0021 4.56495 25.4695 4.83764C25.9385 5.11034 26.3023 5.49921 26.5627 6.00587C26.8231 6.51254 26.9524 7.11763 26.9476 7.82115V13.559H24.4426V8.26649C24.4458 7.71142 24.3067 7.27898 24.0221 6.96918C23.7375 6.66098 23.3413 6.50608 22.8319 6.50608C22.4906 6.50608 22.1898 6.57869 21.9295 6.72391C21.6691 6.86914 21.4653 7.0789 21.3182 7.35482C21.1726 7.63074 21.0966 7.96153 21.0934 8.34878Z" fill="#3A434E"/>
<path d="M30.1887 3.38555C29.8168 3.38555 29.4966 3.26131 29.2298 3.01282C28.9629 2.76433 28.8303 2.46582 28.8303 2.11728C28.8303 1.77359 28.9629 1.47669 29.2298 1.2282C29.4966 0.979714 29.8136 0.855469 30.1823 0.855469C30.5591 0.855469 30.8793 0.979714 31.1429 1.2282C31.4081 1.47669 31.5391 1.77359 31.5391 2.11728C31.5391 2.46582 31.4065 2.76433 31.1429 3.01282C30.8809 3.26131 30.5623 3.38555 30.1887 3.38555ZM28.9257 13.5591V4.54733H31.4307V13.5591H28.9257Z" fill="#3A434E"/>
<path d="M38.2325 4.54739V6.42559H32.7939V4.54739H38.2325ZM34.0295 2.38843H36.5345V10.7903C36.5345 11.0211 36.5701 11.2002 36.6396 11.3276C36.7108 11.4551 36.8094 11.5439 36.9372 11.5939C37.0649 11.6455 37.2121 11.6697 37.3819 11.6697C37.4999 11.6697 37.6164 11.6584 37.7344 11.6374C37.8525 11.6165 37.9414 11.5987 38.0045 11.5874L38.3991 13.4479C38.273 13.4866 38.0967 13.5334 37.8703 13.585C37.6439 13.6367 37.3673 13.6705 37.0407 13.6818C36.4375 13.706 35.9086 13.6254 35.4558 13.4414C35.003 13.2575 34.6505 12.9719 34.3998 12.5846C34.1491 12.1974 34.0262 11.7084 34.0295 11.1179V2.38843Z" fill="#3A434E"/>
<path d="M43.8828 13.7349C42.9529 13.7349 42.1557 13.5461 41.4862 13.1686C40.8183 12.791 40.304 12.2553 39.9434 11.5614C39.5827 10.8676 39.4016 10.0447 39.4016 9.09429C39.4016 8.16648 39.5811 7.35324 39.9434 6.65295C40.304 5.95266 40.8134 5.40727 41.47 5.01678C42.1266 4.6263 42.898 4.42944 43.7842 4.42944C44.3793 4.42944 44.9356 4.52464 45.4515 4.71343C45.9674 4.90383 46.4186 5.18782 46.8035 5.56701C47.19 5.9462 47.4908 6.42221 47.7058 6.99503C47.9209 7.56785 48.0293 8.23748 48.0293 9.00393V9.6897H40.4026V8.14067H45.6714C45.6714 7.78084 45.5938 7.46135 45.4369 7.18382C45.2801 6.90628 45.0634 6.68845 44.7868 6.53032C44.5103 6.37219 44.1901 6.29312 43.8262 6.29312C43.4462 6.29312 43.1098 6.38026 42.8171 6.55452C42.5244 6.72879 42.2964 6.96114 42.1314 7.2532C41.9665 7.54526 41.8824 7.86797 41.8791 8.22457V9.69777C41.8791 10.1431 41.9616 10.5288 42.1298 10.8531C42.2964 11.1774 42.5325 11.4275 42.8381 11.6034C43.1438 11.7793 43.506 11.868 43.9265 11.868C44.2046 11.868 44.4602 11.8293 44.6914 11.7502C44.9227 11.6728 45.12 11.555 45.2849 11.3985C45.4499 11.242 45.5744 11.0499 45.6617 10.824L47.9791 10.9773C47.8611 11.5324 47.6217 12.0165 47.2595 12.4295C46.8972 12.8426 46.4299 13.1637 45.8606 13.3912C45.2914 13.6188 44.6283 13.7349 43.8828 13.7349Z" fill="#3A434E"/>
<path d="M56.243 4.99924C56.1961 4.52646 55.9939 4.15857 55.6365 3.89555C55.2791 3.63415 54.7956 3.50184 54.1843 3.50184C53.7687 3.50184 53.4178 3.55993 53.1315 3.67449C52.8453 3.79067 52.627 3.9488 52.4766 4.15211C52.3262 4.35542 52.2502 4.58616 52.2502 4.84434C52.2421 5.05894 52.289 5.24773 52.3876 5.40747C52.4879 5.56722 52.6253 5.70599 52.8016 5.82055C52.9779 5.93673 53.1817 6.03515 53.4129 6.11906C53.6442 6.20297 53.8916 6.27396 54.1536 6.33367L55.2355 6.59184C55.7611 6.70963 56.243 6.86614 56.6812 7.06139C57.1195 7.25663 57.5011 7.49705 57.8213 7.78266C58.1432 8.06826 58.3922 8.40388 58.5717 8.79114C58.7512 9.1784 58.8418 9.62213 58.845 10.1223C58.8418 10.8581 58.6542 11.4939 58.2839 12.0312C57.9135 12.5685 57.3799 12.9864 56.6845 13.2801C55.9891 13.5754 55.1514 13.7238 54.1714 13.7238C53.1994 13.7238 52.3537 13.5754 51.634 13.2785C50.9144 12.9816 50.3548 12.5395 49.9521 11.9554C49.5511 11.3712 49.3392 10.6468 49.3198 9.78187H51.7828C51.8103 10.1853 51.9267 10.5209 52.1321 10.7887C52.3375 11.0566 52.614 11.2583 52.9617 11.3938C53.3094 11.5294 53.7024 11.5955 54.1406 11.5955C54.5724 11.5955 54.9476 11.5326 55.2662 11.4084C55.5864 11.2825 55.8338 11.1098 56.0101 10.8856C56.1864 10.6629 56.2753 10.4063 56.2753 10.1175C56.2753 9.84803 56.1961 9.62052 56.0376 9.43657C55.8791 9.25262 55.6479 9.09611 55.3438 8.96702C55.0398 8.83793 54.6678 8.72014 54.2296 8.61526L52.9181 8.28609C51.9025 8.03921 51.1003 7.65518 50.5133 7.13077C49.9247 6.60636 49.6336 5.90123 49.6368 5.01215C49.6336 4.28442 49.8276 3.64868 50.2222 3.1049C50.6168 2.56113 51.1586 2.13676 51.8475 1.83179C52.538 1.52682 53.3207 1.37354 54.1989 1.37354C55.0932 1.37354 55.8743 1.52682 56.5422 1.83179C57.21 2.13676 57.7308 2.56113 58.1027 3.1049C58.4747 3.64868 58.6671 4.27797 58.6785 4.9944H56.243V4.99924Z" fill="#C9A02F"/>
<path d="M62.288 13.5592L59.8298 4.54736H62.364L63.7628 10.6015H63.8453L65.304 4.54736H67.7912L69.2726 10.5676H69.3486L70.7248 4.54736H73.2525L70.8008 13.5592H68.1486L66.5961 7.8923H66.4845L64.932 13.5592H62.288Z" fill="#C9A02F"/>
<path d="M77.1581 13.7284C76.5824 13.7284 76.0681 13.6284 75.6169 13.4267C75.1657 13.225 74.8099 12.9265 74.5496 12.5295C74.2892 12.1326 74.1582 11.6372 74.1582 11.0418C74.1582 10.5416 74.2504 10.1205 74.4347 9.78C74.6191 9.43954 74.8698 9.16523 75.1867 8.95869C75.5037 8.75216 75.8659 8.59564 76.2719 8.48914C76.6778 8.38265 77.1047 8.31004 77.551 8.26647C78.0766 8.21161 78.5003 8.15997 78.8205 8.11157C79.1424 8.06316 79.3752 7.98894 79.5208 7.89212C79.6663 7.79369 79.7391 7.65009 79.7391 7.45807V7.42257C79.7391 7.05145 79.6227 6.76423 79.3898 6.56092C79.1569 6.35761 78.827 6.25596 78.3985 6.25596C77.9473 6.25596 77.5882 6.35438 77.323 6.55285C77.0562 6.74971 76.8799 6.9982 76.7942 7.2951L74.4768 7.10792C74.5948 6.56092 74.8261 6.08653 75.1706 5.68475C75.515 5.28458 75.9614 4.97478 76.508 4.75856C77.0546 4.54073 77.6885 4.43262 78.4098 4.43262C78.9111 4.43262 79.393 4.49071 79.8539 4.6085C80.3148 4.72629 80.724 4.90701 81.083 5.15388C81.442 5.40076 81.725 5.71541 81.932 6.10105C82.139 6.4867 82.2441 6.94657 82.2441 7.48227V13.5606H79.8685V12.3117H79.7973C79.6518 12.5941 79.4577 12.841 79.2151 13.0539C78.9726 13.2669 78.6798 13.4331 78.3386 13.5525C77.999 13.6687 77.606 13.7284 77.1581 13.7284ZM77.8761 12.0035C78.2448 12.0035 78.5699 11.9309 78.8529 11.7841C79.1359 11.6372 79.3558 11.4388 79.5175 11.1887C79.6776 10.9386 79.7585 10.6546 79.7585 10.3383V9.38145C79.6793 9.43147 79.5725 9.47827 79.4383 9.5186C79.3025 9.55894 79.1504 9.59606 78.9823 9.62994C78.8141 9.66383 78.6459 9.69287 78.4761 9.71869C78.3079 9.7445 78.1543 9.7671 78.0168 9.78646C77.7225 9.83003 77.4653 9.89779 77.247 9.99138C77.0271 10.085 76.8573 10.2108 76.736 10.3706C76.6147 10.5287 76.5532 10.7256 76.5532 10.9595C76.5532 11.3 76.6778 11.5582 76.9268 11.7373C77.1759 11.9148 77.4912 12.0035 77.8761 12.0035Z" fill="#C9A02F"/>
<path d="M84.1912 16.9379V4.54723H86.6606V6.06077H86.7722C86.8821 5.81873 87.0423 5.57024 87.2509 5.31852C87.4611 5.06681 87.7344 4.85543 88.074 4.68439C88.4136 4.51496 88.8357 4.42944 89.3419 4.42944C90.0001 4.42944 90.6081 4.60048 91.1645 4.94256C91.7208 5.28464 92.1655 5.79937 92.4986 6.48514C92.8318 7.17091 92.9983 8.03094 92.9983 9.06363C92.9983 10.0689 92.8366 10.916 92.5132 11.6066C92.1897 12.2972 91.7515 12.8184 91.1968 13.1734C90.6421 13.5268 90.0211 13.7043 89.3354 13.7043C88.8486 13.7043 88.4363 13.6236 88.0983 13.4638C87.7603 13.3041 87.4821 13.1008 87.2654 12.8571C87.0503 12.6135 86.8854 12.365 86.7722 12.1149H86.6962V16.9379H84.1912ZM86.6428 9.05233C86.6428 9.58804 86.7172 10.056 86.866 10.4545C87.0148 10.8531 87.2298 11.1629 87.5129 11.3839C87.7959 11.605 88.1387 11.7147 88.5414 11.7147C88.9489 11.7147 89.2934 11.6018 89.5764 11.3775C89.8594 11.1532 90.0728 10.8402 90.22 10.4384C90.3672 10.0382 90.4399 9.57513 90.4399 9.05072C90.4399 8.53115 90.3672 8.0729 90.2216 7.67757C90.0761 7.28224 89.8626 6.97405 89.5812 6.74976C89.2982 6.52709 88.9521 6.41575 88.5398 6.41575C88.1322 6.41575 87.7878 6.52386 87.508 6.73847C87.2282 6.95307 87.0131 7.25804 86.8644 7.65337C86.7172 8.05192 86.6428 8.51663 86.6428 9.05233Z" fill="#C9A02F"/>
</svg>
