<svg xmlns="http://www.w3.org/2000/svg" width="356.295" height="117.497" viewBox="0 0 356.295 117.497"><g transform="translate(-19.724 -44.407)"><g transform="translate(154.654 85.03)"><path d="M171.891,90.219h6.667v15.1h13.015v-15.1h6.668v36.252h-6.668v-18.29H178.558v18.29h-6.667Z" transform="translate(-171.891 -90.219)" fill="#fff"/><path d="M222.835,90.219h7.576L239,110.334l8.588-20.115h6.3L241.7,116.033v10.438h-6.659V116.033Z" transform="translate(-177.661 -90.219)" fill="#fff"/><path d="M285.752,93.28v30.13h3.286a10.141,10.141,0,0,0,8.795-4.263,18.223,18.223,0,0,0,3.044-10.845,18.045,18.045,0,0,0-3.044-10.8,10.168,10.168,0,0,0-8.795-4.221Zm-6.667-3.061h9.832q9.276,0,14.373,5.1A17.567,17.567,0,0,1,308.4,108.3a17.706,17.706,0,0,1-5.111,13.041q-5.1,5.123-14.373,5.128h-9.832Z" transform="translate(-184.033 -90.219)" fill="#fff"/><path d="M334.506,90.219h13.983a11.274,11.274,0,0,1,7.758,2.542,8.221,8.221,0,0,1,2.862,6.4A7.5,7.5,0,0,1,356.5,105.1a9.409,9.409,0,0,1-6.407,2.266h-1.47q3.06.662,9.832,10.594,2.349,3.438,5.769,8.51h-8.233q-2.127-3.477-4.505-7.42-6.539-10.869-10.239-10.87h-.069v18.29h-6.667Zm6.667,2.81v12.315h4.453a5.862,5.862,0,0,0,4.359-1.816,6,6,0,0,0,1.773-4.367,5.743,5.743,0,0,0-1.885-4.384,7.117,7.117,0,0,0-5.033-1.748Z" transform="translate(-190.311 -90.219)" fill="#fff"/><path d="M402.311,97.336l-3.874,13.5h7.723Zm-2.966-7.117h5.881l12.393,36.252h-6.97L406.973,113.7H397.6l-3.675,12.773h-6.961Z" transform="translate(-196.253 -90.219)" fill="#fff"/></g><path d="M108.716,62.259a1.02,1.02,0,0,1,.951.192,2.976,2.976,0,0,1,.723.864c.259.379.613.849.789,1.084s.177.235.021.177a3.609,3.609,0,0,1-.806-.4c-.337-.225-.7-.562-1.011-.742s-.593-.2-.734-.414A.614.614,0,0,1,108.716,62.259Zm18.525,49.708c.229.117.336.558.309.919a2.966,2.966,0,0,1-.39,1.059c-.2.414-.427.954-.543,1.226s-.114.271-.143.106a3.661,3.661,0,0,1-.059-.9c.029-.4.141-.881.137-1.246s-.124-.613-.008-.843S127.013,111.853,127.242,111.966Zm-33.787,40.9c.014.256-.312.568-.642.726a2.942,2.942,0,0,1-1.109.192c-.456.036-1.04.106-1.334.143s-.291.036-.164-.07a3.6,3.6,0,0,1,.749-.5c.362-.18.833-.32,1.146-.506s.47-.411.726-.427S93.442,152.608,93.455,152.865Zm-52.313-8.813c-.213.141-.649.014-.949-.192a3.027,3.027,0,0,1-.722-.867c-.258-.375-.611-.846-.788-1.081s-.176-.235-.021-.178a3.662,3.662,0,0,1,.807.4c.334.225.693.562,1.01.739s.594.2.734.418A.606.606,0,0,1,41.142,144.052ZM22.619,94.341c-.227-.113-.337-.554-.308-.918a3,3,0,0,1,.389-1.057c.2-.413.427-.954.541-1.225s.117-.271.145-.106a3.829,3.829,0,0,1,.059.9c-.029.405-.14.882-.136,1.249s.121.613.007.842S22.85,94.457,22.619,94.341ZM75.826,54.214a14.827,14.827,0,0,0-3.717.326,4.715,4.715,0,0,0,.482-1.922c.6,0,1.422,0,1.79.012.61.017,1.2.051,1.765.1A5.617,5.617,0,0,1,75.826,54.214Zm4.145.906a11.74,11.74,0,0,0-2.92-.8,5.986,5.986,0,0,0,.476-1.437,19.926,19.926,0,0,1,3.207.715A5.589,5.589,0,0,1,79.971,55.12Zm3.39,2.239a10.815,10.815,0,0,0-2.328-1.726,5.96,5.96,0,0,0,1.026-1.544,12.343,12.343,0,0,1,2.864,1.664A5.444,5.444,0,0,1,83.361,57.359ZM85.6,60.487a10.954,10.954,0,0,0-1.463-2.29,6.253,6.253,0,0,0,1.885-1.444,9.989,9.989,0,0,1,1.83,2.687A5.46,5.46,0,0,1,85.6,60.487Zm1.047,3.9a11.174,11.174,0,0,0-.619-2.868,5.916,5.916,0,0,0,2.364-.666,13.436,13.436,0,0,1,.553,3.215A5.375,5.375,0,0,1,86.646,64.383Zm-.382,4a11.529,11.529,0,0,0,.419-2.862,6.076,6.076,0,0,0,2.274.067,21.234,21.234,0,0,1-.367,3.189A5.372,5.372,0,0,1,86.264,68.38ZM32.993,77.908a14.876,14.876,0,0,0-1.576,3.382,4.746,4.746,0,0,0-1.423-1.378c.3-.52.713-1.231.905-1.545.319-.52.643-1.01.97-1.478A5.6,5.6,0,0,1,32.993,77.908Zm2.858-3.135A11.764,11.764,0,0,0,33.7,76.9,5.986,5.986,0,0,0,32.7,75.773a19.942,19.942,0,0,1,2.222-2.421A5.6,5.6,0,0,1,35.851,74.773Zm3.635-1.816a10.839,10.839,0,0,0-2.659,1.153A5.983,5.983,0,0,0,36,72.449,12.329,12.329,0,0,1,38.875,70.8,5.456,5.456,0,0,1,39.485,72.957Zm3.827-.374a10.97,10.97,0,0,0-2.715.122,6.252,6.252,0,0,0-.309-2.356,10,10,0,0,1,3.243-.241A5.471,5.471,0,0,1,43.313,72.583Zm3.9,1.041a11.224,11.224,0,0,0-2.793-.9,5.9,5.9,0,0,0,.6-2.38,13.4,13.4,0,0,1,3.062,1.129A5.382,5.382,0,0,1,47.211,73.624Zm3.271,2.329a11.5,11.5,0,0,0-2.27-1.794,6.049,6.049,0,0,0,1.2-1.935,21.28,21.28,0,0,1,2.578,1.913A5.361,5.361,0,0,1,50.482,75.952ZM32.1,126.851a14.87,14.87,0,0,0,2.141,3.056,4.715,4.715,0,0,0-1.9.544c-.3-.518-.71-1.233-.886-1.557-.291-.536-.553-1.061-.8-1.578A5.607,5.607,0,0,1,32.1,126.851Zm-1.285-4.043a11.708,11.708,0,0,0,.77,2.926,5.982,5.982,0,0,0-1.481.306,19.894,19.894,0,0,1-.985-3.135A5.552,5.552,0,0,1,30.811,122.808Zm.245-4.055a10.846,10.846,0,0,0-.333,2.878,5.989,5.989,0,0,0-1.85-.117,12.337,12.337,0,0,1,.01-3.312A5.455,5.455,0,0,1,31.055,118.753Zm1.59-3.5a10.986,10.986,0,0,0-1.252,2.412,6.261,6.261,0,0,0-2.195-.911,10,10,0,0,1,1.412-2.929A5.457,5.457,0,0,1,32.645,115.252ZM35.5,112.4a11.236,11.236,0,0,0-2.174,1.97,5.9,5.9,0,0,0-1.758-1.715,13.346,13.346,0,0,1,2.508-2.087A5.37,5.37,0,0,1,35.5,112.4Zm3.652-1.669a11.538,11.538,0,0,0-2.689,1.069,6.064,6.064,0,0,0-1.078-2,21.33,21.33,0,0,1,2.945-1.276A5.361,5.361,0,0,1,39.148,110.728ZM74.035,152.1a14.83,14.83,0,0,0,3.717-.327,4.722,4.722,0,0,0-.482,1.922c-.6,0-1.422,0-1.791-.011-.609-.017-1.2-.052-1.765-.1A5.617,5.617,0,0,1,74.035,152.1Zm-4.145-.907a11.74,11.74,0,0,0,2.92.8,6,6,0,0,0-.476,1.437,19.813,19.813,0,0,1-3.207-.714A5.58,5.58,0,0,1,69.89,151.19ZM66.5,148.951a10.811,10.811,0,0,0,2.327,1.726,6.016,6.016,0,0,0-1.028,1.545,12.3,12.3,0,0,1-2.863-1.665A5.44,5.44,0,0,1,66.5,148.951Zm-2.238-3.127a10.929,10.929,0,0,0,1.464,2.29,6.273,6.273,0,0,0-1.888,1.446,10,10,0,0,1-1.83-2.687A5.468,5.468,0,0,1,64.264,145.823Zm-1.046-3.9a11.172,11.172,0,0,0,.618,2.868,5.887,5.887,0,0,0-2.365.666,13.349,13.349,0,0,1-.554-3.215A5.384,5.384,0,0,1,63.218,141.928Zm.38-4a11.488,11.488,0,0,0-.419,2.862,6.087,6.087,0,0,0-2.275-.068,21.355,21.355,0,0,1,.367-3.188A5.379,5.379,0,0,1,63.6,137.931Zm53.27-9.527a14.8,14.8,0,0,0,1.576-3.382,4.741,4.741,0,0,0,1.423,1.376c-.3.521-.713,1.232-.906,1.546-.318.52-.642,1.01-.969,1.477A5.613,5.613,0,0,1,116.868,128.4Zm-2.858,3.135a11.675,11.675,0,0,0,2.149-2.13,6.04,6.04,0,0,0,1.006,1.13,19.866,19.866,0,0,1-2.222,2.42A5.579,5.579,0,0,1,114.01,131.538Zm-3.634,1.816a10.913,10.913,0,0,0,2.659-1.152,5.962,5.962,0,0,0,.823,1.66,12.292,12.292,0,0,1-2.873,1.648A5.417,5.417,0,0,1,110.376,133.354Zm-3.828.373a10.97,10.97,0,0,0,2.715-.121,6.245,6.245,0,0,0,.309,2.355,10,10,0,0,1-3.243.242A5.476,5.476,0,0,1,106.548,133.728Zm-3.9-1.042a11.214,11.214,0,0,0,2.793.9,5.911,5.911,0,0,0-.607,2.381,13.429,13.429,0,0,1-3.061-1.129A5.378,5.378,0,0,1,102.651,132.686Zm-3.27-2.329a11.493,11.493,0,0,0,2.269,1.794,6.084,6.084,0,0,0-1.2,1.937,21.274,21.274,0,0,1-2.577-1.913A5.37,5.37,0,0,1,99.381,130.357Zm18.384-50.9a14.87,14.87,0,0,0-2.141-3.056,4.719,4.719,0,0,0,1.9-.544c.3.518.71,1.233.886,1.557.291.536.553,1.061.795,1.578A5.585,5.585,0,0,1,117.765,79.46ZM119.05,83.5a11.7,11.7,0,0,0-.771-2.926,6,6,0,0,0,1.482-.306,19.864,19.864,0,0,1,.985,3.135A5.607,5.607,0,0,1,119.05,83.5Zm-.245,4.055a10.814,10.814,0,0,0,.332-2.878,6.02,6.02,0,0,0,1.85.117,12.3,12.3,0,0,1-.009,3.312A5.455,5.455,0,0,1,118.806,87.558Zm-1.59,3.5a10.893,10.893,0,0,0,1.251-2.413,6.258,6.258,0,0,0,2.2.912,10.02,10.02,0,0,1-1.412,2.929A5.457,5.457,0,0,1,117.216,91.059Zm-2.851,2.854a11.205,11.205,0,0,0,2.174-1.969,5.91,5.91,0,0,0,1.759,1.715,13.413,13.413,0,0,1-2.508,2.088A5.39,5.39,0,0,1,114.365,93.914Zm-3.652,1.668a11.522,11.522,0,0,0,2.689-1.068,6.086,6.086,0,0,0,1.079,2,21.227,21.227,0,0,1-2.945,1.275A5.361,5.361,0,0,1,110.712,95.582Zm11.253.68a24.052,24.052,0,0,1-13.381,8.592,5.127,5.127,0,0,0,2.286-2.3h0a27.561,27.561,0,0,1-5.007.5c-2.6.028-5.884-.388-8.835-.554-7.165-.513-14.588-.783-19.859,4.206.02.027,9.476-4.478,14.287,3.578l-.06-.036c2.142,3.591,3.116,8.022,4.7,14.15a13.361,13.361,0,0,0,2.539,5.127,6.266,6.266,0,0,0-1.881,1.629,37.51,37.51,0,0,1-5.025-6.122s5.765,12.6,15.223,12.424c8.3-.153,12.584-8.05,13.515-10,.13-.271.95-1.9.951-1.9-4.484-4.534-3.428-12.063-.3-16.281A11.409,11.409,0,0,0,118,112.89c-.763,1.831-.245,6.347-.666,8.454l0,.026c-.865,3.621-2.41,6.587-5.875,8.7-4.879,2.975-10.8-.536-13.078-5.118,5.539,5.382,14.024,7.313,16.505-3.961a41.856,41.856,0,0,0,.678-6.266,6.331,6.331,0,0,1,.884-3.283c.852-1.369,2.438-2.569,3.6-4.165a11.9,11.9,0,0,0,2.1-5,2.489,2.489,0,0,0-.27-2c-.25-.558,1.287-1.236,1.679-1.554-.221.229-.184.478-.2.756a6.335,6.335,0,0,0,.276,1.049,9.939,9.939,0,0,1,.106,1.566c.024.576.08,1.174.108,1.476s.028.3.1-.109a17.461,17.461,0,0,1,.412-1.944c.2-.715.483-1.325.668-1.955a11.409,11.409,0,0,0,.313-1.6c.043-.325.043-.325-.068-.212a2.826,2.826,0,0,1-.593.49,2.124,2.124,0,0,1-.807.255l-.008,0a4.7,4.7,0,0,0,1.1-1.529c.191-.381.191-.381.682-.169a6.56,6.56,0,0,1,2.161,1.364,4.3,4.3,0,0,1,1.129,2.888,26.436,26.436,0,0,1-.571,3.644,29.6,29.6,0,0,0-.226,3.75c-.007.793-.007.793.294.936a2.752,2.752,0,0,1,1.521,3.725c-.365,1.216-1.288,2.757-1.877,4.225a8.676,8.676,0,0,0-.641,4.482,27.041,27.041,0,0,0,1.507,5.306,2.687,2.687,0,0,1-1.506-.676,11.176,11.176,0,0,1-1.436-1.835c-.131-.193-.2-.3-.3-.326a19.6,19.6,0,0,1-2.471,6.7,18.625,18.625,0,0,1-4.812,5.527,18.128,18.128,0,0,1-13.992,3.926l0,0a24.058,24.058,0,0,1-14.132-7.292,5.129,5.129,0,0,0,3.135.83h0a27.472,27.472,0,0,1-2.934-4.087c-1.333-2.252-2.62-5.325-3.96-7.973-3.133-6.446-6.611-12.987-13.551-15.052-.012.03,8.616,5.967,4.045,14.162l0-.07a19.944,19.944,0,0,1-1.068,1.7h0l-.014.02c-2.062,2.947-5.032,5.7-8.823,9.426a13.337,13.337,0,0,0-3.17,4.763,6.275,6.275,0,0,0-2.352-.815,37.559,37.559,0,0,1,2.79-7.412s-8.028,11.292-3.148,19.4c4.284,7.113,13.264,6.873,15.419,6.7.3-.024,2.119-.128,2.125-.129,1.684-6.15,8.732-9,13.95-8.4a11.4,11.4,0,0,0-4.7-.893c-1.968.255-5.62,2.962-7.655,3.651h0c-3.576,1.066-6.924,1.219-10.5-.729-5.018-2.738-4.937-9.622-2.11-13.883-1.891,7.487.68,15.8,11.685,12.311a41.8,41.8,0,0,0,5.765-2.544,6.325,6.325,0,0,1,3.285-.875c1.612.051,3.443.826,5.408,1.035a11.907,11.907,0,0,0,5.376-.685c1.317-.543,1.331-.868,1.6-1.233.356-.495,1.713.5,2.183.677-.308-.077-.505.079-.753.207s-.434.465-.769.766a10.325,10.325,0,0,1-1.3.874c-.487.307-.979.656-1.223.831s-.248.175.14.029a17.815,17.815,0,0,1,1.888-.615c.724-.179,1.393-.242,2.03-.4a11.128,11.128,0,0,0,1.546-.531c.3-.124.3-.124.15-.163a2.979,2.979,0,0,1-.724-.27,2.2,2.2,0,0,1-.623-.569l0-.008a4.645,4.645,0,0,0,1.875.193c.426-.024.426-.024.486.5a6.508,6.508,0,0,1-.1,2.555,4.319,4.319,0,0,1-1.937,2.423,26.717,26.717,0,0,1-3.443,1.327,29.281,29.281,0,0,0-3.36,1.679c-.691.39-.691.39-.667.719a2.751,2.751,0,0,1-2.462,3.182c-1.236.29-3.032.262-4.6.486a8.651,8.651,0,0,0-4.2,1.685,27.025,27.025,0,0,0-3.843,3.958,2.672,2.672,0,0,1-.168-1.64,11.322,11.322,0,0,1,.869-2.161c.1-.211.163-.329.134-.427a19.638,19.638,0,0,1-7.041,1.211,18.616,18.616,0,0,1-7.192-1.405,18.127,18.127,0,0,1-10.4-10.155v.008a24.055,24.055,0,0,1-.751-15.884,5.127,5.127,0,0,0,.849,3.129l0,0A27.507,27.507,0,0,1,59.557,130c1.283-2.279,3.3-4.928,4.921-7.412,4.017-5.937,7.943-12.22,6.262-19.264-.034,0-.86,10.446-10.243,10.585l.062-.035c-4.181.059-8.506-1.311-14.605-3.005a13.343,13.343,0,0,0-5.71-.364,6.249,6.249,0,0,0-.471-2.442,37.469,37.469,0,0,1,7.815-1.291s-13.793-1.306-18.372,6.972c-4.019,7.267.68,14.923,1.906,16.7.17.248,1.17,1.772,1.173,1.775,6.169-1.617,12.161,3.062,14.249,7.882a11.4,11.4,0,0,0-1.577-4.517c-1.2-1.576-5.374-3.385-6.988-4.8h0c-2.713-2.566-4.517-5.39-4.616-9.458-.138-5.714,5.866-9.086,10.969-8.767-7.429,2.105-13.343,8.49-4.819,16.275a41.641,41.641,0,0,0,5.086,3.72,6.358,6.358,0,0,1,2.4,2.408c.761,1.422,1.006,3.4,1.805,5.2a11.909,11.909,0,0,0,3.283,4.314,2.5,2.5,0,0,0,1.866.767c.607.062.427,1.732.506,2.228-.084-.306-.322-.4-.557-.547a6.033,6.033,0,0,0-1.047-.284,10.428,10.428,0,0,1-1.407-.693c-.512-.266-1.06-.518-1.334-.644s-.273-.124.047.137a17.808,17.808,0,0,1,1.477,1.327c.516.536.906,1.085,1.359,1.558a10.983,10.983,0,0,0,1.233,1.074c.259.2.259.2.216.048a2.929,2.929,0,0,1-.127-.763,2.156,2.156,0,0,1,.182-.824l0-.008a4.709,4.709,0,0,0,.77,1.721c.233.356.233.356-.193.673a6.412,6.412,0,0,1-2.261,1.19,4.3,4.3,0,0,1-3.065-.464,26.093,26.093,0,0,1-2.873-2.318,29.013,29.013,0,0,0-3.135-2.071c-.682-.4-.682-.4-.955-.215a2.75,2.75,0,0,1-3.986-.543c-.87-.923-1.745-2.493-2.721-3.738a8.662,8.662,0,0,0-3.562-2.8,27,27,0,0,0-5.347-1.35,2.7,2.7,0,0,1,1.338-.965,11.259,11.259,0,0,1,2.306-.326c.232-.017.363-.024.435-.1a19.575,19.575,0,0,1-4.569-5.491,18.606,18.606,0,0,1-2.38-6.932A18.128,18.128,0,0,1,27.9,110.047l0,0a24.052,24.052,0,0,1,13.381-8.592,5.127,5.127,0,0,0-2.286,2.3h0a27.559,27.559,0,0,1,5.006-.5c2.6-.028,5.877.387,8.826.553,7.167.513,14.6.787,19.87-4.2-.02-.027-9.478,4.479-14.29-3.581l.064.039c-2.141-3.59-3.115-8.022-4.7-14.153a13.324,13.324,0,0,0-2.539-5.124,6.266,6.266,0,0,0,1.879-1.628,37.541,37.541,0,0,1,5.025,6.121s-5.765-12.6-15.223-12.423c-8.3.152-12.584,8.05-13.515,10-.129.272-.949,1.9-.95,1.9,4.483,4.534,3.428,12.063.3,16.281a11.409,11.409,0,0,0,3.124-3.624c.763-1.831.246-6.347.667-8.454v0c.864-3.63,2.408-6.6,5.882-8.724,4.877-2.975,10.8.536,13.077,5.118-5.538-5.382-14.024-7.313-16.506,3.961a41.743,41.743,0,0,0-.678,6.266,6.346,6.346,0,0,1-.884,3.284c-.85,1.369-2.438,2.568-3.6,4.163a11.881,11.881,0,0,0-2.1,5,2.491,2.491,0,0,0,.272,2c.249.558-1.289,1.236-1.679,1.554.22-.228.184-.477.2-.756a6.461,6.461,0,0,0-.277-1.048,10.156,10.156,0,0,1-.106-1.566c-.024-.576-.08-1.177-.109-1.475s-.027-.3-.094.109a17.519,17.519,0,0,1-.413,1.941c-.2.716-.484,1.327-.669,1.958a10.828,10.828,0,0,0-.311,1.6c-.044.325-.044.325.065.213a2.925,2.925,0,0,1,.6-.492,2.147,2.147,0,0,1,.807-.256h.008a4.639,4.639,0,0,0-1.106,1.529c-.194.38-.194.38-.68.169a6.549,6.549,0,0,1-2.163-1.364,4.289,4.289,0,0,1-1.127-2.888,26.461,26.461,0,0,1,.568-3.647,29.818,29.818,0,0,0,.229-3.751c.007-.789.007-.789-.294-.935a2.747,2.747,0,0,1-1.521-3.722c.365-1.217,1.288-2.757,1.876-4.225a8.677,8.677,0,0,0,.643-4.482A27.126,27.126,0,0,0,20.93,79.19a2.689,2.689,0,0,1,1.5.676A11.243,11.243,0,0,1,23.871,81.7c.129.193.2.3.3.326a19.574,19.574,0,0,1,2.471-6.7A18.581,18.581,0,0,1,31.458,69.8a18.131,18.131,0,0,1,13.988-3.928l0,0a24.058,24.058,0,0,1,14.132,7.292,5.131,5.131,0,0,0-3.135-.829,27.521,27.521,0,0,1,2.932,4.088c1.323,2.234,2.6,5.275,3.928,7.909v0C66.443,90.8,69.92,97.372,76.883,99.444c.012-.029-7.976-5.527-4.507-13.244,3.354-5.076,5.633-7.343,10.367-12a13.333,13.333,0,0,0,3.17-4.759,6.264,6.264,0,0,0,2.351.814,37.558,37.558,0,0,1-2.79,7.412s8.028-11.292,3.148-19.4c-4.284-7.113-13.264-6.873-15.419-6.7-.3.024-2.12.128-2.124.129-1.685,6.15-8.733,9-13.951,8.4a11.394,11.394,0,0,0,4.7.894c1.968-.255,5.62-2.962,7.655-3.651,3.578-1.068,6.927-1.219,10.5.73C85,60.81,84.919,67.694,82.089,71.956c1.893-7.487-.678-15.8-11.683-12.313a41.883,41.883,0,0,0-5.765,2.546,6.313,6.313,0,0,1-3.285.874c-1.614-.051-3.443-.826-5.408-1.037a11.935,11.935,0,0,0-5.377.688c-1.315.544-1.333.868-1.6,1.233-.356.494-1.712-.5-2.182-.678.305.078.506-.08.753-.208s.434-.463.768-.763a10.376,10.376,0,0,1,1.3-.874c.487-.308.978-.659,1.224-.834s.247-.174-.144-.026a17.519,17.519,0,0,1-1.887.615c-.722.177-1.391.242-2.028.4a10.679,10.679,0,0,0-1.546.531c-.3.123-.3.123-.151.162a2.843,2.843,0,0,1,.722.271,2.187,2.187,0,0,1,.626.57l0,.006a4.7,4.7,0,0,0-1.876-.194c-.426.025-.426.025-.49-.5a6.61,6.61,0,0,1,.1-2.555,4.312,4.312,0,0,1,1.936-2.423,26.134,26.134,0,0,1,3.443-1.327,29.842,29.842,0,0,0,3.362-1.679c.691-.39.691-.39.662-.723a2.753,2.753,0,0,1,2.465-3.178c1.236-.294,3.032-.262,4.6-.488a8.662,8.662,0,0,0,4.2-1.687,26.908,26.908,0,0,0,3.843-3.956,2.687,2.687,0,0,1,.167,1.64,11.277,11.277,0,0,1-.87,2.16c-.1.211-.162.33-.133.427a19.65,19.65,0,0,1,7.041-1.211,18.635,18.635,0,0,1,7.192,1.405,18.134,18.134,0,0,1,10.4,10.15v0a24.056,24.056,0,0,1,.75,15.884,5.123,5.123,0,0,0-.849-3.129h0a27.509,27.509,0,0,1-2.073,4.583c-1.273,2.263-3.268,4.891-4.885,7.359h0c-4.03,5.953-7.986,12.253-6.3,19.319.033,0,.86-10.445,10.242-10.584l-.06.033c.665-.009,1.334.018,2.012.076l.017,0c3.584.312,7.456,1.507,12.576,2.926a13.341,13.341,0,0,0,5.709.365,6.257,6.257,0,0,0,.47,2.444,37.5,37.5,0,0,1-7.814,1.291s13.793,1.306,18.371-6.972c4.02-7.267-.679-14.923-1.9-16.7-.17-.248-1.17-1.772-1.173-1.775-6.168,1.617-12.161-3.063-14.249-7.882a11.4,11.4,0,0,0,1.577,4.517c1.2,1.576,5.374,3.386,6.988,4.8l.022.019c2.7,2.561,4.5,5.38,4.6,9.437.138,5.714-5.866,9.087-10.969,8.769,7.429-2.108,13.341-8.49,4.82-16.275a41.761,41.761,0,0,0-5.088-3.719,6.341,6.341,0,0,1-2.4-2.408c-.762-1.423-1.006-3.4-1.809-5.2a11.842,11.842,0,0,0-3.283-4.312c-1.127-.868-1.415-.72-1.866-.766-.6-.063-.423-1.733-.5-2.229.084.3.32.4.555.547A6.3,6.3,0,0,0,97,59.674a10.521,10.521,0,0,1,1.411.691c.511.268,1.058.521,1.332.645s.274.126-.045-.136a17.536,17.536,0,0,1-1.479-1.328c-.515-.538-.905-1.086-1.359-1.557a10.823,10.823,0,0,0-1.233-1.074c-.26-.2-.26-.2-.218-.049a2.849,2.849,0,0,1,.129.761,2.146,2.146,0,0,1-.182.826l0,.006a4.675,4.675,0,0,0-.771-1.72c-.233-.356-.233-.356.192-.675a6.531,6.531,0,0,1,2.263-1.19,4.309,4.309,0,0,1,3.065.467,25.6,25.6,0,0,1,2.871,2.317,30.08,30.08,0,0,0,3.135,2.071c.684.4.684.4.957.215a3.077,3.077,0,0,1,1.531-.613,3.109,3.109,0,0,1,2.454,1.154c.871.925,1.742,2.5,2.721,3.738a8.656,8.656,0,0,0,3.562,2.8,26.985,26.985,0,0,0,5.347,1.35,2.676,2.676,0,0,1-1.337.961,11.119,11.119,0,0,1-2.307.33c-.231.014-.365.024-.436.1a19.628,19.628,0,0,1,4.57,5.493,18.618,18.618,0,0,1,2.379,6.93,18.131,18.131,0,0,1-3.592,14.08ZM56.409,53.446c-.016-.256.311-.569.639-.726a2.982,2.982,0,0,1,1.111-.192c.457-.036,1.04-.108,1.334-.142s.291-.037.161.069a3.679,3.679,0,0,1-.746.5c-.364.176-.834.32-1.149.506s-.47.411-.724.426S56.422,53.7,56.409,53.446Z" transform="translate(0 0)" fill="#ebebeb" fill-rule="evenodd"/><path d="M54.543,101.6c-2.778-6.456-.207-8.4-.857-11.142a32.014,32.014,0,0,0-8.442,19.667c5.309-.661,13.679,2.27,20.985.813-6.819-.3-15.492-2.674-17.147-2.491,2.463-.634,9,.582,11.119.242a6.168,6.168,0,0,0-.29-.627,60.8,60.8,0,0,1-3.538-8c-.671-1.923-1.227-3.894-1.75-5.869-1.116,2.29-.395,6.09-.079,7.407M56.7,126.4c-6.99-.826-7.389-4.02-10.094-4.83A32.032,32.032,0,0,0,59.45,138.7c2.08-4.92,8.809-10.691,11.2-17.735-3.668,5.746-10.067,12.055-10.734,13.578.682-2.446,5.006-7.494,5.769-9.491a5.834,5.834,0,0,0-.689-.062,61.072,61.072,0,0,1-8.709-.943c-2-.381-3.992-.885-5.967-1.421C51.746,124.737,55.4,126.013,56.7,126.4ZM79.3,136.928c-4.212,5.63-7.182,4.378-9.237,6.312a32.14,32.14,0,0,0,21.283-2.534c-3.228-4.259-4.87-12.96-9.787-18.548,3.151,6.043,5.425,14.728,6.413,16.067-1.781-1.812-4-8.074-5.35-9.733a6.328,6.328,0,0,0-.4.564,60.8,60.8,0,0,1-5.171,7.058c-1.333,1.542-2.765,3.009-4.216,4.449C75.376,140.383,78.311,137.86,79.3,136.928Zm20.431-14.266c2.778,6.457.207,8.4.857,11.142a32.006,32.006,0,0,0,8.443-19.667c-5.308.662-13.679-2.269-20.985-.813,6.819.3,15.492,2.674,17.147,2.491-2.463.634-9-.582-11.119-.242a6.077,6.077,0,0,0,.29.627,60.844,60.844,0,0,1,3.538,8c.67,1.923,1.227,3.894,1.75,5.869C100.764,127.778,100.042,123.979,99.727,122.661Zm-2.162-24.8c6.991.826,7.39,4.02,10.094,4.83A32.032,32.032,0,0,0,94.82,85.563c-2.081,4.92-8.809,10.691-11.2,17.735,3.668-5.746,10.066-12.055,10.734-13.578-.682,2.446-5.006,7.493-5.769,9.492a6.246,6.246,0,0,0,.689.062,60.941,60.941,0,0,1,8.709.942c2,.381,3.991.886,5.967,1.421C102.523,99.527,98.866,98.251,97.565,97.866ZM39.183,109.731a37.845,37.845,0,0,1,8.137-21.2,11.524,11.524,0,0,1,1.781.838A35.948,35.948,0,0,0,41.156,109Q40.165,109.327,39.183,109.731ZM56.08,143.8a38.151,38.151,0,0,1-14.3-17.644,11.422,11.422,0,0,1,1.615-1.125,36.239,36.239,0,0,0,13.04,16.694C56.291,142.408,56.173,143.1,56.08,143.8Zm37.958,2.4a37.871,37.871,0,0,1-16.9,3.954,38.329,38.329,0,0,1-5.532-.4,11.485,11.485,0,0,1-.166-1.961,36.358,36.358,0,0,0,5.7.447,35.983,35.983,0,0,0,15.284-3.384Q93.2,145.558,94.037,146.2Zm21.049-31.672a37.852,37.852,0,0,1-8.136,21.2,11.48,11.48,0,0,1-1.781-.837,35.949,35.949,0,0,0,7.943-19.634C113.774,115.047,114.434,114.8,115.087,114.533ZM98.19,80.464a38.169,38.169,0,0,1,14.3,17.643,11.55,11.55,0,0,1-1.615,1.125A36.235,36.235,0,0,0,97.836,82.539Q98.05,81.516,98.19,80.464ZM77.135,74.106a38.352,38.352,0,0,1,5.534.4,11.489,11.489,0,0,1,.165,1.961,36.369,36.369,0,0,0-5.7-.448A35.983,35.983,0,0,0,61.851,79.4q-.777-.7-1.619-1.343A37.871,37.871,0,0,1,77.135,74.106ZM74.973,87.337c4.213-5.63,7.182-4.378,9.237-6.312a32.137,32.137,0,0,0-21.282,2.534c3.228,4.259,4.87,12.961,9.787,18.548-3.151-6.044-5.425-14.73-6.413-16.068,1.781,1.812,4,8.074,5.35,9.733a6.162,6.162,0,0,0,.4-.565,60.863,60.863,0,0,1,5.171-7.057c1.333-1.542,2.764-3.008,4.216-4.449C78.894,83.882,75.958,86.406,74.973,87.337Z" transform="translate(-2.204 -3.364)" fill="#fff" fill-rule="evenodd"/></g></svg>