<svg width="1257" height="178" fill="none" xmlns="http://www.w3.org/2000/svg">
    <path
            d="M80.184.3c.968 0 1.775.363 2.42 1.089.726.645 1.089 1.492 1.089 2.541v77.44c0 1.049-.363 1.936-1.089 2.662-.726.645-1.613.968-2.662.968-1.13 0-2.057-.323-2.783-.968-.726-.726-1.089-1.613-1.089-2.662V14.82L47.635 57.896c-.807 1.049-1.734 1.533-2.783 1.452h-.242c-.968 0-1.855-.484-2.662-1.452L13.513 14.578V81.37c0 1.049-.363 1.936-1.089 2.662-.645.645-1.492.968-2.541.968s-1.896-.323-2.541-.968c-.645-.726-.968-1.613-.968-2.662V3.93c0-.968.323-1.815.968-2.541C8.068.663 8.955.3 10.004.3c.565 0 1.17.161 1.815.484.645.242 1.13.605 1.452 1.089l31.702 47.553L76.917 1.873C77.804.663 78.893.139 80.184.3zm81.572 53.724c0 6.05-1.331 11.535-3.993 16.456-2.662 4.92-6.332 8.793-11.011 11.616-4.679 2.743-9.882 4.114-15.609 4.114s-10.93-1.371-15.609-4.114c-4.679-2.823-8.349-6.695-11.011-11.616-2.662-4.92-3.993-10.406-3.993-16.456 0-6.05 1.331-11.535 3.993-16.456 2.662-4.92 6.332-8.793 11.011-11.616 4.679-2.823 9.882-4.235 15.609-4.235s10.93 1.412 15.609 4.235c4.679 2.823 8.349 6.695 11.011 11.616 2.662 4.92 3.993 10.406 3.993 16.456zm-7.26 0c0-4.84-1.008-9.196-3.025-13.068s-4.84-6.897-8.47-9.075c-3.549-2.259-7.502-3.388-11.858-3.388-4.356 0-8.309 1.13-11.858 3.388-3.549 2.178-6.373 5.203-8.47 9.075-2.017 3.872-3.025 8.228-3.025 13.068 0 4.76 1.008 9.075 3.025 12.947 2.097 3.872 4.921 6.937 8.47 9.196 3.549 2.178 7.502 3.267 11.858 3.267 4.356 0 8.309-1.089 11.858-3.267 3.63-2.178 6.453-5.203 8.47-9.075 2.017-3.872 3.025-8.228 3.025-13.068zm79.222 0c0 6.05-1.331 11.535-3.993 16.456-2.662 4.92-6.332 8.793-11.011 11.616-4.679 2.743-9.882 4.114-15.609 4.114s-10.93-1.371-15.609-4.114c-4.679-2.823-8.349-6.695-11.011-11.616-2.662-4.92-3.993-10.406-3.993-16.456 0-6.05 1.331-11.535 3.993-16.456 2.662-4.92 6.332-8.793 11.011-11.616 4.679-2.823 9.882-4.235 15.609-4.235s10.93 1.412 15.609 4.235c4.679 2.823 8.349 6.695 11.011 11.616 2.662 4.92 3.993 10.406 3.993 16.456zm-7.26 0c0-4.84-1.008-9.196-3.025-13.068s-4.84-6.897-8.47-9.075c-3.549-2.259-7.502-3.388-11.858-3.388-4.356 0-8.309 1.13-11.858 3.388-3.549 2.178-6.373 5.203-8.47 9.075-2.017 3.872-3.025 8.228-3.025 13.068 0 4.76 1.008 9.075 3.025 12.947 2.097 3.872 4.921 6.937 8.47 9.196 3.549 2.178 7.502 3.267 11.858 3.267 4.356 0 8.309-1.089 11.858-3.267 3.63-2.178 6.453-5.203 8.47-9.075 2.017-3.872 3.025-8.228 3.025-13.068zm51.271-32.307c7.502 0 12.987 2.218 16.456 6.655 3.549 4.356 5.324 10.164 5.324 17.424V81.37c0 1.049-.363 1.936-1.089 2.662a3.705 3.705 0 01-2.541.968c-1.049 0-1.936-.323-2.662-.968-.646-.726-.968-1.613-.968-2.662V46.159c0-5.243-1.331-9.478-3.993-12.705-2.582-3.307-6.615-4.961-12.1-4.961-3.469 0-6.776.807-9.922 2.42-3.066 1.613-5.566 3.791-7.502 6.534-1.936 2.662-2.904 5.566-2.904 8.712V81.37c0 1.049-.363 1.936-1.089 2.662-.646.645-1.493.968-2.541.968-1.049 0-1.936-.323-2.662-.968-.646-.726-.968-1.613-.968-2.662V27.162c0-1.049.322-1.896.968-2.541.726-.726 1.613-1.089 2.662-1.089 1.048 0 1.895.363 2.541 1.089.726.645 1.089 1.492 1.089 2.541v6.655c2.178-3.469 5.283-6.332 9.317-8.591 4.114-2.34 8.308-3.509 12.584-3.509zm47.81 59.653c0 1.049-.363 1.936-1.089 2.662-.645.645-1.492.968-2.541.968s-1.936-.323-2.662-.968c-.645-.726-.968-1.613-.968-2.662V25.71c0-1.049.323-1.896.968-2.541.726-.726 1.613-1.089 2.662-1.089s1.896.363 2.541 1.089c.726.645 1.089 1.492 1.089 2.541v55.66zm-3.63-67.397c-1.613 0-2.864-.363-3.751-1.089-.887-.807-1.331-1.936-1.331-3.388v-1.21c0-1.452.444-2.541 1.331-3.267.968-.807 2.259-1.21 3.872-1.21 3.227 0 4.84 1.492 4.84 4.477v1.21c0 1.452-.444 2.581-1.331 3.388-.807.726-2.017 1.089-3.63 1.089zm18.981 61.226c-.645-1.049-.968-1.936-.968-2.662 0-1.049.524-1.855 1.573-2.42.484-.484 1.129-.726 1.936-.726.968 0 1.855.403 2.662 1.21 4.759 6.292 11.092 9.438 18.997 9.438 3.872 0 7.22-.887 10.043-2.662 2.904-1.855 4.356-4.517 4.356-7.986 0-3.388-1.331-5.929-3.993-7.623s-6.373-3.146-11.132-4.356c-6.695-1.694-11.939-3.872-15.73-6.534-3.791-2.743-5.687-6.736-5.687-11.979 0-3.307.928-6.252 2.783-8.833 1.855-2.662 4.356-4.719 7.502-6.171 3.227-1.452 6.857-2.178 10.89-2.178 3.469 0 6.937.686 10.406 2.057 3.549 1.29 6.574 3.388 9.075 6.292.726.565 1.089 1.371 1.089 2.42 0 .968-.403 1.815-1.21 2.541-.565.484-1.291.726-2.178.726-.807 0-1.533-.323-2.178-.968a19.106 19.106 0 00-6.897-4.961c-2.662-1.13-5.526-1.694-8.591-1.694-3.791 0-7.058.887-9.801 2.662-2.662 1.775-3.993 4.437-3.993 7.986.161 3.227 1.613 5.687 4.356 7.381 2.823 1.694 6.937 3.227 12.342 4.598 4.195 1.049 7.663 2.218 10.406 3.509 2.743 1.29 4.961 3.106 6.655 5.445 1.775 2.34 2.662 5.445 2.662 9.317 0 5.243-2.097 9.438-6.292 12.584-4.195 3.065-9.398 4.598-15.609 4.598-9.841 0-17.666-3.67-23.474-11.011zm133.675-53.361c1.048 0 1.895.323 2.541.968.726.645 1.089 1.533 1.089 2.662 0 .08-.121.605-.363 1.573l-18.634 55.66a5.709 5.709 0 01-1.573 1.815c-.646.403-1.331.565-2.057.484a3.246 3.246 0 01-1.936-.605c-.565-.403-1.009-.968-1.331-1.694L436.45 45.433l-14.157 37.268c-.323.645-.807 1.21-1.452 1.694-.565.403-1.17.605-1.815.605a3.844 3.844 0 01-2.299-.484c-.646-.484-1.089-1.089-1.331-1.815l-19.118-55.66a3.468 3.468 0 01-.363-1.573c0-1.049.363-1.896 1.089-2.541.726-.726 1.613-1.089 2.662-1.089.726 0 1.371.242 1.936.726a3.093 3.093 0 011.331 1.694l16.093 48.279 14.399-36.179c.564-1.533 1.694-2.299 3.388-2.299 1.613 0 2.742.766 3.388 2.299l15.125 35.937 15.851-48.037c.484-1.613 1.613-2.42 3.388-2.42zm68.227 1.331c1.048 0 1.895.363 2.541 1.089.726.726 1.089 1.613 1.089 2.662v54.45c0 1.049-.363 1.936-1.089 2.662-.646.645-1.493.968-2.541.968-1.049 0-1.936-.323-2.662-.968-.646-.726-.968-1.613-.968-2.662v-8.107c-2.017 3.63-5.042 6.695-9.075 9.196-4.034 2.5-8.43 3.751-13.189 3.751-5.405 0-10.285-1.412-14.641-4.235-4.276-2.823-7.664-6.695-10.164-11.616-2.42-4.92-3.63-10.446-3.63-16.577 0-6.13 1.25-11.616 3.751-16.456 2.5-4.92 5.888-8.752 10.164-11.495 4.356-2.743 9.155-4.114 14.399-4.114 4.84 0 9.276 1.17 13.31 3.509 4.033 2.34 7.058 5.405 9.075 9.196V26.92c0-1.049.322-1.936.968-2.662.726-.726 1.613-1.089 2.662-1.089zm-25.168 56.265c4.194 0 7.945-1.089 11.253-3.267 3.388-2.259 6.009-5.324 7.865-9.196 1.936-3.953 2.904-8.349 2.904-13.189 0-4.679-.968-8.954-2.904-12.826-1.856-3.872-4.477-6.897-7.865-9.075-3.308-2.259-7.059-3.388-11.253-3.388-4.195 0-7.986 1.089-11.374 3.267-3.308 2.178-5.929 5.203-7.865 9.075-1.856 3.791-2.783 8.107-2.783 12.947s.927 9.236 2.783 13.189c1.855 3.872 4.436 6.937 7.744 9.196 3.388 2.178 7.219 3.267 11.495 3.267zm77.145-56.749c5.324 0 10.164 1.371 14.52 4.114 4.356 2.662 7.744 6.413 10.164 11.253 2.5 4.76 3.751 10.124 3.751 16.093 0 6.05-1.251 11.495-3.751 16.335-2.42 4.76-5.808 8.51-10.164 11.253-4.276 2.743-9.075 4.114-14.399 4.114-4.679 0-8.995-1.089-12.947-3.267-3.872-2.259-6.978-5.243-9.317-8.954v31.944c0 1.049-.363 1.896-1.089 2.541-.646.726-1.493 1.089-2.541 1.089-1.049 0-1.936-.363-2.662-1.089-.646-.645-.968-1.492-.968-2.541V26.678c0-1.049.322-1.936.968-2.662.726-.726 1.613-1.089 2.662-1.089 1.048 0 1.895.363 2.541 1.089.726.726 1.089 1.613 1.089 2.662v8.228c2.097-3.791 5.122-6.776 9.075-8.954 3.952-2.178 8.308-3.267 13.068-3.267zm-.605 56.386c4.194 0 7.945-1.049 11.253-3.146 3.388-2.178 6.009-5.163 7.865-8.954 1.936-3.791 2.904-8.067 2.904-12.826 0-4.679-.968-8.873-2.904-12.584-1.856-3.791-4.477-6.736-7.865-8.833-3.308-2.178-7.059-3.267-11.253-3.267-4.276 0-8.107 1.049-11.495 3.146s-6.01 5.042-7.865 8.833c-1.856 3.71-2.783 7.946-2.783 12.705 0 4.76.927 9.035 2.783 12.826 1.855 3.791 4.477 6.776 7.865 8.954 3.388 2.097 7.219 3.146 11.495 3.146zM32.572 133.6c.537 0 .95.165 1.24.496.33.331.496.744.496 1.24v39.68c0 .62-.186 1.116-.558 1.488-.372.331-.827.496-1.364.496-.29 0-.579-.062-.868-.186a2.367 2.367 0 01-.62-.434L4.3 140.544v34.782c0 .455-.186.847-.558 1.178-.33.331-.723.496-1.178.496-.496 0-.91-.165-1.24-.496a1.61 1.61 0 01-.496-1.178V135.46c0-.579.165-1.033.496-1.364a1.897 1.897 0 011.302-.496c.661 0 1.157.227 1.488.682l26.722 36.022v-34.968c0-.496.165-.909.496-1.24.33-.331.744-.496 1.24-.496zm36.117 39.742c.538 0 .972.186 1.302.558.372.372.558.806.558 1.302 0 .537-.186.971-.558 1.302-.33.331-.764.496-1.302.496H45.935c-.537 0-.992-.165-1.364-.496-.33-.372-.496-.827-.496-1.364v-39.68c0-.537.166-.971.496-1.302a1.855 1.855 0 011.364-.558H68.69c.538 0 .972.186 1.302.558.372.331.558.765.558 1.302s-.186.971-.558 1.302c-.33.331-.764.496-1.302.496H47.981v15.562H65.9c.538 0 .972.186 1.302.558.372.331.558.765.558 1.302s-.186.971-.558 1.302c-.33.331-.764.496-1.302.496H47.981v16.864H68.69zm37.967.868c.289.413.434.785.434 1.116 0 .579-.207 1.054-.62 1.426a1.897 1.897 0 01-1.302.496c-.62 0-1.116-.269-1.488-.806l-13.392-18.166-13.33 18.104c-.372.579-.868.868-1.488.868-.496 0-.91-.165-1.24-.496-.29-.372-.434-.765-.434-1.178 0-.413.144-.827.434-1.24l13.95-18.972-14.012-18.972a1.652 1.652 0 01-.434-1.116c0-.496.186-.93.558-1.302.413-.372.868-.558 1.364-.558.62 0 1.136.248 1.55.744l13.33 18.166 13.268-18.104c.454-.537.95-.806 1.488-.806.496 0 .909.165 1.24.496.372.289.558.661.558 1.116 0 .331-.145.723-.434 1.178l-13.95 19.034 13.95 18.972zm34.189-40.61c.538 0 .972.165 1.302.496.372.331.558.765.558 1.302s-.186.971-.558 1.302c-.33.289-.764.434-1.302.434h-12.834v38.006c0 .537-.186.992-.558 1.364-.372.331-.826.496-1.364.496-.578 0-1.054-.165-1.426-.496-.33-.372-.496-.827-.496-1.364v-38.006h-12.834c-.537 0-.992-.165-1.364-.496-.33-.331-.496-.765-.496-1.302 0-.496.166-.909.496-1.24.372-.331.827-.496 1.364-.496h29.512zm54.681 21.514c.538 0 .972.186 1.302.558.372.331.558.765.558 1.302v14.942c0 .703-.31 1.261-.93 1.674-1.86 1.281-3.926 2.273-6.2 2.976a23.374 23.374 0 01-6.944 1.054c-4.216 0-8.018-.971-11.408-2.914-3.389-1.943-6.055-4.609-7.998-7.998-1.942-3.389-2.914-7.192-2.914-11.408 0-4.216.972-8.019 2.914-11.408 1.943-3.389 4.609-6.055 7.998-7.998 3.39-1.943 7.192-2.914 11.408-2.914 2.191 0 4.299.269 6.324.806 2.067.537 3.906 1.302 5.518 2.294.579.372.868.889.868 1.55 0 .537-.186.992-.558 1.364-.33.372-.723.558-1.178.558a2.06 2.06 0 01-1.116-.31c-3.1-1.695-6.386-2.542-9.858-2.542-3.513 0-6.675.806-9.486 2.418-2.769 1.612-4.939 3.844-6.51 6.696-1.57 2.811-2.356 5.973-2.356 9.486 0 3.513.786 6.696 2.356 9.548 1.571 2.811 3.741 5.022 6.51 6.634 2.811 1.612 5.973 2.418 9.486 2.418 1.778 0 3.555-.248 5.332-.744 1.819-.496 3.431-1.178 4.836-2.046v-12.276h-9.796c-.537 0-.992-.165-1.364-.496a1.856 1.856 0 01-.558-1.364c0-.537.186-.971.558-1.302a1.856 1.856 0 011.364-.558h11.842zm34.182 18.228c.537 0 .971.186 1.302.558.372.372.558.806.558 1.302 0 .537-.186.971-.558 1.302-.331.331-.765.496-1.302.496h-22.754c-.538 0-.992-.165-1.364-.496-.331-.372-.496-.827-.496-1.364v-39.68c0-.537.165-.971.496-1.302a1.854 1.854 0 011.364-.558h22.754c.537 0 .971.186 1.302.558.372.331.558.765.558 1.302s-.186.971-.558 1.302c-.331.331-.765.496-1.302.496H209v15.562h17.918c.537 0 .971.186 1.302.558.372.331.558.765.558 1.302s-.186.971-.558 1.302c-.331.331-.765.496-1.302.496H209v16.864h20.708zm40.508-39.742c.537 0 .951.165 1.24.496.331.331.496.744.496 1.24v39.68c0 .62-.186 1.116-.558 1.488-.372.331-.827.496-1.364.496-.289 0-.579-.062-.868-.186a2.362 2.362 0 01-.62-.434l-26.598-35.836v34.782c0 .455-.186.847-.558 1.178a1.608 1.608 0 01-1.178.496c-.496 0-.909-.165-1.24-.496a1.608 1.608 0 01-.496-1.178V135.46c0-.579.165-1.033.496-1.364a1.897 1.897 0 011.302-.496c.661 0 1.157.227 1.488.682l26.722 36.022v-34.968c0-.496.165-.909.496-1.24.331-.331.744-.496 1.24-.496zm36.117 39.742c.538 0 .972.186 1.302.558.372.372.558.806.558 1.302 0 .537-.186.971-.558 1.302-.33.331-.764.496-1.302.496h-22.754c-.537 0-.992-.165-1.364-.496-.33-.372-.496-.827-.496-1.364v-39.68c0-.537.166-.971.496-1.302a1.856 1.856 0 011.364-.558h22.754c.538 0 .972.186 1.302.558.372.331.558.765.558 1.302s-.186.971-.558 1.302c-.33.331-.764.496-1.302.496h-20.708v15.562h17.918c.538 0 .972.186 1.302.558.372.331.558.765.558 1.302s-.186.971-.558 1.302c-.33.331-.764.496-1.302.496h-17.918v16.864h20.708zm40.447.31c.62.413.93.93.93 1.55 0 .207-.083.475-.248.806a1.851 1.851 0 01-1.612.93c-.414 0-.765-.083-1.054-.248-1.158-.661-2.088-1.736-2.79-3.224-.703-1.488-1.054-3.865-1.054-7.13 0-2.893-.806-4.919-2.418-6.076-1.612-1.199-3.534-1.798-5.766-1.798h-13.764v16.678c0 .537-.166.992-.496 1.364-.331.331-.765.496-1.302.496-.579 0-1.075-.165-1.488-.496-.414-.372-.62-.827-.62-1.364v-39.68c0-.537.165-.971.496-1.302a1.854 1.854 0 011.364-.558h16.74c2.356 0 4.464.517 6.324 1.55 1.86.992 3.306 2.377 4.34 4.154 1.074 1.777 1.612 3.782 1.612 6.014 0 2.645-.703 4.981-2.108 7.006-1.364 1.984-3.162 3.348-5.394 4.092 1.818.703 3.306 1.901 4.464 3.596 1.157 1.653 1.756 3.679 1.798 6.076.041 2.563.206 4.361.496 5.394.33 1.033.847 1.757 1.55 2.17zm-12.896-18.6a8.465 8.465 0 004.03-1.426c1.24-.827 2.232-1.943 2.976-3.348.744-1.405 1.116-3.017 1.116-4.836 0-2.356-.806-4.299-2.418-5.828-1.571-1.571-3.638-2.356-6.2-2.356h-14.384v17.794h14.88zm53.253 19.468c.083.331.124.579.124.744 0 .537-.186.971-.558 1.302a1.897 1.897 0 01-1.302.496 2.06 2.06 0 01-1.116-.31 2.59 2.59 0 01-.682-.93l-4.65-11.346h-20.15l-4.588 11.346c-.331.827-.889 1.24-1.674 1.24-.579 0-1.013-.145-1.302-.434-.289-.289-.455-.682-.496-1.178v-.186c0-.248.021-.434.062-.558l16.368-40.052c.331-.827.951-1.24 1.86-1.24.413 0 .765.124 1.054.372.331.207.579.496.744.868l16.306 39.866zm-9.672-13.702l-8.68-21.204-8.556 21.204h17.236zM417.62 133.6c.537 0 .971.165 1.302.496.372.331.558.765.558 1.302s-.186.971-.558 1.302c-.331.289-.765.434-1.302.434h-12.834v38.006c0 .537-.186.992-.558 1.364-.372.331-.827.496-1.364.496-.579 0-1.054-.165-1.426-.496-.331-.372-.496-.827-.496-1.364v-38.006h-12.834c-.538 0-.992-.165-1.364-.496-.331-.331-.496-.765-.496-1.302 0-.496.165-.909.496-1.24.372-.331.826-.496 1.364-.496h29.512zm11.812 41.478a2.099 2.099 0 01-.62 1.364 1.856 1.856 0 01-1.364.558c-.579 0-1.054-.165-1.426-.496-.331-.372-.496-.847-.496-1.426v-39.556c0-.579.186-1.033.558-1.364.372-.372.847-.558 1.426-.558.537 0 .992.186 1.364.558.372.372.558.827.558 1.364v39.556zm48.422-19.778c0 4.257-.889 8.081-2.666 11.47-1.778 3.389-4.237 6.055-7.378 7.998-3.142 1.901-6.717 2.852-10.726 2.852-4.01 0-7.585-.951-10.726-2.852-3.142-1.943-5.601-4.609-7.378-7.998-1.778-3.389-2.666-7.213-2.666-11.47 0-4.299.888-8.143 2.666-11.532 1.777-3.389 4.236-6.035 7.378-7.936 3.141-1.901 6.716-2.852 10.726-2.852 4.009 0 7.584.951 10.726 2.852 3.141 1.901 5.6 4.547 7.378 7.936 1.777 3.389 2.666 7.233 2.666 11.532zm-3.968 0c0-3.596-.724-6.799-2.17-9.61-1.406-2.852-3.39-5.063-5.952-6.634-2.522-1.571-5.415-2.356-8.68-2.356-3.266 0-6.18.785-8.742 2.356-2.522 1.571-4.506 3.782-5.952 6.634-1.406 2.811-2.108 6.014-2.108 9.61 0 3.596.702 6.82 2.108 9.672 1.446 2.811 3.43 5.001 5.952 6.572 2.562 1.571 5.476 2.356 8.742 2.356 3.265 0 6.158-.785 8.68-2.356 2.562-1.571 4.546-3.761 5.952-6.572 1.446-2.852 2.17-6.076 2.17-9.672zm42.632-21.7c.538 0 .951.165 1.24.496.331.331.496.744.496 1.24v39.68c0 .62-.186 1.116-.558 1.488-.372.331-.826.496-1.364.496-.289 0-.578-.062-.868-.186a2.38 2.38 0 01-.62-.434l-26.598-35.836v34.782c0 .455-.186.847-.558 1.178-.33.331-.723.496-1.178.496-.496 0-.909-.165-1.24-.496a1.612 1.612 0 01-.496-1.178V135.46c0-.579.166-1.033.496-1.364a1.897 1.897 0 011.302-.496c.662 0 1.158.227 1.488.682l26.722 36.022v-34.968c0-.496.166-.909.496-1.24.331-.331.744-.496 1.24-.496zm58.961 40.92c.083.331.124.579.124.744 0 .537-.186.971-.558 1.302a1.897 1.897 0 01-1.302.496 2.06 2.06 0 01-1.116-.31 2.59 2.59 0 01-.682-.93l-4.65-11.346h-20.15l-4.588 11.346c-.331.827-.889 1.24-1.674 1.24-.579 0-1.013-.145-1.302-.434-.289-.289-.455-.682-.496-1.178v-.186c0-.248.021-.434.062-.558l16.368-40.052c.331-.827.951-1.24 1.86-1.24.413 0 .765.124 1.054.372.331.207.579.496.744.868l16.306 39.866zm-9.672-13.702l-8.68-21.204-8.556 21.204h17.236zm53.41-27.218c.496 0 .91.186 1.24.558.372.331.558.765.558 1.302v39.68c0 .537-.186.992-.558 1.364-.372.331-.826.496-1.364.496-.578 0-1.054-.165-1.426-.496a1.856 1.856 0 01-.558-1.364v-34.1l-14.57 22.072c-.413.537-.888.785-1.426.744h-.124c-.496 0-.95-.248-1.364-.744l-14.57-22.196v34.224c0 .537-.186.992-.558 1.364-.33.331-.764.496-1.302.496-.537 0-.971-.165-1.302-.496-.33-.372-.496-.827-.496-1.364v-39.68c0-.496.166-.93.496-1.302a1.856 1.856 0 011.364-.558c.29 0 .6.083.93.248.331.124.579.31.744.558l16.244 24.366 16.368-24.366c.455-.62 1.013-.889 1.674-.806zm49.424 0c.496 0 .909.186 1.24.558.372.331.558.765.558 1.302v39.68c0 .537-.186.992-.558 1.364-.372.331-.827.496-1.364.496-.579 0-1.054-.165-1.426-.496a1.856 1.856 0 01-.558-1.364v-34.1l-14.57 22.072c-.414.537-.889.785-1.426.744h-.124c-.496 0-.951-.248-1.364-.744l-14.57-22.196v34.224c0 .537-.186.992-.558 1.364-.331.331-.765.496-1.302.496-.538 0-.972-.165-1.302-.496-.331-.372-.496-.827-.496-1.364v-39.68c0-.496.165-.93.496-1.302a1.854 1.854 0 011.364-.558c.289 0 .599.083.93.248.33.124.578.31.744.558l16.244 24.366 16.368-24.366c.454-.62 1.012-.889 1.674-.806zm43.25 0c2.273 0 4.319.537 6.138 1.612 1.819 1.033 3.224 2.501 4.216 4.402 1.033 1.86 1.55 3.968 1.55 6.324s-.517 4.505-1.55 6.448c-.992 1.943-2.397 3.472-4.216 4.588-1.819 1.116-3.865 1.674-6.138 1.674h-12.834v16.492c0 .537-.186.992-.558 1.364-.331.331-.765.496-1.302.496s-.992-.165-1.364-.496c-.331-.372-.496-.827-.496-1.364v-39.68c0-.537.165-.971.496-1.302a1.856 1.856 0 011.364-.558h14.694zm0 21.452c2.397 0 4.34-.868 5.828-2.604 1.488-1.736 2.232-3.906 2.232-6.51 0-2.563-.744-4.65-2.232-6.262-1.488-1.612-3.431-2.418-5.828-2.418h-12.834v17.794h12.834zm50.202 18.6c.62.413.93.93.93 1.55 0 .207-.083.475-.248.806a1.851 1.851 0 01-1.612.93c-.414 0-.765-.083-1.054-.248-1.158-.661-2.088-1.736-2.79-3.224-.703-1.488-1.054-3.865-1.054-7.13 0-2.893-.806-4.919-2.418-6.076-1.612-1.199-3.534-1.798-5.766-1.798h-13.764v16.678c0 .537-.166.992-.496 1.364-.331.331-.765.496-1.302.496-.579 0-1.075-.165-1.488-.496-.414-.372-.62-.827-.62-1.364v-39.68c0-.537.165-.971.496-1.302a1.854 1.854 0 011.364-.558h16.74c2.356 0 4.464.517 6.324 1.55 1.86.992 3.306 2.377 4.34 4.154 1.074 1.777 1.612 3.782 1.612 6.014 0 2.645-.703 4.981-2.108 7.006-1.364 1.984-3.162 3.348-5.394 4.092 1.818.703 3.306 1.901 4.464 3.596 1.157 1.653 1.756 3.679 1.798 6.076.041 2.563.206 4.361.496 5.394.33 1.033.847 1.757 1.55 2.17zm-12.896-18.6a8.465 8.465 0 004.03-1.426c1.24-.827 2.232-1.943 2.976-3.348.744-1.405 1.116-3.017 1.116-4.836 0-2.356-.806-4.299-2.418-5.828-1.571-1.571-3.638-2.356-6.2-2.356h-14.384v17.794h14.88zm58.971.248c0 4.257-.888 8.081-2.666 11.47-1.777 3.389-4.236 6.055-7.378 7.998-3.141 1.901-6.716 2.852-10.726 2.852-4.009 0-7.584-.951-10.726-2.852-3.141-1.943-5.6-4.609-7.378-7.998-1.777-3.389-2.666-7.213-2.666-11.47 0-4.299.889-8.143 2.666-11.532 1.778-3.389 4.237-6.035 7.378-7.936 3.142-1.901 6.717-2.852 10.726-2.852 4.01 0 7.585.951 10.726 2.852 3.142 1.901 5.601 4.547 7.378 7.936 1.778 3.389 2.666 7.233 2.666 11.532zm-3.968 0c0-3.596-.723-6.799-2.17-9.61-1.405-2.852-3.389-5.063-5.952-6.634-2.521-1.571-5.414-2.356-8.68-2.356-3.265 0-6.179.785-8.742 2.356-2.521 1.571-4.505 3.782-5.952 6.634-1.405 2.811-2.108 6.014-2.108 9.61 0 3.596.703 6.82 2.108 9.672 1.447 2.811 3.431 5.001 5.952 6.572 2.563 1.571 5.477 2.356 8.742 2.356 3.266 0 6.159-.785 8.68-2.356 2.563-1.571 4.547-3.761 5.952-6.572 1.447-2.852 2.17-6.076 2.17-9.672zm37.33-21.7c.537 0 .971.165 1.302.496.372.331.558.765.558 1.302s-.186.971-.558 1.302c-.331.289-.765.434-1.302.434h-12.834v38.006c0 .537-.186.992-.558 1.364-.372.331-.827.496-1.364.496-.579 0-1.054-.165-1.426-.496-.331-.372-.496-.827-.496-1.364v-38.006h-12.834c-.537 0-.992-.165-1.364-.496-.331-.331-.496-.765-.496-1.302 0-.496.165-.909.496-1.24.372-.331.827-.496 1.364-.496h29.512zm45.383 21.7c0 4.257-.889 8.081-2.666 11.47-1.777 3.389-4.237 6.055-7.378 7.998-3.141 1.901-6.717 2.852-10.726 2.852-4.009 0-7.585-.951-10.726-2.852-3.141-1.943-5.601-4.609-7.378-7.998-1.777-3.389-2.666-7.213-2.666-11.47 0-4.299.889-8.143 2.666-11.532 1.777-3.389 4.237-6.035 7.378-7.936 3.141-1.901 6.717-2.852 10.726-2.852 4.009 0 7.585.951 10.726 2.852 3.141 1.901 5.601 4.547 7.378 7.936 1.777 3.389 2.666 7.233 2.666 11.532zm-3.968 0c0-3.596-.723-6.799-2.17-9.61-1.405-2.852-3.389-5.063-5.952-6.634-2.521-1.571-5.415-2.356-8.68-2.356-3.265 0-6.179.785-8.742 2.356-2.521 1.571-4.505 3.782-5.952 6.634-1.405 2.811-2.108 6.014-2.108 9.61 0 3.596.703 6.82 2.108 9.672 1.447 2.811 3.431 5.001 5.952 6.572 2.563 1.571 5.477 2.356 8.742 2.356 3.265 0 6.159-.785 8.68-2.356 2.563-1.571 4.547-3.761 5.952-6.572 1.447-2.852 2.17-6.076 2.17-9.672zm42.571-18.476c.62.372.93.889.93 1.55 0 .372-.145.785-.434 1.24a1.76 1.76 0 01-1.426.682c-.331 0-.661-.103-.992-.31-3.307-2.191-6.923-3.286-10.85-3.286-3.348 0-6.386.785-9.114 2.356-2.687 1.571-4.815 3.782-6.386 6.634-1.529 2.811-2.294 6.014-2.294 9.61 0 3.679.785 6.944 2.356 9.796 1.571 2.811 3.699 5.001 6.386 6.572 2.728 1.529 5.745 2.294 9.052 2.294 3.927 0 7.523-1.075 10.788-3.224.331-.207.682-.31 1.054-.31.579 0 1.054.248 1.426.744.289.331.434.723.434 1.178 0 .661-.289 1.157-.868 1.488-1.612 1.075-3.596 1.984-5.952 2.728-2.356.703-4.65 1.054-6.882 1.054-3.927 0-7.564-.93-10.912-2.79-3.307-1.901-5.952-4.547-7.936-7.936-1.943-3.389-2.914-7.254-2.914-11.594 0-4.175.971-7.957 2.914-11.346 1.943-3.431 4.567-6.097 7.874-7.998 3.307-1.943 6.965-2.914 10.974-2.914 2.315 0 4.567.331 6.758.992 2.232.661 4.237 1.591 6.014 2.79zm45.652 18.476c0 4.257-.889 8.081-2.666 11.47-1.778 3.389-4.237 6.055-7.378 7.998-3.142 1.901-6.717 2.852-10.726 2.852-4.01 0-7.585-.951-10.726-2.852-3.142-1.943-5.601-4.609-7.378-7.998-1.778-3.389-2.666-7.213-2.666-11.47 0-4.299.888-8.143 2.666-11.532 1.777-3.389 4.236-6.035 7.378-7.936 3.141-1.901 6.716-2.852 10.726-2.852 4.009 0 7.584.951 10.726 2.852 3.141 1.901 5.6 4.547 7.378 7.936 1.777 3.389 2.666 7.233 2.666 11.532zm-3.968 0c0-3.596-.724-6.799-2.17-9.61-1.406-2.852-3.39-5.063-5.952-6.634-2.522-1.571-5.415-2.356-8.68-2.356-3.266 0-6.18.785-8.742 2.356-2.522 1.571-4.506 3.782-5.952 6.634-1.406 2.811-2.108 6.014-2.108 9.61 0 3.596.702 6.82 2.108 9.672 1.446 2.811 3.43 5.001 5.952 6.572 2.562 1.571 5.476 2.356 8.742 2.356 3.265 0 6.158-.785 8.68-2.356 2.562-1.571 4.546-3.761 5.952-6.572 1.446-2.852 2.17-6.076 2.17-9.672zm34.88 18.042c.54 0 .97.165 1.3.496.38.331.56.765.56 1.302s-.18.992-.56 1.364c-.33.331-.76.496-1.3.496h-22.132c-.537 0-.992-.165-1.364-.496-.33-.372-.496-.827-.496-1.364v-39.68c0-.537.186-.971.558-1.302.372-.372.848-.558 1.426-.558.538 0 .992.186 1.364.558.372.331.558.765.558 1.302v37.882h20.086zm45.43-19.406c2.48.62 4.5 1.86 6.07 3.72 1.57 1.86 2.36 4.278 2.36 7.254 0 4.051-1.26 7.089-3.78 9.114-2.48 1.984-5.58 2.976-9.3 2.976h-16.68c-.54 0-.99-.165-1.36-.496-.34-.372-.5-.827-.5-1.364v-39.68c0-.537.16-.971.5-1.302.37-.372.82-.558 1.36-.558h16.43c3.47 0 6.18.951 8.12 2.852 1.99 1.901 2.98 4.505 2.98 7.812 0 2.191-.54 4.154-1.61 5.89-1.08 1.736-2.61 2.997-4.59 3.782zm2.23-9.362c0-2.273-.68-4.051-2.05-5.332-1.32-1.323-3.18-1.984-5.58-1.984h-13.82v15.5h13.82c2.24-.041 4.05-.765 5.46-2.17 1.45-1.405 2.17-3.41 2.17-6.014zm-7.07 28.768c2.77 0 5-.703 6.7-2.108 1.73-1.405 2.6-3.513 2.6-6.324 0-2.893-.89-5.022-2.66-6.386-1.74-1.364-3.99-2.046-6.76-2.046h-14.26v16.864h14.38zm46.44-38.13c0 .289-.13.682-.38 1.178l-13.82 19.034v19.716c0 .537-.19.992-.56 1.364-.37.331-.83.496-1.36.496-.54 0-1-.165-1.37-.496-.33-.372-.49-.827-.49-1.364v-19.654l-13.89-18.972c-.33-.372-.5-.806-.5-1.302s.21-.93.62-1.302c.41-.372.87-.558 1.37-.558.66 0 1.17.289 1.55.868l12.83 17.484 12.52-17.484c.46-.579 1-.868 1.62-.868.49 0 .93.207 1.3.62.37.372.56.785.56 1.24zm27.59-1.612c.45.041.82.248 1.11.62.33.331.5.744.5 1.24v39.68c0 .537-.21.992-.62 1.364-.37.331-.85.496-1.43.496-.53 0-.99-.165-1.36-.496a1.865 1.865 0 01-.56-1.364v-36.27l-7.75 4.588c-.29.165-.58.248-.87.248-.53 0-1.01-.207-1.42-.62-.37-.413-.56-.868-.56-1.364 0-.289.08-.579.25-.868.2-.289.45-.517.74-.682l10.48-6.324c.41-.248.91-.331 1.49-.248zm15.25 41.478c-.04.537-.25.992-.62 1.364-.37.372-.83.558-1.36.558-.58 0-1.06-.165-1.43-.496-.33-.372-.5-.847-.5-1.426v-39.556c0-.579.19-1.033.56-1.364.37-.372.85-.558 1.43-.558.54 0 .99.186 1.36.558.37.372.56.827.56 1.364v39.556zm41.48-41.478c.54 0 .95.165 1.24.496.33.331.49.744.49 1.24v39.68c0 .62-.18 1.116-.55 1.488-.38.331-.83.496-1.37.496-.29 0-.58-.062-.87-.186a2.6 2.6 0 01-.62-.434l-26.59-35.836v34.782c0 .455-.19.847-.56 1.178-.33.331-.73.496-1.18.496-.5 0-.91-.165-1.24-.496-.33-.331-.5-.723-.5-1.178V135.46c0-.579.17-1.033.5-1.364a1.9 1.9 0 011.3-.496c.66 0 1.16.227 1.49.682l26.72 36.022v-34.968c0-.496.17-.909.5-1.24.33-.331.74-.496 1.24-.496zm43.18 3.224c.62.372.93.889.93 1.55 0 .372-.14.785-.43 1.24-.37.455-.85.682-1.43.682-.33 0-.66-.103-.99-.31-3.31-2.191-6.92-3.286-10.85-3.286-3.35 0-6.38.785-9.11 2.356-2.69 1.571-4.82 3.782-6.39 6.634-1.53 2.811-2.29 6.014-2.29 9.61 0 3.679.78 6.944 2.35 9.796 1.57 2.811 3.7 5.001 6.39 6.572 2.73 1.529 5.74 2.294 9.05 2.294 3.93 0 7.52-1.075 10.79-3.224.33-.207.68-.31 1.05-.31.58 0 1.06.248 1.43.744.29.331.43.723.43 1.178 0 .661-.29 1.157-.86 1.488-1.62 1.075-3.6 1.984-5.96 2.728-2.35.703-4.65 1.054-6.88 1.054-3.93 0-7.56-.93-10.91-2.79-3.31-1.901-5.95-4.547-7.94-7.936-1.94-3.389-2.91-7.254-2.91-11.594 0-4.175.97-7.957 2.91-11.346 1.95-3.431 4.57-6.097 7.88-7.998 3.3-1.943 6.96-2.914 10.97-2.914 2.32 0 4.57.331 6.76.992 2.23.661 4.24 1.591 6.01 2.79zm38.03-3.224c.58 0 1.03.186 1.36.558.38.331.56.785.56 1.364v39.556c-.04.579-.25 1.054-.62 1.426-.37.331-.83.496-1.36.496-.54 0-.99-.186-1.37-.558a1.857 1.857 0 01-.55-1.364v-18.476h-25.18v18.476c-.04.537-.24.992-.62 1.364-.37.372-.82.558-1.36.558-.58 0-1.05-.165-1.43-.496-.33-.372-.49-.847-.49-1.426v-39.556c0-.579.18-1.033.56-1.364.37-.372.84-.558 1.42-.558.54 0 .99.186 1.37.558.37.372.55.827.55 1.364v17.484h25.18v-17.484c0-.537.18-.992.55-1.364.42-.372.89-.558 1.43-.558z"
            fill="#000"/>
</svg>
